SplineFontDB: 3.2
FontName: cclgcr
FullName: Concrete LGC Normal
FamilyName: Concrete LGC
Weight: Regular
Copyright: Copyright (c) 2022, Nikola Lecic, Andrey Panov, Claudio Beccari, Luis Rivera
UComments: "2022-12-23: Created with FontForge (http://fontforge.org)"
Version: 001.000
ItalicAngle: 0
UnderlinePosition: -100
UnderlineWidth: 50
Ascent: 800
Descent: 200
InvalidEm: 0
LayerCount: 2
Layer: 0 0 "Atr+AOEA-s" 1
Layer: 1 0 "Fore" 0
XUID: [1021 435 22966 20757]
StyleMap: 0x0000
FSType: 0
OS2Version: 0
OS2_WeightWidthSlopeOnly: 0
OS2_UseTypoMetrics: 1
CreationTime: 1671781023
ModificationTime: 1671826862
OS2TypoAscent: 0
OS2TypoAOffset: 1
OS2TypoDescent: 0
OS2TypoDOffset: 1
OS2TypoLinegap: 90
OS2WinAscent: 0
OS2WinAOffset: 1
OS2WinDescent: 0
OS2WinDOffset: 1
HheadAscent: 0
HheadAOffset: 1
HheadDescent: 0
HheadDOffset: 1
Lookup: 1 0 0 "CMUConcrete-Roman-'case' Formas sensible a may+APoA-sculas b+APoA-squeda 0" { "CMUConcrete-Roman-'case' Formas sensible a may+APoA-sculas b+APoA-squeda 0 subtabla"  } ['case' ('cyrl' <'dflt' > 'grek' <'dflt' > 'latn' <'dflt' > ) ]
Lookup: 1 0 0 "CMUConcrete-Roman-'smcp' Min+APoA-sculas a may+APoA-sculas peque+APEA-as b+APoA-squeda 1" { "CMUConcrete-Roman-'smcp' Min+APoA-sculas a may+APoA-sculas peque+APEA-as b+APoA-squeda 1 subtabla"  } ['smcp' ('cyrl' <'dflt' > 'latn' <'dflt' > ) ]
Lookup: 1 0 0 "CMUConcrete-Roman-'c2sc' May+APoA-sculas a min+APoA-sculas b+APoA-squeda 2" { "CMUConcrete-Roman-'c2sc' May+APoA-sculas a min+APoA-sculas b+APoA-squeda 2 subtabla"  } ['c2sc' ('cyrl' <'dflt' > 'latn' <'dflt' > ) ]
Lookup: 4 0 1 "CMUConcrete-Roman-'liga' Ligaduras est+AOEA-ndar en Latin b+APoA-squeda 5" { "CMUConcrete-Roman-'liga' Ligaduras est+AOEA-ndar en Latin b+APoA-squeda 5 subtabla"  } ['liga' ('latn' <'NLD ' > ) ]
Lookup: 4 0 1 "CMUConcrete-Roman-'liga' Ligaduras est+AOEA-ndar en Latin b+APoA-squeda 6" { "CMUConcrete-Roman-'liga' Ligaduras est+AOEA-ndar en Latin b+APoA-squeda 6 subtabla"  } ['liga' ('latn' <'NLD ' 'VIT ' 'dflt' > ) ]

StartChar: endash
Encoding: 8211 8211 0
Width: 500
Flags: MW
HStem: 254 59<0 499 0 499>
LayerCount: 2
Fore
SplineSet
0 254 m 1
 0 313 l 1
 499 313 l 1
 499 254 l 1
 0 254 l 1
EndSplineSet
Validated: 1
EndChar

StartChar: uni0020032F
Encoding: 1114112 -1 1
Width: 333
Flags: MW
HStem: -109 63<132.5 175 124.5 199.5>
VStem: 290 42
LayerCount: 2
Fore
SplineSet
2 -181 m 0
 17 -105 81 -46 168 -46 c 0
 182 -46 196 -48 208 -51 c 0
 270 -68 318 -118 330 -181 c 0
 332 -189 332 -196 332 -202 c 0
 332 -217 328 -229 319 -238 c 0
 311 -245 302 -248 296 -245 c 0
 292 -243 291 -240 290 -227 c 0
 286 -162 233 -109 166 -109 c 0
 99 -109 46 -162 42 -227 c 0
 41 -240 40 -243 36 -245 c 0
 30 -248 21 -245 13 -238 c 0
 4 -229 0 -217 0 -202 c 0
 0 -196 0 -189 2 -181 c 0
EndSplineSet
Validated: 1
EndChar

StartChar: u10144
Encoding: 65860 65860 2
Width: 833
Flags: MW
HStem: 1 72<407 562 407 660> 619 64<119 713 119 119>
VStem: 55 64<0 619 0 683> 713 64<0 619 619 619>
LayerCount: 2
Fore
SplineSet
55 0 m 1
 55 683 l 1
 777 683 l 1
 777 0 l 1
 713 0 l 1
 713 619 l 1
 119 619 l 1
 119 0 l 1
 55 0 l 1
172 1 m 2
 169 4 166 6 166 12 c 0
 166 18 379 573 379 573 c 2
 384 587 393 588 416 588 c 0
 439 588 448 586 453 573 c 2
 453 573 666 18 666 12 c 0
 666 6 663 4 660 1 c 2
 172 1 l 2
409 484 m 0
 408 487 406 487 405 483 c 0
 397 459 308 222 275 135 c 0
 263 103 253 76 252 75 c 0
 252 73 260 73 407 73 c 2
 562 73 l 1
 562 74 557 88 550 105 c 0
 508 216 412 472 409 484 c 0
EndSplineSet
Validated: 1
EndChar

StartChar: u10145
Encoding: 65861 65861 3
Width: 833
Flags: W
HStem: 0 59<55 195 137 195 137 195 265 300 532 567 637 695> 268 59<265 567 265 567> 528 59<137 300 137 195 265 265 265 300 532 567 637 637 637 695> 619 64<119 713 119 119>
VStem: 55 64<0 619 0 683> 137 163<0 59 0 59 528 587> 195 70<59 268 327 528> 532 163<0 59 0 59 528 587> 567 70<59 268 268 268 327 528 59 528> 713 64<0 619 619 619>
LayerCount: 2
Fore
SplineSet
55 0 m 1xf840
 55 683 l 1
 777 683 l 1
 777 0 l 1
 713 0 l 1
 713 619 l 1
 119 619 l 1
 119 0 l 1
 55 0 l 1xf840
137 528 m 1xfc40
 137 587 l 1
 300 587 l 1
 300 528 l 1xfc40
 265 528 l 1
 265 327 l 1
 567 327 l 1
 567 528 l 1xfac0
 532 528 l 1
 532 587 l 1
 695 587 l 1
 695 528 l 1xf940
 637 528 l 1
 637 59 l 1xf8c0
 695 59 l 1
 695 0 l 1
 532 0 l 1
 532 59 l 1xf940
 567 59 l 1
 567 268 l 1
 265 268 l 1
 265 59 l 1xfac0
 300 59 l 1
 300 0 l 1
 137 0 l 1
 137 59 l 1xfc40
 195 59 l 1
 195 528 l 1xfa40
 137 528 l 1xfc40
EndSplineSet
Validated: 1
EndChar

StartChar: u10146
Encoding: 65862 65862 4
Width: 833
Flags: MW
HStem: 0 59<55 247 162 247 162 247 342 371 455 483 483 490.5 629 670> 528 59<162 243 162 377 322 322 322 377 461 519 585 585 585 670> 619 64<119 713 119 119>
VStem: 55 64<0 619 0 683> 162 209<0 59 0 59> 713 64<0 619 619 619>
LayerCount: 2
Fore
SplineSet
55 0 m 1
 55 683 l 1
 777 683 l 1
 777 0 l 1
 713 0 l 1
 713 619 l 1
 119 619 l 1
 119 0 l 1
 55 0 l 1
413 231 m 1
 408 223 314 62 313 60 c 0
 313 59 326 59 342 59 c 2
 371 59 l 1
 371 0 l 1
 162 0 l 1
 162 59 l 1
 247 59 l 1
 310 168 l 2
 349 235 374 277 380 289 c 1
 334 369 289 448 243 528 c 1
 162 528 l 1
 162 587 l 1
 377 587 l 1
 377 528 l 1
 322 528 l 1
 322 527 344 489 371 442 c 2
 420 356 l 1
 453 414 486 471 519 528 c 1
 461 528 l 1
 461 587 l 1
 670 587 l 1
 670 528 l 1
 585 528 l 1
 525 424 l 2
 492 367 462 316 458 310 c 2
 452 299 l 1
 497 219 543 139 589 60 c 1
 629 59 l 1
 670 59 l 1
 670 0 l 1
 455 0 l 1
 455 59 l 1
 483 59 l 2
 498 59 510 59 510 60 c 2
 510 60 488 99 461 146 c 2
 413 231 l 1
EndSplineSet
Validated: 1
EndChar

StartChar: u10147
Encoding: 65863 65863 5
Width: 833
Flags: MW
HStem: 0 59<55 209 151 209 151 209 268 326 501 559 623 681> 528 59<151 218 151 209 623 623 623 681> 619 64<119 713 119 119>
VStem: 55 64<0 619 0 683> 209 59<59 468 59 528> 559 64<59 480 480 480> 713 64<0 619 619 619>
LayerCount: 2
Fore
SplineSet
55 0 m 1
 55 683 l 1
 777 683 l 1
 777 0 l 1
 713 0 l 1
 713 619 l 1
 119 619 l 1
 119 0 l 1
 55 0 l 1
151 528 m 1
 151 587 l 1
 218 587 l 2
 262 587 287 587 289 586 c 0
 294 585 300 579 302 575 c 0
 306 564 325 485 416 124 c 1
 463 304 523 553 530 575 c 0
 532 579 538 585 543 586 c 0
 545 587 570 587 614 587 c 2
 681 587 l 1
 681 528 l 1
 623 528 l 1
 623 59 l 1
 681 59 l 1
 681 0 l 1
 501 0 l 1
 501 59 l 1
 559 59 l 1
 559 480 l 1
 501 249 l 2
 469 122 443 17 442 15 c 0
 440 3 429 0 412 0 c 0
 395 0 384 3 382 15 c 0
 381 17 356 120 325 243 c 2
 268 468 l 1
 268 59 l 1
 326 59 l 1
 326 0 l 1
 151 0 l 1
 151 59 l 1
 209 59 l 1
 209 528 l 1
 151 528 l 1
EndSplineSet
Validated: 1
EndChar

StartChar: uni03DB
Encoding: 987 987 6
Width: 500
Flags: MW
HStem: -97 59<302.5 331 302.5 344.5> 0 68<309 309 309 378 307 309> 396 68<317 331 331 347 317 407>
VStem: 42 59<180.5 274.5 179.5 290> 397 60<464.5 465>
LayerCount: 2
Fore
SplineSet
398 477 m 0
 398 499 407 513 427 513 c 0
 444 513 457 501 457 481 c 0
 457 444 438 415 414 401 c 2
 407 396 l 1
 331 396 l 2
 250 396 240 396 219 391 c 0
 139 376 101 321 101 228 c 0
 101 131 139 84 223 71 c 0
 236 69 242 69 309 68 c 2
 382 67 l 1
 419 55 457 32 457 -14 c 0
 457 -79 383 -97 306 -97 c 0
 298 -97 292 -97 289 -96 c 0
 277 -92 270 -80 270 -68 c 0
 270 -60 273 -51 280 -45 c 0
 287 -39 292 -38 313 -38 c 0
 349 -38 412 -36 395 -13 c 0
 392 -8 385 -4 378 0 c 1
 307 0 l 2
 231 1 227 1 202 7 c 0
 172 13 149 23 125 39 c 0
 71 75 42 136 42 225 c 0
 42 355 101 434 206 457 c 0
 233 463 232 463 317 464 c 0
 377 464 397 464 397 465 c 0
 398 466 398 471 398 477 c 0
EndSplineSet
Validated: 33
EndChar

StartChar: uni03DB.var
Encoding: 1114113 -1 7
Width: 556
Flags: MW
HStem: -97 59<302.5 331 302.5 344.5> 0 68<309 309 309 378 307 309> 396 68<317 331 331 347 317 407>
VStem: 42 59<180.5 274.5 179.5 290> 397 60<464.5 465>
LayerCount: 2
Fore
SplineSet
398 477 m 0
 398 499 407 513 427 513 c 0
 444 513 457 501 457 481 c 0
 457 444 438 415 414 401 c 2
 407 396 l 1
 331 396 l 2
 250 396 240 396 219 391 c 0
 139 376 101 321 101 228 c 0
 101 131 139 84 223 71 c 0
 236 69 242 69 309 68 c 2
 382 67 l 1
 419 55 457 32 457 -14 c 0
 457 -79 383 -97 306 -97 c 0
 298 -97 292 -97 289 -96 c 0
 277 -92 270 -80 270 -68 c 0
 270 -60 273 -51 280 -45 c 0
 287 -39 292 -38 313 -38 c 0
 349 -38 412 -36 395 -13 c 0
 392 -8 385 -4 378 0 c 1
 307 0 l 2
 231 1 227 1 202 7 c 0
 172 13 149 23 125 39 c 0
 71 75 42 136 42 225 c 0
 42 355 101 434 206 457 c 0
 233 463 232 463 317 464 c 0
 377 464 397 464 397 465 c 0
 398 466 398 471 398 477 c 0
EndSplineSet
Validated: 33
EndChar

StartChar: uni1FBE
Encoding: 8126 8126 8
Width: 222
Flags: MW
HStem: -154 59<20 78 144 202 20 78> 95 59<20 202 20 78 144 144 144 202>
VStem: 20 182<-154 -95 -154 -95 95 154>
LayerCount: 2
Fore
SplineSet
20 95 m 1
 20 154 l 1
 202 154 l 1
 202 95 l 1
 144 95 l 1
 144 -95 l 1
 202 -95 l 1
 202 -154 l 1
 20 -154 l 1
 20 -95 l 1
 78 -95 l 1
 78 95 l 1
 20 95 l 1
EndSplineSet
Validated: 1
EndChar

StartChar: uni1FBC
Encoding: 8124 8124 9
Width: 949
Flags: MW
HStem: -154 59<696 754 820 878 696 754> 0 59<34 77 219 255 34 77 468 505 505 515 661 704> 95 59<696 878 696 754 820 820 820 878> 213 59<319.5 404 319.5 489> 675 20G<356.5 381.5>
VStem: 696 182<-154 -95 -154 -95 95 154>
LayerCount: 2
Fore
SplineSet
336 686 m 0
 345 695 344 695 369 695 c 0
 394 695 393 695 402 686 c 0
 404 684 435 593 512 371 c 2
 619 60 l 1
 661 59 l 1
 704 59 l 1
 704 0 l 1
 468 0 l 1
 468 59 l 1
 505 59 l 2
 525 59 541 59 541 60 c 2
 541 60 529 95 515 137 c 2
 489 213 l 1
 234 213 l 1
 208 137 l 2
 194 95 182 60 182 60 c 2
 182 59 198 59 219 59 c 2
 255 59 l 1
 255 0 l 1
 34 0 l 1
 34 59 l 1
 77 59 l 1
 119 60 l 1
 226 371 l 2
 303 594 334 684 336 686 c 0
468 273 m 0
 468 274 363 579 362 582 c 1
 362 582 255 274 255 273 c 0
 255 272 277 272 362 272 c 0
 446 272 468 272 468 273 c 0
696 95 m 1
 696 154 l 1
 878 154 l 1
 878 95 l 1
 820 95 l 1
 820 -95 l 1
 878 -95 l 1
 878 -154 l 1
 696 -154 l 1
 696 -95 l 1
 754 -95 l 1
 754 95 l 1
 696 95 l 1
EndSplineSet
Validated: 1
EndChar

StartChar: uni1FCC
Encoding: 8140 8140 10
Width: 933
Flags: MW
HStem: -154 59<689 747 813 871 689 747> 0 59<47 136 212 301 47 136 436 525 601 690> 95 59<689 871 689 747 813 813 813 871> 326 59<212 525 212 525> 624 59<47 301 47 136 212 212 212 301 436 525 601 601 601 690>
VStem: 136 76<59 326 385 624> 525 76<59 326 326 326 385 624 59 624> 689 182<-154 -95 -154 -95 95 154>
LayerCount: 2
Fore
SplineSet
47 624 m 1
 47 683 l 1
 301 683 l 1
 301 624 l 1
 212 624 l 1
 212 385 l 1
 525 385 l 1
 525 624 l 1
 436 624 l 1
 436 683 l 1
 690 683 l 1
 690 624 l 1
 601 624 l 1
 601 59 l 1
 690 59 l 1
 690 0 l 1
 436 0 l 1
 436 59 l 1
 525 59 l 1
 525 326 l 1
 212 326 l 1
 212 59 l 1
 301 59 l 1
 301 0 l 1
 47 0 l 1
 47 59 l 1
 136 59 l 1
 136 624 l 1
 47 624 l 1
689 95 m 1
 689 154 l 1
 871 154 l 1
 871 95 l 1
 813 95 l 1
 813 -95 l 1
 871 -95 l 1
 871 -154 l 1
 689 -154 l 1
 689 -95 l 1
 747 -95 l 1
 747 95 l 1
 689 95 l 1
EndSplineSet
Validated: 1
EndChar

StartChar: uni1FFC
Encoding: 8188 8188 11
Width: 943
Flags: W
HStem: -154 59<714 772 838 896 714 772> 0 70<77 195 528 548 548 556.5> 95 59<714 896 714 772 838 838 838 896> 634 59<295 391.5 285 425>
VStem: 44 56<165 167 165 167> 55 79<448.5 472.5> 77 202<0 27 2 27> 443 65<26 72.5> 587 79<446.5 471.5 429.5 516> 621 56<165 167> 714 182<-154 -95 -154 -95 95 154>
LayerCount: 2
Fore
SplineSet
100 167 m 1xf920
 100 163 117 73 122 73 c 0
 126 71 162 70 188 70 c 0
 202 70 213 70 213 71 c 0
 213 74 206 97 201 109 c 0
 189 141 177 164 138 230 c 0
 114 271 105 288 94 311 c 0
 78 342 67 371 62 397 c 0
 57 417 55 436 55 455 c 0
 55 490 63 523 78 554 c 0
 122 640 219 693 351 693 c 0
 432 693 482 685 535 658 c 0
 585 634 620 599 643 554 c 0
 659 522 666 489 666 454 c 0xf5a0
 666 405 653 363 627 311 c 0
 616 288 607 271 583 230 c 0
 544 164 532 141 520 109 c 0
 515 97 508 74 508 71 c 0
 508 70 515 70 541 70 c 0
 572 70 595 71 599 73 c 0
 604 73 621 163 621 167 c 1
 677 167 l 1
 677 165 l 2xf160
 675 163 645 3 644 2 c 2
 644 0 l 1
 548 0 l 2
 453 0 452 1 449 3 c 0
 443 7 442 9 443 26 c 0
 443 57 451 94 466 134 c 0
 477 164 482 174 530 269 c 0
 559 328 574 365 581 403 c 0
 585 421 587 438 587 455 c 0
 587 577 490 634 360 634 c 0
 230 634 134 575 134 453 c 0xf5a0
 134 444 135 434 136 424 c 0
 142 380 157 337 191 269 c 0
 239 174 244 164 255 134 c 0
 270 96 277 61 279 27 c 0
 279 10 280 6 271 2 c 0
 267 0 267 0 172 0 c 2
 77 0 l 1
 77 2 l 2xf320
 76 3 46 163 44 165 c 2
 44 167 l 1
 100 167 l 1xf920
714 95 m 1
 714 154 l 1
 896 154 l 1
 896 95 l 1
 838 95 l 1
 838 -95 l 1
 896 -95 l 1
 896 -154 l 1
 714 -154 l 1
 714 -95 l 1
 772 -95 l 1
 772 95 l 1
 714 95 l 1
EndSplineSet
Validated: 1
EndChar

StartChar: uni0391.alt
Encoding: 1114114 -1 12
Width: 739
Flags: MW
HStem: 0 59<34 77 219 255 34 77 468 505 505 515 661 704> 213 59<319.5 404 319.5 489> 675 20G<356.5 381.5>
LayerCount: 2
Fore
SplineSet
336 686 m 0
 345 695 344 695 369 695 c 0
 394 695 393 695 402 686 c 0
 404 684 435 593 512 371 c 2
 619 60 l 1
 661 59 l 1
 704 59 l 1
 704 0 l 1
 468 0 l 1
 468 59 l 1
 505 59 l 2
 525 59 541 59 541 60 c 2
 541 60 529 95 515 137 c 2
 489 213 l 1
 234 213 l 1
 208 137 l 2
 194 95 182 60 182 60 c 2
 182 59 198 59 219 59 c 2
 255 59 l 1
 255 0 l 1
 34 0 l 1
 34 59 l 1
 77 59 l 1
 119 60 l 1
 226 371 l 2
 303 594 334 684 336 686 c 0
468 273 m 0
 468 274 363 579 362 582 c 1
 362 582 255 274 255 273 c 0
 255 272 277 272 362 272 c 0
 446 272 468 272 468 273 c 0
EndSplineSet
Validated: 1
EndChar

StartChar: uni03AB.alt
Encoding: 1114115 -1 13
Width: 639
Flags: MW
HStem: 0 59<68 157 230 319 68 157> 624 59<-133 102 -133 -44 62.5 71 71 102 302 333 432 432 432 521> 729 107<88.5 118 88.5 118 271.5 301>
VStem: 49 107<768 796 768 797.5> 157 73<59 273 59 274 59 274> 232 107<768 796 768 797.5>
LayerCount: 2
Fore
SplineSet
49 782 m 0
 49 813 73 836 104 836 c 0
 132 836 156 810 156 782 c 0
 156 754 132 729 104 729 c 0
 72 729 49 754 49 782 c 0
232 782 m 0
 232 813 256 836 287 836 c 0
 315 836 339 810 339 782 c 0
 339 754 315 729 287 729 c 0
 255 729 232 754 232 782 c 0
-133 624 m 1
 -133 683 l 1
 102 683 l 1
 102 624 l 1
 71 624 l 2
 54 624 41 624 41 623 c 0
 42 621 201 343 202 343 c 0
 203 343 363 622 363 623 c 0
 363 624 349 624 333 624 c 2
 302 624 l 1
 302 683 l 1
 521 683 l 1
 521 624 l 1
 432 624 l 1
 365 507 298 390 230 273 c 1
 230 59 l 1
 319 59 l 1
 319 0 l 1
 68 0 l 1
 68 59 l 1
 157 59 l 1
 157 274 l 1
 90 391 23 508 -44 624 c 1
 -133 624 l 1
EndSplineSet
Validated: 1
EndChar

StartChar: uni03B1.alt
Encoding: 1114116 -1 14
Width: 500
Flags: MW
HStem: -5 58<197.5 245.5> 405 58<213 216 216 248 203 253>
VStem: 43 69<185.5 243> 331 71 430 41<46.5 105>
LayerCount: 2
Fore
SplineSet
471 70 m 0
 471 23 433 -6 381 -6 c 0
 362 -5 352 4 341 27 c 1
 341 27 339 25 335 23 c 0
 306 6 268 -5 223 -5 c 0
 172 -5 144 9 115 38 c 0
 69 80 43 142 43 229 c 0
 43 257 43 262 45 275 c 0
 59 368 112 450 203 463 c 1
 216 463 l 2
 280 463 322 448 357 419 c 1
 371 435 386 450 402 464 c 1
 402 269 l 2
 403 57 402 66 408 56 c 0
 412 48 419 48 423 55 c 0
 427 61 429 73 430 96 c 0
 430 114 430 115 433 118 c 0
 437 123 446 121 455 112 c 0
 464 103 471 88 471 70 c 0
112 229 m 0
 112 129 150 53 224 53 c 0
 273 53 322 68 331 103 c 0
 332 107 332 168 332 229 c 0
 332 290 332 351 331 355 c 0
 322 386 281 405 225 405 c 0
 201 405 186 400 170 388 c 0
 134 362 112 302 112 229 c 0
EndSplineSet
Validated: 1
EndChar

StartChar: uni03CB.alt
Encoding: 1114117 -1 15
Width: 417
Flags: W
HStem: -5 59<156 174.5> 399 59<-66 -4 -66 -4 -4 0 196 263 333 333 333 399> 518 107<50.5 78 255 282>
VStem: 0 71 11 107<558 585.5> 215 107<558 586 558 587.5> 263 70<274 278 278 399>
LayerCount: 2
Fore
SplineSet
11 570 m 0xe8
 11 601 35 625 66 625 c 0
 94 625 118 600 118 572 c 0
 118 544 92 518 64 518 c 0
 36 518 11 542 11 570 c 0xe8
215 572 m 0xe4
 215 603 240 625 270 625 c 0
 298 625 322 600 322 572 c 0
 322 544 296 518 268 518 c 0
 240 518 215 544 215 572 c 0xe4
-66 399 m 1
 -66 458 l 1
 -4 458 l 2
 57 458 58 458 62 456 c 0
 64 455 67 452 68 451 c 0
 69 448 70 443 70 299 c 2
 71 150 l 1
 73 140 l 2
 82 95 117 54 166 54 c 0
 216 54 249 89 260 140 c 0
 262 149 262 150 263 274 c 2
 263 399 l 1
 196 399 l 1
 196 458 l 1
 399 458 l 1
 399 399 l 1
 333 399 l 1
 333 278 l 2
 333 200 333 155 332 148 c 0
 324 72 270 11 197 -3 c 0
 187 -5 182 -5 167 -5 c 0
 145 -5 133 -4 115 2 c 0
 53 23 9 80 1 148 c 0
 0 155 0 200 0 278 c 2
 0 399 l 1xf2
 -66 399 l 1
EndSplineSet
Validated: 1
EndChar

StartChar: uni02CF
Encoding: 719 719 16
Width: 139
Flags: MW
HStem: -21 20G<136 138>
VStem: -9 147<-179 -1>
LayerCount: 2
Fore
SplineSet
-5 -160 m 2
 -5 -160 134 -1 138 -1 c 1
 138 -83 l 1
 89 -139 l 2
 62 -170 39 -197 37 -198 c 0
 29 -206 17 -205 5 -199 c 0
 -4 -193 -9 -184 -9 -174 c 0
 -9 -169 -8 -165 -5 -160 c 2
EndSplineSet
Validated: 33
EndChar

StartChar: uni02CE
Encoding: 718 718 17
Width: 194
Flags: MW
HStem: -201 201<0 179>
VStem: 0 202<-180 0 -180 0>
LayerCount: 2
Fore
SplineSet
202 -172 m 0
 202 -188 187 -201 171 -201 c 0
 167 -201 164 -201 160 -199 c 0
 157 -197 120 -171 77 -140 c 2
 0 -83 l 1
 0 0 l 1
 9 -7 l 2
 11 -9 194 -152 196 -156 c 0
 201 -160 202 -164 202 -172 c 0
EndSplineSet
Validated: 1
EndChar

StartChar: uni03DF
Encoding: 991 991 18
Width: 389
Flags: W
HStem: 215 70<96 292 28 360> 674 20G<55 120 120 120>
VStem: 28 68<215 285 218 285> 55 65<690 694 686 694> 268 65<-194 -190 -194 -186 -194 -186> 291 69<208.5 282>
LayerCount: 2
Fore
SplineSet
28 218 m 2xe4
 28 230 55 666 55 690 c 2
 55 694 l 1
 120 694 l 1
 120 686 l 2xd0
 118 678 97 292 97 291 c 2
 96 285 l 1
 360 285 l 1
 360 282 l 2xe4
 360 270 333 -166 333 -190 c 2
 333 -194 l 1
 268 -194 l 1
 268 -186 l 2xc8
 270 -178 291 208 291 209 c 2
 292 215 l 1
 28 215 l 1
 28 218 l 2xe4
EndSplineSet
Validated: 1
EndChar

StartChar: uni03D9
Encoding: 985 985 19
Width: 500
Flags: MW
HStem: -194 59<148 214 285 351 148 214> 404 60<249 251>
VStem: 56 70<201.5 257.5 185 289.5> 214 71<-135 -2 -135 -2> 374 69<184.5 267 183.5 270>
LayerCount: 2
Fore
SplineSet
56 229 m 0
 56 350 124 447 229 463 c 0
 233 463 244 464 254 464 c 0
 308 460 337 446 371 413 c 0
 414 373 443 305 443 229 c 0
 443 138 404 70 353 28 c 0
 333 14 309 3 285 -2 c 1
 285 -135 l 1
 351 -135 l 1
 351 -194 l 1
 148 -194 l 1
 148 -135 l 1
 214 -135 l 1
 214 -2 l 1
 160 10 122 43 96 85 c 0
 71 120 56 174 56 229 c 0
250 54 m 0
 331 54 374 140 374 229 c 0
 374 311 334 387 274 402 c 0
 268 403 256 404 246 404 c 0
 219 404 196 393 178 375 c 0
 144 342 126 286 126 229 c 0
 126 141 169 54 250 54 c 0
EndSplineSet
Validated: 1
EndChar

StartChar: uni0020032E
Encoding: 1114118 -1 20
Width: 333
Flags: MW
HStem: -234 63<132.5 199.5 132.5 209>
VStem: 0 42
LayerCount: 2
Fore
SplineSet
0 -78 m 0
 0 -58 9 -38 27 -34 c 0
 39 -30 41 -38 42 -53 c 0
 46 -118 99 -171 166 -171 c 0
 233 -171 286 -118 290 -53 c 0
 291 -40 292 -37 296 -35 c 0
 302 -32 311 -35 319 -42 c 0
 328 -51 332 -63 332 -78 c 0
 332 -84 332 -91 330 -99 c 0
 315 -174 252 -234 166 -234 c 0
 87 -234 18 -178 2 -99 c 0
 0 -91 0 -84 0 -78 c 0
EndSplineSet
Validated: 1
EndChar

StartChar: uni03D8
Encoding: 984 984 21
Width: 500
Flags: MW
HStem: -7 59<116 211 288 383 116 211> 629 60<234.5 267.5>
VStem: 33 76<455.5 513 439 533.5> 211 77<52 272 52 272> 390 75<449 499.5>
LayerCount: 2
Fore
SplineSet
33 478 m 0
 33 589 126 689 249 689 c 0
 300 689 352 671 390 639 c 0
 432 602 465 550 465 479 c 0
 465 419 439 361 391 319 c 0
 365 298 330 281 298 274 c 2
 288 272 l 1
 288 52 l 1
 383 52 l 1
 383 -7 l 1
 116 -7 l 1
 116 52 l 1
 211 52 l 1
 211 272 l 1
 201 274 l 2
 154 284 108 312 78 351 c 0
 48 389 33 433 33 478 c 0
345 590 m 0
 318 616 292 629 243 629 c 0
 226 629 211 626 198 620 c 0
 148 599 109 547 109 479 c 0
 109 399 161 343 223 330 c 0
 231 328 240 328 250 328 c 0
 260 328 268 328 276 330 c 0
 338 344 390 401 390 479 c 0
 390 520 374 560 345 590 c 0
EndSplineSet
Validated: 1
EndChar

StartChar: uni03DA.var
Encoding: 1114119 -1 22
Width: 778
Flags: MW
HStem: 0 59<504 593 504 593> 618 59
VStem: 37 75<285 390.5 285 395> 428 76<74 603 603 603 59 671 59 677> 682 59<424.5 430 424 436>
LayerCount: 2
Fore
SplineSet
722 671 m 2
 723 667 741 432 741 430 c 2
 741 424 l 1
 712 424 l 2
 695 424 682 424 682 425 c 0
 682 447 668 596 662 604 c 0
 661 607 653 610 644 613 c 0
 628 617 618 617 560 618 c 2
 504 618 l 1
 504 59 l 1
 593 59 l 1
 593 0 l 1
 438 0 l 2
 338 0 280 0 273 1 c 0
 130 14 37 166 37 338 c 0
 37 452 71 533 123 596 c 0
 162 641 215 670 271 676 c 0
 276 676 313 677 354 677 c 2
 428 677 l 1
 428 671 l 2
 428 665 428 665 429 668 c 0
 431 671 435 675 438 676 c 0
 440 677 484 677 581 677 c 2
 722 677 l 1
 722 671 l 2
428 603 m 1
 410 621 348 617 298 617 c 0
 248 617 219 603 189 574 c 0
 142 526 112 443 112 338 c 0
 112 232 143 150 191 103 c 0
 212 81 235 68 265 62 c 0
 275 60 277 60 321 60 c 0
 392 60 417 63 428 74 c 1
 428 603 l 1
EndSplineSet
Validated: 33
EndChar

StartChar: uni03E0
Encoding: 992 992 23
Width: 767
Flags: MW
HStem: 0 59<20 52 148 186 20 52 226 290 373 392 490 517 517 524.5 676 726>
LayerCount: 2
Fore
SplineSet
214 512 m 0
 214 516 141 611 141 616 c 0
 140 617 140 633 140 652 c 0
 140 684 140 686 142 690 c 0
 145 696 154 703 163 696 c 0
 165 695 245 586 397 377 c 2
 627 60 l 1
 676 59 l 1
 726 59 l 1
 726 0 l 1
 490 0 l 1
 490 59 l 1
 517 59 l 2
 532 59 543 59 543 60 c 1
 552 48 394 266 408 244 c 1
 404 240 358 65 354 61 c 0
 354 59 355 59 373 59 c 2
 392 59 l 1
 392 0 l 1
 226 0 l 1
 226 59 l 1
 290 59 l 1
 325 183 l 2
 345 251 361 307 361 309 c 0
 361 310 262 448 261 448 c 2
 261 448 152 76 148 61 c 1
 148 59 l 1
 186 59 l 1
 186 0 l 1
 20 0 l 1
 20 59 l 1
 52 59 l 1
 83 60 l 1
 149 285 l 2
 185 408 214 510 214 512 c 0
EndSplineSet
Validated: 33
EndChar

StartChar: Euro
Encoding: 8364 8364 24
Width: 778
Flags: MW
HStem: 0 70<428.5 494.5 407.5 504> 257 61<68 112 68 122 64 112 195 195 195 370> 365 61<58 73 49.5 112 58 58> 612 71<451 455 455 487>
VStem: 112 71<318 321 361 362 362 365 318 365>
LayerCount: 2
Fore
SplineSet
689 95 m 1
 637 43 555 0 453 0 c 0
 404 0 356 10 313 30 c 0
 223 71 155 149 126 243 c 2
 122 257 l 1
 64 257 l 1
 5 258 l 1
 2 260 l 2
 1 262 0 264 0 265 c 0
 0 268 20 313 22 316 c 0
 24 317 26 318 68 318 c 2
 112 318 l 1
 112 365 l 1
 58 365 l 1
 5 366 l 1
 2 368 l 2
 1 370 0 372 0 373 c 0
 0 376 20 421 22 424 c 0
 24 425 26 426 73 426 c 2
 122 427 l 1
 126 441 l 2
 165 569 278 664 412 680 c 0
 419 681 427 682 430 682 c 0
 432 682 442 683 451 683 c 2
 455 683 l 2
 539 683 621 650 683 592 c 0
 688 587 689 586 689 583 c 0
 689 580 668 531 665 528 c 0
 662 525 656 525 653 528 c 0
 649 534 629 550 619 558 c 0
 573 593 523 612 451 612 c 0
 438 612 426 612 418 611 c 0
 316 596 237 531 199 437 c 2
 195 427 l 1
 403 426 l 1
 611 426 l 2
 613 424 616 421 616 418 c 0
 616 415 596 370 594 368 c 0
 592 366 590 365 388 365 c 2
 183 365 l 1
 183 362 l 2
 183 360 182 351 182 342 c 0
 182 333 183 323 183 321 c 2
 183 318 l 1
 562 318 l 2
 564 316 568 314 568 310 c 0
 568 306 549 262 546 260 c 0
 544 258 542 257 370 257 c 2
 195 257 l 1
 199 246 l 2
 205 231 217 207 226 194 c 0
 276 116 359 70 456 70 c 0
 533 70 611 100 670 153 c 0
 680 162 682 160 689 155 c 1
 689 95 l 1
EndSplineSet
Validated: 1
EndChar

StartChar: perthousand
Encoding: 8240 8240 25
Width: 1167
Flags: W
HStem: -56 59<628 651 966 984> 288 59<628.5 671 961.5 1004> 347 59<184 207> 585 52<444.5 480.5> 691 59<184.5 216.5 184.5 227>
VStem: 56 66<526 572 526 584.5> 276 57<511.5 561.5 510 584.5> 500 66<123 169 123 182.5> 720 57<108.5 181.5> 833 66<118 179.5 117.5 182.5> 1053 57<111 181.5>
LayerCount: 2
Fore
SplineSet
690 718 m 2xbfe0
 691 714 696 704 696 701 c 0
 695 700 692 695 689 690 c 0
 673 668 655 651 634 635 c 1
 404 292 l 2
 220 19 173 -51 170 -53 c 0
 155 -63 132 -45 141 -28 c 0
 149 -13 560 594 560 598 c 1
 560 598 529 590 518 588 c 0
 507 586 489 585 472 585 c 0
 417 585 369 600 327 621 c 1
 324 623 l 1
 327 612 l 2
 330 593 333 573 333 550 c 0
 333 470 305 399 260 367 c 0
 241 353 218 347 196 347 c 0
 155 347 122 370 101 397 c 0
 71 436 56 492 56 548 c 0
 56 621 82 697 132 730 c 0
 151 742 171 750 198 750 c 0
 235 750 267 731 292 697 c 0
 298 688 300 686 308 681 c 0
 353 652 403 637 455 637 c 0
 542 637 617 680 652 733 c 0
 661 747 664 749 673 750 c 0
 684 750 700 736 692 722 c 2
 690 718 l 2xbfe0
276 549 m 0
 276 620 258 691 196 691 c 0
 170 691 154 676 143 658 c 0
 128 634 122 595 122 549 c 0
 122 503 128 463 143 439 c 0
 154 420 171 406 197 406 c 0
 252 406 276 474 276 549 c 0
642 347 m 0xdfe0
 731 347 777 243 777 146 c 0
 777 62 748 -5 704 -36 c 0
 685 -50 662 -56 640 -56 c 0
 599 -56 566 -33 545 -6 c 0
 515 33 500 90 500 146 c 0
 500 219 526 294 576 327 c 0
 595 339 615 347 642 347 c 0xdfe0
720 146 m 0
 720 217 702 288 640 288 c 0
 614 288 598 273 587 255 c 0
 572 231 566 192 566 146 c 0
 566 100 572 60 587 36 c 0
 598 17 615 3 641 3 c 0
 696 3 720 71 720 146 c 0
975 347 m 0
 1064 347 1110 243 1110 146 c 0
 1110 62 1081 -5 1037 -36 c 0
 1018 -50 995 -56 973 -56 c 0
 932 -56 899 -33 878 -6 c 0
 848 33 833 90 833 146 c 0
 833 219 859 294 909 327 c 0
 928 339 948 347 975 347 c 0
1053 146 m 0
 1053 217 1035 288 973 288 c 0
 910 288 899 213 899 146 c 0
 899 89 907 46 932 20 c 0
 945 9 956 3 976 3 c 0
 1031 3 1053 76 1053 146 c 0
EndSplineSet
Validated: 33
EndChar

StartChar: uni0259
Encoding: 601 601 26
Width: 444
Flags: MW
HStem: -5 59<182 215.5 182 221.5> 167 55<90 210 90 90> 405 62<174 187 187 223>
VStem: 28 62<159 164 164 167 159 207> 336 76<222 240 240 240>
LayerCount: 2
Fore
SplineSet
336 240 m 1
 332 343 275 405 171 405 c 0
 154 405 153 405 146 403 c 0
 120 394 99 370 89 339 c 0
 83 320 82 320 58 320 c 0
 41 320 39 320 36 322 c 0
 32 325 28 330 28 335 c 0
 28 341 36 361 43 375 c 0
 69 425 116 459 174 467 c 1
 187 467 l 2
 330 467 412 375 412 230 c 0
 412 129 367 48 297 15 c 0
 269 2 237 -5 206 -5 c 0
 87 -5 28 77 28 199 c 0
 28 215 31 218 40 222 c 1
 336 222 l 1
 336 240 l 1
331 166 m 0
 331 167 306 167 210 167 c 2
 90 167 l 1
 90 164 l 2
 90 154 98 125 105 112 c 0
 123 75 157 54 207 54 c 0
 224 54 240 57 256 64 c 0
 291 78 316 110 327 154 c 0
 329 160 330 165 331 166 c 0
EndSplineSet
Validated: 1
EndChar

StartChar: uni03E1
Encoding: 993 993 27
Width: 722
Flags: MW
HStem: 635 65
VStem: 599 67
LayerCount: 2
Fore
SplineSet
209 337 m 0
 191 337 176 350 176 368 c 0
 176 376 179 384 185 390 c 0
 204 403 369 540 372 540 c 0
 373 541 372 542 356 553 c 0
 310 586 259 610 206 623 c 0
 176 630 151 634 117 635 c 0
 96 636 94 636 89 638 c 0
 77 645 72 650 70 666 c 0
 70 684 79 694 93 699 c 0
 95 699 102 700 111 700 c 0
 124 700 141 699 153 698 c 0
 269 685 375 635 462 551 c 0
 587 428 663 244 665 54 c 1
 666 33 l 1
 658 20 651 6 631 6 c 0
 615 6 605 14 599 24 c 0
 596 30 597 27 594 82 c 0
 590 159 572 239 542 311 c 0
 535 328 523 354 522 354 c 2
 522 354 332 202 331 201 c 0
 309 195 287 207 287 229 c 0
 287 236 290 244 295 250 c 0
 304 259 481 399 490 408 c 0
 491 409 490 410 484 420 c 0
 467 444 451 465 431 487 c 0
 424 494 419 499 418 499 c 1
 418 498 220 340 220 340 c 2
 217 338 214 338 209 337 c 0
EndSplineSet
Validated: 33
EndChar

StartChar: quoteleft
Encoding: 8216 8216 28
Width: 278
Flags: MW
HStem: 393 107<133 138 138 153.5 130 154.5> 674 20G<148.5 152>
VStem: 71 59<500 513 500 546.5>
LayerCount: 2
Fore
SplineSet
192 446 m 0
 192 418 169 393 140 393 c 0
 126 393 117 397 107 403 c 0
 83 420 71 458 71 508 c 0
 71 585 103 645 142 688 c 0
 146 692 147 694 150 694 c 0
 154 694 159 689 171 677 c 0
 181 668 189 659 189 658 c 0
 190 655 189 652 182 644 c 0
 150 608 133 563 130 513 c 2
 130 500 l 1
 138 500 l 2
 169 500 192 475 192 446 c 0
EndSplineSet
Validated: 1
EndChar

StartChar: quoteright
Encoding: 8217 8217 29
Width: 278
Flags: MW
HStem: 587 107<124 139 139 147>
VStem: 147 59<574 587 587 587>
LayerCount: 2
Fore
SplineSet
85 640 m 0
 85 672 106 694 138 694 c 0
 165 694 182 679 191 657 c 0
 201 637 206 610 206 581 c 0
 206 505 174 441 135 399 c 0
 131 395 130 393 127 393 c 0
 123 393 118 398 106 410 c 0
 96 419 88 428 88 429 c 0
 87 432 88 435 95 443 c 0
 127 479 144 524 147 574 c 2
 147 587 l 1
 139 587 l 2
 109 587 85 611 85 640 c 0
EndSplineSet
Validated: 1
EndChar

StartChar: breve
Encoding: 728 728 30
Width: 389
Flags: MW
HStem: 516 64<159.5 218 159.5 246> 674 20G<0 59 59 59 329 388 388 388>
LayerCount: 2
Fore
SplineSet
0 683 m 2
 0 694 l 1
 59 694 l 1
 60 683 l 2
 65 621 125 580 194 580 c 0
 242 580 274 595 298 621 c 0
 316 639 326 659 328 683 c 2
 329 694 l 1
 388 694 l 1
 388 683 l 1
 379 585 297 516 195 516 c 0
 111 516 46 562 18 620 c 0
 7 641 2 660 0 683 c 2
EndSplineSet
Validated: 1
EndChar

StartChar: macron
Encoding: 175 175 31
Width: 389
Flags: MW
HStem: 565 61<0 388 0 388>
LayerCount: 2
Fore
SplineSet
0 565 m 1
 0 626 l 1
 388 626 l 1
 388 565 l 1
 0 565 l 1
EndSplineSet
Validated: 1
EndChar

StartChar: uni1FC1
Encoding: 8129 8129 32
Width: 444
Flags: W
HStem: 501 79<137.5 150 137.5 159.5 295 297> 602 60<285 298.5 280.5 312.5> 634 60<144.5 159.5 128.5 162.5>
VStem: 55 62<610 612 609 638> 109 79<528.5 552 528.5 552.5> 256 79<528.5 551> 326 62<684 686.5 658.5 687>
LayerCount: 2
Fore
SplineSet
61 602 m 2xd2
 58 605 55 607 55 613 c 0
 55 663 103 694 154 694 c 0xb2
 165 694 178 692 190 689 c 0
 198 687 209 683 243 672 c 0
 266 663 273 662 288 662 c 0xd2
 309 662 324 670 326 684 c 0
 326 690 329 691 331 694 c 2
 383 694 l 1xb2
 386 690 388 690 388 683 c 0
 388 634 337 602 288 602 c 0xd2
 282 602 277 602 271 603 c 0
 254 606 247 608 201 624 c 0
 177 633 170 634 155 634 c 0xb2
 134 634 119 626 117 612 c 0
 117 606 114 605 112 602 c 2
 61 602 l 2xd2
109 540 m 0x88
 109 565 125 580 150 580 c 0
 169 579 188 564 188 540 c 0
 188 517 171 501 148 501 c 0
 125 501 109 516 109 540 c 0x88
256 540 m 0x84
 256 562 269 574 286 579 c 0
 288 579 293 580 297 580 c 0
 316 579 335 564 335 540 c 0
 335 517 318 501 295 501 c 0
 272 501 256 516 256 540 c 0x84
EndSplineSet
Validated: 1
EndChar

StartChar: exclam
Encoding: 33 33 33
Width: 278
Flags: MW
HStem: 0 107<124.5 152>
VStem: 85 107<40 67.5>
LayerCount: 2
Fore
SplineSet
91 676 m 0
 102 696 122 709 153 703 c 0
 167 699 179 690 186 676 c 0
 189 670 191 670 191 650 c 0
 191 625 188 570 181 435 c 0
 174 314 169 210 168 205 c 0
 167 192 168 191 148 191 c 2
 139 191 l 1
 129 191 l 2
 108 191 110 192 109 205 c 0
 108 210 103 314 96 435 c 0
 89 570 86 625 86 650 c 0
 86 670 88 670 91 676 c 0
85 52 m 0
 85 83 109 107 140 107 c 0
 168 107 192 82 192 54 c 0
 192 26 166 0 138 0 c 0
 110 0 85 24 85 52 c 0
EndSplineSet
Validated: 33
EndChar

StartChar: dieresis
Encoding: 168 168 34
Width: 222
Flags: MW
HStem: 511 107<2 30 192 220>
VStem: -38 107<550 578 550 578.5> 152 107<551 579.5 551 580.5>
LayerCount: 2
Fore
SplineSet
-38 564 m 0
 -38 593 -14 618 17 618 c 0
 45 618 69 592 69 564 c 0
 69 536 44 511 16 511 c 0
 -12 511 -38 536 -38 564 c 0
152 565 m 0
 152 596 176 618 206 618 c 0
 235 618 259 594 259 565 c 0
 259 537 234 511 206 511 c 0
 178 511 152 537 152 565 c 0
EndSplineSet
Validated: 1
EndChar

StartChar: dieresistonos
Encoding: 901 901 35
Width: 278
Flags: MW
HStem: 504 72<41 61 216 236.5>
VStem: 12 80<530 550.5> 185 80<530 550>
LayerCount: 2
Fore
SplineSet
127 503 m 0
 124 503 112 507 114 509 c 0
 114 511 121 549 129 594 c 0
 145 680 145 683 152 690 c 0
 157 697 166 700 176 700 c 0
 198 700 214 684 214 666 c 0
 214 662 213 659 212 655 c 0
 211 651 128 505 127 503 c 0
12 540 m 0
 12 561 30 576 52 576 c 0
 72 576 92 561 92 540 c 0
 92 519 71 504 51 504 c 0
 29 504 12 520 12 540 c 0
185 540 m 0
 185 560 204 576 226 576 c 0
 247 576 265 561 265 540 c 0
 265 520 248 504 226 504 c 0
 206 504 185 519 185 540 c 0
EndSplineSet
Validated: 1
EndChar

StartChar: uni1FED
Encoding: 8173 8173 36
Width: 278
Flags: W
HStem: 504 72<41 61 216 236.5>
VStem: 12 80<530 550.5> 65 66 185 80<530 550>
LayerCount: 2
Fore
SplineSet
65 655 m 0xb0
 53 688 90 708 116 697 c 0
 123 694 127 689 131 681 c 0
 133 676 163 517 163 509 c 0
 165 507 153 503 150 503 c 0
 149 505 66 651 65 655 c 0xb0
12 540 m 0xd0
 12 561 30 576 52 576 c 0
 72 576 92 561 92 540 c 0
 92 519 71 504 51 504 c 0
 29 504 12 520 12 540 c 0xd0
185 540 m 0
 185 560 204 576 226 576 c 0
 247 576 265 561 265 540 c 0
 265 520 248 504 226 504 c 0
 206 504 185 519 185 540 c 0
EndSplineSet
Validated: 33
EndChar

StartChar: percent
Encoding: 37 37 37
Width: 833
Flags: MW
HStem: -55 58<634 647.5 634 648.5> 288 59<640 643> 348 58<190 203.5 190 204.5> 593 55<450.5 491> 691 59<179 199>
VStem: 55 65<517 583.5 517 585.5> 276 57<519.5 563 498.5 584> 499 66<134.5 157 134.5 199> 720 57<117.5 176 95.5 182>
LayerCount: 2
Fore
SplineSet
325 625 m 1
 332 605 333 577 333 549 c 0
 333 448 299 371 223 350 c 0
 215 348 212 348 197 348 c 0
 158 348 139 358 116 377 c 0
 77 410 55 473 55 548 c 0
 55 623 77 687 116 720 c 0
 139 738 162 750 196 750 c 0
 231 750 244 742 275 719 c 0
 328 680 390 648 473 648 c 0
 557 648 617 686 655 738 c 0
 661 747 667 751 675 750 c 0
 685 749 693 740 693 731 c 0
 693 727 693 726 699 723 c 0
 704 720 707 716 707 713 c 0
 707 710 698 697 689 687 c 0
 676 670 656 652 641 642 c 0
 628 631 178 -47 170 -53 c 0
 154 -64 133 -45 141 -27 c 0
 142 -26 564 603 565 605 c 1
 565 605 559 604 553 602 c 0
 528 596 506 593 476 593 c 0
 425 593 375 607 335 621 c 0
 330 623 326 625 325 625 c 1
276 548 m 0
 276 620 258 678 208 690 c 0
 204 691 201 691 197 691 c 0
 135 691 120 619 120 548 c 0
 120 486 131 440 159 418 c 0
 171 410 184 406 196 406 c 0
 211 406 226 412 239 425 c 0
 264 448 276 491 276 548 c 0
499 146 m 0
 499 252 538 331 624 346 c 0
 627 346 636 347 644 347 c 0
 686 345 721 320 741 290 c 0
 765 253 777 206 777 146 c 0
 777 45 743 -32 667 -53 c 0
 659 -55 656 -55 641 -55 c 0
 602 -55 583 -45 560 -26 c 0
 521 7 499 71 499 146 c 0
720 146 m 0
 720 218 702 275 652 287 c 0
 648 288 645 288 641 288 c 0
 593 288 572 242 566 191 c 0
 565 184 565 168 565 146 c 0
 565 123 565 107 566 100 c 0
 571 58 584 30 603 15 c 0
 615 7 628 3 640 3 c 0
 655 3 670 9 683 22 c 0
 708 45 720 89 720 146 c 0
EndSplineSet
Validated: 33
EndChar

StartChar: periodcentered
Encoding: 183 183 38
Width: 278
Flags: MW
HStem: 219 63<130.5 145.5>
VStem: 108 61<239.5 259.5>
LayerCount: 2
Fore
SplineSet
108 250 m 0
 108 269 120 282 138 282 c 0
 156 282 169 269 169 250 c 0
 169 229 153 219 138 219 c 0
 123 219 108 229 108 250 c 0
EndSplineSet
Validated: 1
EndChar

StartChar: tonos
Encoding: 900 900 39
Width: 167
Flags: MW
HStem: 503 197
VStem: 46 85
LayerCount: 2
Fore
SplineSet
92 700 m 0
 111 700 131 689 131 667 c 0
 131 659 130 657 128 652 c 0
 126 647 45 504 43 503 c 0
 38 505 30 507 30 510 c 0
 31 511 38 550 46 595 c 0
 62 683 62 683 70 691 c 0
 75 697 83 700 92 700 c 0
EndSplineSet
Validated: 1
EndChar

StartChar: parenleft
Encoding: 40 40 40
Width: 389
Flags: MW
VStem: 83 66<209.5 290.5 209.5 360>
LayerCount: 2
Fore
SplineSet
333 -241 m 0
 333 -246 330 -247 328 -250 c 2
 279 -250 l 1
 269 -241 l 2
 150 -136 83 30 83 250 c 0
 83 470 149 635 269 741 c 2
 279 750 l 1
 328 750 l 2
 330 747 333 746 333 741 c 0
 333 739 332 737 325 730 c 0
 255 665 207 586 179 482 c 0
 159 412 149 331 149 250 c 0
 149 169 159 88 179 18 c 0
 207 -86 255 -165 325 -230 c 0
 332 -237 333 -239 333 -241 c 0
EndSplineSet
Validated: 1
EndChar

StartChar: parenright
Encoding: 41 41 41
Width: 389
Flags: MW
VStem: 239 66<209.5 290.5>
LayerCount: 2
Fore
SplineSet
55 742 m 0
 55 745 59 748 61 750 c 2
 109 750 l 1
 119 741 l 2
 239 635 305 470 305 250 c 0
 305 30 239 -135 119 -241 c 2
 109 -250 l 1
 61 -250 l 2
 59 -248 55 -245 55 -242 c 0
 55 -239 59 -234 72 -221 c 0
 137 -158 182 -82 209 18 c 0
 229 88 239 169 239 250 c 0
 239 331 229 412 209 482 c 0
 182 582 137 658 72 721 c 0
 59 734 55 739 55 742 c 0
EndSplineSet
Validated: 1
EndChar

StartChar: asterisk
Encoding: 42 42 42
Width: 500
Flags: MW
VStem: 218 63<318.5 333.5 711.5 723.5>
LayerCount: 2
Fore
SplineSet
226 739 m 0
 242 759 281 749 281 719 c 0
 281 704 276 598 275 568 c 1
 392 648 l 2
 398 651 411 650 417 647 c 0
 428 641 434 630 434 618 c 0
 434 611 432 605 428 599 c 0
 423 593 298 521 298 521 c 1
 390 465 420 453 428 443 c 0
 432 437 434 431 434 424 c 0
 434 412 428 401 417 395 c 0
 411 392 398 391 392 394 c 0
 391 394 275 474 275 474 c 1
 275 474 281 339 281 328 c 0
 281 309 278 308 273 303 c 0
 266 295 260 293 250 293 c 0
 239 293 233 295 226 303 c 0
 221 308 218 309 218 328 c 0
 218 339 224 474 224 474 c 1
 224 474 198 456 168 435 c 0
 137 413 110 395 107 394 c 0
 101 391 88 392 82 395 c 0
 71 401 65 412 65 424 c 0
 65 431 67 437 71 443 c 0
 76 449 201 521 201 521 c 1
 109 577 79 589 71 599 c 0
 67 605 65 611 65 618 c 0
 65 630 71 641 82 647 c 0
 88 650 101 651 107 648 c 0
 110 647 137 629 168 607 c 0
 198 586 224 568 224 568 c 1
 224 568 218 703 218 714 c 0
 218 733 221 734 226 739 c 0
EndSplineSet
Validated: 33
EndChar

StartChar: plus
Encoding: 43 43 43
Width: 778
Flags: MW
HStem: 230 40<70 369 70 369 409 707>
VStem: 369 40<-68 230 -68 230 270 420 420 420>
LayerCount: 2
Fore
SplineSet
56 250 m 0
 56 261 62 266 70 270 c 1
 369 270 l 1
 369 420 l 1
 370 570 l 2
 374 575 379 583 389 583 c 0
 399 583 405 576 409 568 c 1
 409 270 l 1
 707 270 l 1
 715 266 722 261 722 250 c 0
 722 239 715 234 707 230 c 1
 409 230 l 1
 409 -68 l 1
 405 -76 400 -82 389 -82 c 0
 378 -82 373 -76 369 -68 c 1
 369 230 l 1
 70 230 l 1
 62 234 56 239 56 250 c 0
EndSplineSet
Validated: 1
EndChar

StartChar: comma
Encoding: 44 44 44
Width: 278
Flags: MW
HStem: 0 107<123.5 138 138 143 123 144>
VStem: 144 59<-7 0 0 0>
LayerCount: 2
Fore
SplineSet
85 53 m 0
 85 85 107 107 139 107 c 0
 147 107 155 105 162 102 c 0
 188 88 203 50 203 -3 c 0
 203 -76 178 -137 141 -180 c 0
 134 -189 131 -194 127 -194 c 0
 123 -194 117 -188 106 -177 c 0
 96 -168 88 -159 88 -158 c 0
 87 -155 88 -152 96 -143 c 0
 125 -106 144 -54 144 -7 c 2
 144 0 l 1
 138 0 l 2
 109 0 85 24 85 53 c 0
EndSplineSet
Validated: 1
EndChar

StartChar: hyphen
Encoding: 45 45 45
Width: 333
Flags: MW
HStem: 196 67<11 277 11 277>
VStem: 11 266<196 263 196 263>
LayerCount: 2
Fore
SplineSet
11 196 m 1
 11 263 l 1
 277 263 l 1
 277 196 l 1
 11 196 l 1
EndSplineSet
Validated: 1
EndChar

StartChar: period
Encoding: 46 46 46
Width: 278
Flags: MW
HStem: 0 107<124.5 152>
VStem: 85 107<40 68 40 68.5>
LayerCount: 2
Fore
SplineSet
85 54 m 0
 85 83 109 107 140 107 c 0
 168 107 192 82 192 54 c 0
 192 26 166 0 138 0 c 0
 110 0 85 26 85 54 c 0
EndSplineSet
Validated: 1
EndChar

StartChar: slash
Encoding: 47 47 47
Width: 500
Flags: W
LayerCount: 2
Fore
SplineSet
407 740 m 0
 410 746 415 750 425 750 c 0
 436 749 445 740 444 730 c 0
 444 723 98 -228 92 -240 c 0
 82 -259 56 -249 56 -231 c 0
 56 -216 405 737 407 740 c 0
EndSplineSet
Validated: 33
EndChar

StartChar: zero
Encoding: 48 48 48
Width: 500
Flags: MW
HStem: -10 58<236 264 236 278> 595 60<245.5 250>
VStem: 42 76<281.5 374 281.5 414.5> 381 76<305.5 400>
LayerCount: 2
Fore
SplineSet
42 324 m 0
 42 505 78 637 228 654 c 0
 235 655 242 655 249 655 c 0
 422 655 457 501 457 324 c 0
 457 287 456 249 453 224 c 0
 445 134 417 67 374 31 c 0
 341 4 306 -10 250 -10 c 0
 178 -10 126 19 96 63 c 0
 54 125 42 213 42 324 c 0
381 333 m 0
 381 467 376 569 275 594 c 0
 270 595 255 595 245 595 c 0
 210 595 184 581 165 562 c 0
 149 546 138 523 130 491 c 0
 121 454 118 415 118 333 c 0
 118 230 123 181 137 138 c 0
 146 110 154 96 170 81 c 0
 192 59 222 48 250 48 c 0
 278 48 307 59 329 81 c 0
 345 96 353 110 362 138 c 0
 377 186 381 256 381 333 c 0
EndSplineSet
Validated: 1
EndChar

StartChar: one
Encoding: 49 49 49
Width: 500
Flags: MW
HStem: 0 59<102 227 296 421 102 227> 532 59<97 107 97 107>
VStem: 227 69<59 567 567 567>
LayerCount: 2
Fore
SplineSet
271 655 m 2
 289 655 291 653 296 643 c 1
 296 59 l 1
 421 59 l 1
 421 0 l 1
 102 0 l 1
 102 59 l 1
 227 59 l 1
 227 567 l 1
 226 567 222 564 217 561 c 0
 188 544 144 532 107 532 c 2
 97 532 l 1
 97 591 l 1
 107 591 l 2
 165 591 216 613 247 644 c 2
 259 655 l 1
 271 655 l 2
EndSplineSet
Validated: 1
EndChar

StartChar: two
Encoding: 50 50 50
Width: 500
Flags: W
HStem: 0 72<190 245 190 421> 596 59<231.5 246>
VStem: 50 64<462 513.5> 371 77<438 463> 390 59<166 169 166 169>
LayerCount: 2
Fore
SplineSet
93 429 m 0xf0
 65 429 50 448 50 476 c 0
 50 491 53 510 59 528 c 0
 80 596 142 646 215 654 c 0
 218 654 228 655 235 655 c 0
 356 655 448 577 448 456 c 0xf0
 448 407 437 379 415 345 c 0
 391 309 369 286 298 223 c 0
 258 189 169 106 136 73 c 0
 135 72 169 72 211 72 c 0
 279 72 368 73 370 74 c 0
 373 76 377 91 385 140 c 0
 387 153 389 165 390 166 c 2
 390 169 l 1
 449 169 l 1
 449 166 l 2xe8
 446 163 424 6 421 3 c 2
 421 0 l 1
 50 0 l 1
 50 26 l 2
 50 42 50 53 51 54 c 0
 53 57 193 194 228 227 c 0
 303 297 332 330 351 371 c 0
 366 399 371 423 371 453 c 0
 371 473 370 484 364 500 c 0
 344 555 285 596 207 596 c 0
 165 596 142 573 125 542 c 0
 121 534 114 515 114 512 c 0
 114 511 115 509 117 509 c 0
 127 504 136 487 136 472 c 0
 136 446 116 429 93 429 c 0xf0
EndSplineSet
Validated: 33
EndChar

StartChar: three
Encoding: 51 51 51
Width: 500
Flags: W
HStem: -11 56<216.5 291.5 216.5 310.5> 318 59<172 176.5 172 221 171 176.5> 602 52<234 252 198.5 282.5>
VStem: 43 87<141 161.5 141 161.5> 69 70<559.5 561 559.5 565.5> 355 75<480.5 525 476.5 543> 377 80<138.5 202 121 217>
LayerCount: 2
Fore
SplineSet
69 527 m 0xec
 69 604 153 654 244 654 c 0
 260 654 283 654 290 653 c 0
 353 643 396 615 417 570 c 0
 426 552 430 535 430 515 c 0xec
 430 438 381 379 326 348 c 1
 338 344 l 2
 368 334 399 314 417 293 c 0
 444 261 457 223 457 181 c 0
 457 61 370 -11 251 -11 c 0
 172 -11 100 22 66 72 c 0
 50 96 43 119 43 146 c 0
 43 177 57 192 86 192 c 0
 114 192 130 174 130 149 c 0
 130 133 121 120 110 111 c 1
 130 71 184 45 249 45 c 0
 334 45 377 95 377 182 c 0xf2
 377 252 349 294 297 311 c 0
 278 317 275 317 221 318 c 2
 171 318 l 2
 170 320 168 322 166 323 c 2
 166 372 l 2
 168 373 171 377 173 377 c 0
 180 377 242 382 249 384 c 0
 306 392 355 448 355 513 c 0
 355 573 313 602 252 602 c 0
 216 602 181 593 158 578 c 0
 151 573 139 562 139 560 c 0
 139 559 141 557 143 555 c 0
 150 548 154 537 154 526 c 0
 154 501 135 483 112 483 c 0
 89 483 69 502 69 527 c 0xec
EndSplineSet
Validated: 1
EndChar

StartChar: four
Encoding: 52 52 52
Width: 500
Flags: MW
HStem: 0 59<201 298 367 464 201 298> 174 59<200 298 367 471>
VStem: 304 63<233 408 408 471>
LayerCount: 2
Fore
SplineSet
331 656 m 0
 364 656 357 656 367 646 c 1
 367 233 l 1
 471 233 l 1
 471 174 l 1
 367 174 l 1
 367 59 l 1
 464 59 l 1
 464 0 l 1
 201 0 l 1
 201 59 l 1
 298 59 l 1
 298 174 l 1
 28 174 l 1
 28 234 l 1
 162 443 l 2
 291 645 296 652 300 654 c 0
 304 656 305 656 331 656 c 0
304 233 m 1
 304 408 l 2
 304 534 303 571 302 576 c 1
 300 570 288 544 275 522 c 0
 248 474 197 391 120 269 c 2
 97 234 l 1
 200 233 l 1
 304 233 l 1
EndSplineSet
Validated: 1
EndChar

StartChar: five
Encoding: 53 53 53
Width: 500
Flags: W
HStem: -11 56<221 282 210 299> 350 59<244.5 301> 555 69<220.5 241.5>
VStem: 51 82 87 59<429.5 467 467 562> 373 76<153 208 138.5 244.5>
LayerCount: 2
Fore
SplineSet
87 650 m 2xec
 89 652 92 655 95 655 c 0
 96 655 102 653 108 651 c 0
 152 633 192 624 249 624 c 0
 283 624 310 627 340 635 c 0
 356 639 382 647 392 652 c 0
 401 656 404 656 407 652 c 2
 410 650 l 1
 410 625 l 2
 410 602 410 601 408 599 c 0
 403 594 363 578 337 571 c 0
 297 560 262 555 221 555 c 0
 193 555 173 557 149 562 c 1
 146 562 l 1
 146 467 l 2xec
 146 392 146 372 147 372 c 0
 148 372 152 375 157 378 c 0
 188 399 226 409 263 409 c 0
 380 409 445 322 449 208 c 1
 449 69 365 -11 233 -11 c 0
 209 -11 190 -8 168 0 c 0
 107 19 51 75 51 145 c 0
 51 163 52 168 61 177 c 0
 69 186 80 191 92 191 c 0
 117 191 141 168 133 139 c 0xf4
 130 127 123 120 116 113 c 1
 120 106 l 2
 139 69 185 45 235 45 c 0
 329 45 373 105 373 201 c 0
 373 288 342 350 260 350 c 0
 207 350 172 329 148 296 c 0
 138 282 139 283 117 282 c 0
 93 282 93 282 87 294 c 1
 87 650 l 2xec
EndSplineSet
Validated: 33
EndChar

StartChar: six
Encoding: 54 54 54
Width: 500
Flags: W
HStem: -11 56<242.5 273.5> 375 60<240 334 240 334> 602 53<281.5 318>
VStem: 45 78<359 364 359 387> 351 80<539 557 539 558.5> 377 77<204 228 187.5 237.5>
LayerCount: 2
Fore
SplineSet
363 581 m 1xf8
 350 594 332 602 304 602 c 0
 196 602 139 514 127 407 c 0
 125 393 123 371 123 364 c 2
 123 359 l 1
 134 370 l 2
 147 383 156 391 170 400 c 0
 205 423 248 435 290 435 c 0
 378 435 432 362 447 289 c 0
 452 269 454 244 454 212 c 0xf4
 454 163 448 132 433 101 c 0
 416 65 385 31 352 12 c 0
 326 -2 294 -11 253 -11 c 0
 201 -11 157 7 122 41 c 0
 65 102 45 192 45 314 c 0
 45 460 89 566 181 621 c 0
 216 642 257 655 306 655 c 0
 372 655 415 628 429 577 c 0
 431 570 431 561 431 553 c 0
 431 525 415 510 391 510 c 0
 369 510 351 525 351 550 c 0
 351 567 356 572 363 581 c 1xf8
286 374 m 0
 279 375 263 375 251 375 c 2
 240 375 l 1
 184 367 140 323 128 262 c 0
 127 254 127 248 127 226 c 0
 127 138 157 79 203 56 c 0
 218 49 233 45 252 45 c 0
 326 45 366 92 375 157 c 0
 376 166 377 192 377 216 c 0
 377 259 375 290 360 316 c 0
 344 349 319 368 286 374 c 0
EndSplineSet
Validated: 1
EndChar

StartChar: seven
Encoding: 55 55 55
Width: 500
Flags: W
HStem: -11 21G<212 232> 572 72<343 376 376 401> 656 20G<88 147 147 147>
VStem: 55 59<475 477 477 477> 88 59<667 676> 182 80<20 46 20 102>
LayerCount: 2
Fore
SplineSet
222 -11 m 0xec
 202 -11 190 2 182 20 c 1
 182 46 l 2
 182 158 211 275 262 369 c 0
 281 404 286 413 350 501 c 0
 378 540 401 571 401 572 c 1
 376 572 l 2
 310 572 137 571 135 570 c 0
 133 569 132 568 131 563 c 0
 128 555 123 531 119 504 c 0
 117 491 115 479 114 478 c 2
 114 475 l 1
 55 475 l 1
 55 477 l 2xf4
 56 478 63 524 72 578 c 2
 88 676 l 1
 147 676 l 1
 147 667 l 2
 148 656 152 647 157 646 c 0
 158 645 225 645 322 644 c 2
 485 644 l 1
 485 620 l 2
 485 598 485 596 483 593 c 0
 482 591 453 551 419 505 c 0
 347 405 348 407 338 390 c 0
 286 303 265 195 263 54 c 2
 262 20 l 1
 254 2 242 -11 222 -11 c 0xec
EndSplineSet
Validated: 1
EndChar

StartChar: eight
Encoding: 56 56 56
Width: 500
Flags: W
HStem: -11 57<208 290 208 307.5> 602 52<224 241 241 249.5 224 282>
VStem: 42 67<126 183> 69 63<497 544 497 547> 368 62<478.5 539> 390 66<119.5 173>
LayerCount: 2
Fore
SplineSet
249 -11 m 0xc4
 122 -11 42 58 42 162 c 0xe4
 42 204 52 233 73 265 c 0
 93 296 128 324 169 345 c 0
 174 347 177 349 177 349 c 2
 177 350 167 356 155 364 c 0
 124 384 113 394 98 413 c 0
 80 435 69 465 69 500 c 0
 69 594 136 643 224 654 c 1
 241 654 l 2
 258 654 280 654 288 653 c 0
 367 641 430 592 430 506 c 0xd8
 430 443 398 395 328 354 c 2
 318 348 l 1
 348 329 l 2
 383 307 390 302 403 290 c 0
 430 264 447 234 454 199 c 0
 456 190 456 185 456 168 c 0
 456 48 366 -11 249 -11 c 0xc4
368 505 m 0xd8
 368 573 317 602 247 602 c 0
 182 602 132 575 132 513 c 0
 132 481 144 465 164 449 c 0
 170 445 253 392 264 384 c 1
 280 392 l 2
 339 421 368 452 368 505 c 0xd8
250 46 m 0
 330 46 390 82 390 157 c 0
 390 189 376 211 359 229 c 0
 348 239 348 239 286 279 c 0
 258 297 234 312 234 312 c 2
 232 312 213 303 203 299 c 0
 144 268 109 224 109 166 c 0xe4
 109 86 166 46 250 46 c 0
EndSplineSet
Validated: 1
EndChar

StartChar: nine
Encoding: 57 57 57
Width: 500
Flags: W
HStem: -11 56<189 217.5 189 238.5> 210 60<218.5 240.5> 601 54<239.5 248 248 256>
VStem: 46 76<406 455.5> 68 80<86.5 100> 376 78<280 286 286 286>
LayerCount: 2
Fore
SplineSet
137 64 m 1xec
 152 53 172 45 206 45 c 0
 229 45 250 50 271 59 c 0
 315 80 344 119 361 179 c 0
 369 205 376 253 376 280 c 2
 376 286 l 1
 367 277 l 2
 327 234 270 210 211 210 c 0
 135 210 94 255 67 310 c 0
 51 344 46 376 46 430 c 0xf4
 46 481 50 508 65 541 c 0
 87 588 130 628 176 643 c 0
 199 651 224 655 255 655 c 0
 305 655 339 638 370 611 c 0
 428 560 454 456 454 334 c 0
 454 206 423 108 357 47 c 0
 315 11 269 -11 208 -11 c 0
 128 -11 68 20 68 91 c 0
 68 109 69 113 77 121 c 0
 85 130 97 134 108 134 c 0
 130 134 148 119 148 94 c 0
 148 79 144 73 137 64 c 1xec
277 600 m 0
 273 600 264 601 256 601 c 2
 248 601 l 2
 202 601 172 585 147 549 c 0
 126 520 122 485 122 432 c 0
 122 380 126 346 146 317 c 0
 169 283 194 270 243 270 c 0
 253 270 263 270 268 271 c 0
 330 284 373 340 373 422 c 0
 373 480 356 535 334 562 c 0
 319 581 298 594 277 600 c 0
EndSplineSet
Validated: 1
EndChar

StartChar: colon
Encoding: 58 58 58
Width: 278
Flags: MW
HStem: 0 107<124.5 152> 351 107<125 153.5>
VStem: 85 107<40 68 40 68.5 390 417.5>
LayerCount: 2
Fore
SplineSet
85 404 m 0
 85 433 109 458 140 458 c 0
 167 458 192 431 192 404 c 0
 192 375 168 351 139 351 c 0
 111 351 85 376 85 404 c 0
85 54 m 0
 85 83 109 107 140 107 c 0
 168 107 192 82 192 54 c 0
 192 26 166 0 138 0 c 0
 110 0 85 26 85 54 c 0
EndSplineSet
Validated: 1
EndChar

StartChar: anoteleia
Encoding: 903 903 59
Width: 278
Flags: MW
HStem: 351 107<124.5 152>
VStem: 85 107<390 418 390 418.5>
LayerCount: 2
Fore
SplineSet
85 404 m 0
 85 433 109 458 140 458 c 0
 168 458 192 432 192 404 c 0
 192 376 166 351 138 351 c 0
 110 351 85 376 85 404 c 0
EndSplineSet
Validated: 1
EndChar

StartChar: uni1FFE
Encoding: 8190 8190 60
Width: 222
Flags: MW
HStem: 515 17<116 142> 615 79<109 112 109 124>
VStem: 22 17<601.5 609> 73 78
LayerCount: 2
Fore
SplineSet
22 609 m 0
 24 652 57 687 96 693 c 0
 99 693 106 694 112 694 c 0
 136 691 151 677 151 654 c 0
 151 632 137 615 111 615 c 0
 85 615 63 636 73 666 c 1
 53 651 39 634 39 604 c 0
 39 556 92 532 140 532 c 0
 147 532 156 524 148 518 c 0
 146 515 145 515 139 515 c 0
 90 515 46 540 30 571 c 0
 24 585 22 594 22 609 c 0
EndSplineSet
Validated: 33
EndChar

StartChar: equal
Encoding: 61 61 61
Width: 778
Flags: MW
HStem: 126 40<72 707 70 708> 334 40<72 390 72 72>
LayerCount: 2
Fore
SplineSet
56 354 m 0
 56 365 62 370 70 374 c 1
 707 374 l 1
 715 370 722 365 722 354 c 0
 722 343 715 339 708 335 c 2
 390 334 l 1
 72 334 l 2
 62 337 56 342 56 354 c 0
56 146 m 0
 56 158 62 163 72 166 c 2
 708 166 l 1
 714 161 722 158 722 146 c 0
 722 135 715 130 707 126 c 1
 70 126 l 1
 62 130 56 135 56 146 c 0
EndSplineSet
Validated: 1
EndChar

StartChar: uni1FBF
Encoding: 8127 8127 62
Width: 222
Flags: MW
HStem: 515 17<79.5 103.5 79.5 113.5> 615 78<98.5 124.5>
VStem: 71 78 183 17<599.5 609 578 619>
LayerCount: 2
Fore
SplineSet
71 654 m 0
 71 673 84 693 108 693 c 0
 163 693 198 655 200 609 c 0
 200 547 144 515 83 515 c 0
 76 515 66 523 74 529 c 0
 76 532 77 532 82 532 c 0
 125 532 162 552 177 579 c 0
 181 587 183 595 183 604 c 0
 183 634 169 651 149 666 c 1
 159 637 138 615 111 615 c 0
 86 615 71 632 71 654 c 0
EndSplineSet
Validated: 33
EndChar

StartChar: semicolon
Encoding: 59 59 63
Width: 278
Flags: W
HStem: 351 107<124.5 152>
VStem: 85 107<390 418 390 418> 136 59<-14 0 0 0>
LayerCount: 2
Fore
SplineSet
85 404 m 0xc0
 85 432 109 458 140 458 c 0
 168 458 192 432 192 404 c 0
 192 376 166 351 138 351 c 0
 109 351 85 375 85 404 c 0xc0
127 -194 m 0
 121 -194 88 -160 88 -155 c 0
 88 -152 89 -150 92 -146 c 0
 120 -105 134 -63 136 -14 c 2
 136 0 l 1xa0
 107 4 85 23 85 53 c 0xc0
 85 81 102 100 125 105 c 0
 133 107 143 107 150 105 c 0
 180 97 195 63 195 0 c 0xa0
 195 -76 172 -134 138 -183 c 0
 133 -190 131 -194 127 -194 c 0
EndSplineSet
Validated: 1
EndChar

StartChar: uni1FDF
Encoding: 8159 8159 64
Width: 333
Flags: W
HStem: 504 17<183 187> 536 63<159 174> 603 58<223 240.5 219.5 258.5> 635 58<91.5 106.5 71 112.5>
VStem: 0 62<610 612 609 616.5> 119 17<541.5 553 553 558 541.5 563> 270 62<684 686.5 679.5 687>
LayerCount: 2
Fore
SplineSet
6 602 m 2xde
 3 605 0 607 0 613 c 0
 0 620 2 630 5 638 c 0
 17 666 50 693 92 693 c 0xde
 121 693 133 691 157 682 c 0
 179 674 208 661 231 661 c 0
 250 661 269 670 270 684 c 0
 270 690 273 691 275 694 c 2
 327 694 l 1
 330 690 332 690 332 683 c 0
 332 676 330 666 327 658 c 0
 313 627 283 603 234 603 c 0xee
 212 603 204 604 175 614 c 0
 153 622 124 635 101 635 c 0
 82 635 63 626 62 612 c 0
 62 606 59 605 57 602 c 2
 6 602 l 2xde
119 551 m 0
 119 575 138 599 167 599 c 0
 184 599 198 587 198 568 c 0
 198 548 182 536 166 536 c 0
 152 536 142 545 136 558 c 1
 136 553 l 2
 136 530 159 524 183 521 c 0
 193 521 205 515 195 507 c 0
 193 504 192 504 182 504 c 0
 146 506 119 524 119 551 c 0
EndSplineSet
Validated: 1
EndChar

StartChar: Alpha
Encoding: 913 913 65
Width: 739
Flags: MW
HStem: 0 59<34 77 219 255 34 77 468 505 505 515 661 704> 213 59<319.5 404 319.5 489> 675 20G<356.5 381.5>
LayerCount: 2
Fore
SplineSet
336 686 m 0
 345 695 344 695 369 695 c 0
 394 695 393 695 402 686 c 0
 404 684 435 593 512 371 c 2
 619 60 l 1
 661 59 l 1
 704 59 l 1
 704 0 l 1
 468 0 l 1
 468 59 l 1
 505 59 l 2
 525 59 541 59 541 60 c 2
 541 60 529 95 515 137 c 2
 489 213 l 1
 234 213 l 1
 208 137 l 2
 194 95 182 60 182 60 c 2
 182 59 198 59 219 59 c 2
 255 59 l 1
 255 0 l 1
 34 0 l 1
 34 59 l 1
 77 59 l 1
 119 60 l 1
 226 371 l 2
 303 594 334 684 336 686 c 0
468 273 m 0
 468 274 363 579 362 582 c 1
 362 582 255 274 255 273 c 0
 255 272 277 272 362 272 c 0
 446 272 468 272 468 273 c 0
EndSplineSet
Validated: 1
EndChar

StartChar: Beta
Encoding: 914 914 66
Width: 703
Flags: W
HStem: 0 59<51 140 210 245 51 140> 326 59<210 306 210 321 210 306> 624 59<51 231 51 140 210 210 210 231 231 287 51 310>
VStem: 140 70<59 326 385 624> 545 74<492 518> 570 76<182.5 214 129 227.5>
LayerCount: 2
Fore
SplineSet
51 624 m 1xf4
 51 683 l 1
 231 683 l 2
 343 683 417 683 425 682 c 0
 510 675 572 642 602 582 c 0
 613 559 619 535 619 511 c 0xf8
 619 469 602 429 569 401 c 0
 547 382 511 364 480 358 c 1
 491 356 l 2
 524 349 553 337 577 320 c 0
 616 293 646 243 646 185 c 0
 646 73 561 9 452 1 c 0
 443 0 372 0 245 0 c 2
 51 0 l 1
 51 59 l 1
 140 59 l 1
 140 624 l 1
 51 624 l 1xf4
421 623 m 0
 414 624 373 624 310 624 c 2
 210 624 l 1
 210 385 l 1
 306 385 l 2
 389 386 404 386 413 387 c 0
 447 393 470 401 492 416 c 0
 527 438 545 474 545 510 c 0
 545 526 542 542 534 558 c 0
 515 595 476 618 421 623 c 0
570 186 m 0xf4
 570 269 517 311 443 324 c 0
 434 325 421 325 321 326 c 2
 210 326 l 1
 210 59 l 1
 310 59 l 2
 426 59 435 59 464 67 c 0
 520 81 558 117 568 164 c 0
 569 171 570 179 570 186 c 0xf4
EndSplineSet
Validated: 1
EndChar

StartChar: uni1FDD
Encoding: 8157 8157 67
Width: 278
Flags: MW
HStem: 515 17<90 116> 615 79<83 86 83 98>
VStem: -4 17<601.5 609> 47 78 150 66
LayerCount: 2
Fore
SplineSet
150 655 m 0
 138 688 175 708 201 697 c 0
 208 694 212 689 216 681 c 0
 218 676 248 517 248 509 c 0
 250 507 238 503 235 503 c 0
 233 505 151 651 150 655 c 0
-4 609 m 0
 -2 652 31 687 70 693 c 0
 73 693 80 694 86 694 c 0
 110 691 125 677 125 654 c 0
 125 632 111 615 85 615 c 0
 59 615 37 636 47 666 c 1
 27 651 13 634 13 604 c 0
 13 556 66 532 114 532 c 0
 121 532 130 524 122 518 c 0
 120 515 119 515 113 515 c 0
 64 515 20 540 4 571 c 0
 -2 585 -4 594 -4 609 c 0
EndSplineSet
Validated: 33
EndChar

StartChar: uni0394
Encoding: 916 916 68
Width: 833
Flags: MW
HStem: 1 72<275 538 275 778> 675 20G<403 430>
LayerCount: 2
Fore
SplineSet
54 1 m 2
 51 3 50 5 48 9 c 0
 48 14 341 609 378 684 c 0
 387 695 390 695 416 695 c 0
 444 695 444 694 454 684 c 1
 491 610 784 13 784 9 c 0
 782 5 781 3 778 1 c 2
 54 1 l 2
542 334 m 2
 468 486 413 593 407 609 c 1
 319 430 231 252 143 74 c 1
 275 73 l 1
 538 73 l 1
 670 74 l 1
 542 334 l 2
EndSplineSet
Validated: 1
EndChar

StartChar: Epsilon
Encoding: 917 917 69
Width: 675
Flags: W
HStem: 0 59<47 136 212 335 47 136> 323 59<212 285 212 285> 621 59<47 136 47 591 212 212 212 313>
VStem: 136 76<59 323 382 621> 400 59<206 242 242 242 463 499 206 499> 556 63 587 59<283 286 283 286>
LayerCount: 2
Fore
SplineSet
646 283 m 2xfa
 643 277 607 9 604 3 c 2
 604 0 l 1
 47 0 l 1
 47 59 l 1
 136 59 l 1
 136 621 l 1
 47 621 l 1
 47 680 l 1
 591 680 l 1
 596 629 616 452 619 427 c 1
 590 427 l 2
 573 427 560 427 560 428 c 2
 560 428 558 443 556 462 c 0xfc
 545 553 537 596 529 606 c 0
 525 611 519 613 503 615 c 0
 475 620 435 621 313 621 c 2
 212 621 l 1
 212 382 l 1
 285 382 l 2
 325 383 362 383 367 384 c 0
 380 385 390 388 392 390 c 0
 397 395 399 415 400 463 c 2
 400 499 l 1
 459 499 l 1
 459 206 l 1
 400 206 l 1
 400 242 l 2
 399 290 397 310 392 315 c 0
 390 317 380 320 367 321 c 0
 362 322 325 322 285 323 c 2
 212 323 l 1
 212 59 l 1
 335 59 l 2
 409 60 464 60 473 61 c 0
 507 63 529 67 539 72 c 0
 543 74 544 75 547 80 c 0
 556 98 567 153 581 249 c 0
 584 266 586 281 587 283 c 2
 587 286 l 1
 646 286 l 1
 646 283 l 2xfa
EndSplineSet
Validated: 1
EndChar

StartChar: Phi
Encoding: 934 934 70
Width: 722
Flags: MW
HStem: 0 59<212 323 393 504 212 323> 162 59<316 323 393 399> 462 59<314 323 314 323 402 403> 624 59<212 504 212 323 393 393 393 504>
VStem: 55 77<332 358.5 318 368> 323 70<59 162 59 162 221 462 462 462 521 624> 589 77<325.5 352 321 366>
LayerCount: 2
Fore
SplineSet
212 624 m 1
 212 683 l 1
 504 683 l 1
 504 624 l 1
 393 624 l 1
 393 521 l 1
 399 521 l 2
 407 521 436 518 450 516 c 0
 551 502 616 464 652 401 c 0
 662 381 666 362 666 342 c 0
 666 300 644 264 622 241 c 0
 584 203 525 177 450 167 c 0
 436 165 407 162 399 162 c 2
 393 162 l 1
 393 59 l 1
 504 59 l 1
 504 0 l 1
 212 0 l 1
 212 59 l 1
 323 59 l 1
 323 162 l 1
 307 163 l 2
 197 172 106 210 69 283 c 0
 59 303 55 322 55 342 c 0
 55 394 86 434 118 459 c 0
 162 493 228 514 307 520 c 2
 323 521 l 1
 323 624 l 1
 212 624 l 1
525 436 m 0
 493 451 449 462 402 462 c 1
 393 463 l 1
 393 221 l 1
 402 221 l 2
 469 221 530 243 559 271 c 0
 577 289 589 309 589 342 c 0
 589 390 562 418 525 436 c 0
323 221 m 1
 323 462 l 1
 314 462 l 2
 255 460 193 441 162 412 c 0
 144 394 132 375 132 342 c 0
 132 294 159 265 197 247 c 0
 224 234 254 226 293 223 c 0
 302 222 312 221 316 221 c 2
 323 221 l 1
EndSplineSet
Validated: 1
EndChar

StartChar: Gamma
Encoding: 915 915 71
Width: 619
Flags: MW
HStem: 0 59<47 136 212 323 47 136> 621 59<47 136 47 548 212 315 212 212>
VStem: 136 76<59 621 59 621>
LayerCount: 2
Fore
SplineSet
548 680 m 1
 553 629 573 452 576 427 c 1
 517 427 l 1
 517 429 511 483 508 501 c 0
 501 557 494 593 489 604 c 0
 487 609 482 611 471 614 c 0
 448 619 429 620 315 621 c 2
 212 621 l 1
 212 59 l 1
 323 59 l 1
 323 0 l 1
 47 0 l 1
 47 59 l 1
 136 59 l 1
 136 621 l 1
 47 621 l 1
 47 680 l 1
 548 680 l 1
EndSplineSet
Validated: 1
EndChar

StartChar: Eta
Encoding: 919 919 72
Width: 739
Flags: MW
HStem: 0 59<48 137 213 302 48 137 436 525 601 690> 326 59<213 525 213 525> 624 59<48 302 48 137 213 213 213 302 436 525 601 601 601 690>
VStem: 137 76<59 326 385 624> 525 76<59 326 326 326 385 624 59 624>
LayerCount: 2
Fore
SplineSet
48 624 m 1
 48 683 l 1
 302 683 l 1
 302 624 l 1
 213 624 l 1
 213 385 l 1
 525 385 l 1
 525 624 l 1
 436 624 l 1
 436 683 l 1
 690 683 l 1
 690 624 l 1
 601 624 l 1
 601 59 l 1
 690 59 l 1
 690 0 l 1
 436 0 l 1
 436 59 l 1
 525 59 l 1
 525 326 l 1
 213 326 l 1
 213 59 l 1
 302 59 l 1
 302 0 l 1
 48 0 l 1
 48 59 l 1
 137 59 l 1
 137 624 l 1
 48 624 l 1
EndSplineSet
Validated: 1
EndChar

StartChar: Iota
Encoding: 921 921 73
Width: 350
Flags: MW
HStem: 0 59<44 137 213 306 44 137> 624 59<44 306 44 137 213 213 213 306>
VStem: 137 76<59 624 59 624>
LayerCount: 2
Fore
SplineSet
44 624 m 1
 44 683 l 1
 306 683 l 1
 306 624 l 1
 213 624 l 1
 213 59 l 1
 306 59 l 1
 306 0 l 1
 44 0 l 1
 44 59 l 1
 137 59 l 1
 137 624 l 1
 44 624 l 1
EndSplineSet
Validated: 1
EndChar

StartChar: Theta
Encoding: 920 920 74
Width: 778
Flags: MW
HStem: -10 59<381 397> 272 141<184 243 184 243 534 593> 635 58<365 381 381 389.5 365 433>
VStem: 55 73<294 373 294 405.5> 184 59<272 306 379 413> 534 59<272 306 306 306 379 413 272 413> 649 73<253.5 384>
LayerCount: 2
Fore
SplineSet
365 693 m 2
 381 693 l 2
 398 693 424 693 433 692 c 0
 607 671 722 541 722 341 c 0
 722 135 605 9 428 -9 c 0
 420 -10 405 -10 389 -10 c 0
 373 -10 358 -10 350 -9 c 0
 172 9 55 134 55 339 c 0
 55 472 106 573 184 631 c 0
 229 664 288 686 349 692 c 0
 355 693 362 693 365 693 c 2
586 549 m 1
 540 599 478 635 388 635 c 0
 280 635 202 581 163 505 c 0
 140 460 128 406 128 340 c 0
 128 248 153 173 201 122 c 0
 246 75 314 49 388 49 c 0
 561 49 649 167 649 340 c 0
 649 428 628 497 586 549 c 1
184 272 m 1
 184 413 l 1
 243 413 l 1
 243 379 l 1
 534 379 l 1
 534 413 l 1
 593 413 l 1
 593 272 l 1
 534 272 l 1
 534 306 l 1
 243 306 l 1
 243 272 l 1
 184 272 l 1
EndSplineSet
Validated: 1
EndChar

StartChar: Kappa
Encoding: 922 922 75
Width: 767
Flags: MW
HStem: 0 59<50 139 211 300 50 139 511 538 538 545.5 644 724> 624 59<50 300 50 139 211 211 211 300 484 539 619 619 619 710>
VStem: 139 72<59 224 303 624>
LayerCount: 2
Fore
SplineSet
50 624 m 1
 50 683 l 1
 300 683 l 1
 300 624 l 1
 211 624 l 1
 211 303 l 1
 224 315 l 2
 231 322 305 394 388 476 c 2
 539 624 l 1
 484 624 l 1
 484 683 l 1
 710 683 l 1
 710 624 l 1
 619 624 l 1
 546 551 472 479 398 407 c 1
 404 399 454 328 524 229 c 2
 644 59 l 1
 724 59 l 1
 724 0 l 1
 511 0 l 1
 511 59 l 1
 538 59 l 2
 553 59 565 59 565 60 c 0
 565 61 353 360 352 361 c 2
 352 361 320 330 281 292 c 2
 211 224 l 1
 211 59 l 1
 300 59 l 1
 300 0 l 1
 50 0 l 1
 50 59 l 1
 139 59 l 1
 139 624 l 1
 50 624 l 1
EndSplineSet
Validated: 1
EndChar

StartChar: Lambda
Encoding: 923 923 76
Width: 683
Flags: MW
HStem: 0 59<33 109 171 245 33 109 419 494 573 649> 675 20G<331.5 355.5>
LayerCount: 2
Fore
SplineSet
304 676 m 0
 310 695 318 695 345 695 c 0
 366 695 373 692 378 676 c 0
 379 671 424 531 477 363 c 2
 573 59 l 1
 649 59 l 1
 649 0 l 1
 419 0 l 1
 419 59 l 1
 494 59 l 1
 465 148 l 2
 378 425 333 572 333 580 c 0
 333 584 331 581 330 575 c 0
 325 553 279 402 203 162 c 0
 186 108 172 62 171 61 c 2
 171 59 l 1
 245 59 l 1
 245 0 l 1
 33 0 l 1
 33 59 l 1
 109 59 l 1
 205 363 l 2
 258 531 303 671 304 676 c 0
EndSplineSet
Validated: 1
EndChar

StartChar: Mu
Encoding: 924 924 77
Width: 906
Flags: MW
HStem: 0 59<54 143 202 291 54 143 609 698 762 851> 624 59<54 137 54 137 137 143 768 851>
VStem: 143 59<59 330 59 624> 698 64<59 334 334 454>
LayerCount: 2
Fore
SplineSet
54 624 m 1
 54 683 l 1
 137 683 l 2
 197 683 221 683 224 682 c 0
 229 680 236 675 238 670 c 0
 239 668 288 535 346 375 c 2
 452 83 l 1
 558 373 l 2
 616 532 665 665 666 667 c 0
 668 673 675 680 681 682 c 0
 684 683 705 683 768 683 c 2
 851 683 l 1
 851 624 l 1
 762 624 l 1
 762 59 l 1
 851 59 l 1
 851 0 l 1
 609 0 l 1
 609 59 l 1
 698 59 l 1
 698 334 l 2
 698 574 698 609 696 606 c 0
 696 604 479 12 477 10 c 0
 476 8 473 5 470 3 c 0
 466 1 465 1 449 1 c 0
 432 1 431 1 427 3 c 0
 424 5 421 8 420 10 c 0
 414 16 213 579 203 598 c 0
 202 601 202 556 202 330 c 2
 202 59 l 1
 291 59 l 1
 291 0 l 1
 54 0 l 1
 54 59 l 1
 143 59 l 1
 143 624 l 1
 54 624 l 1
EndSplineSet
Validated: 33
EndChar

StartChar: Nu
Encoding: 925 925 78
Width: 739
Flags: MW
HStem: 0 59<50 139 198 287 50 139> 624 59<50 126 126 139 50 126 451 540 599 599 599 688>
VStem: 139 59<59 313 59 624> 540 59<141 624>
LayerCount: 2
Fore
SplineSet
599 12 m 1
 594 1 593 0 569 0 c 0
 550 0 547 1 542 7 c 0
 539 13 200 564 199 565 c 0
 198 566 198 456 198 313 c 2
 198 59 l 1
 287 59 l 1
 287 0 l 1
 50 0 l 1
 50 59 l 1
 139 59 l 1
 139 624 l 1
 50 624 l 1
 50 683 l 1
 126 683 l 2
 200 683 201 683 205 681 c 0
 207 680 209 677 211 676 c 0
 212 674 539 141 540 141 c 1
 540 624 l 1
 451 624 l 1
 451 683 l 1
 688 683 l 1
 688 624 l 1
 599 624 l 1
 599 12 l 1
EndSplineSet
Validated: 33
EndChar

StartChar: Omicron
Encoding: 927 927 79
Width: 778
Flags: MW
HStem: -10 63<381 395.5 380.5 397> 631 62<365 381 381 389.5 365 390>
VStem: 55 80<268 385 268 405.5> 642 80<268 433>
LayerCount: 2
Fore
SplineSet
365 693 m 2
 381 693 l 2
 398 693 424 693 433 692 c 0
 607 671 722 541 722 341 c 0
 722 135 605 9 428 -9 c 0
 420 -10 405 -10 389 -10 c 0
 373 -10 358 -10 350 -9 c 0
 172 9 55 134 55 339 c 0
 55 472 106 573 184 631 c 0
 229 664 288 686 349 692 c 0
 355 693 362 693 365 693 c 2
642 353 m 0
 642 513 567 610 428 630 c 0
 420 631 398 631 382 631 c 0
 273 631 204 578 165 504 c 0
 144 460 135 417 135 353 c 0
 135 183 212 75 348 55 c 0
 358 53 373 53 388 53 c 0
 403 53 419 53 429 55 c 0
 565 75 642 183 642 353 c 0
EndSplineSet
Validated: 1
EndChar

StartChar: Pi
Encoding: 928 928 80
Width: 739
Flags: MW
HStem: 0 59<48 137 213 302 48 137 436 525 601 690> 621 59<48 690 48 137 213 213 213 525 601 601 601 690>
VStem: 137 76<59 621 59 621> 525 76<59 621 59 621>
LayerCount: 2
Fore
SplineSet
48 621 m 1
 48 680 l 1
 690 680 l 1
 690 621 l 1
 601 621 l 1
 601 59 l 1
 690 59 l 1
 690 0 l 1
 436 0 l 1
 436 59 l 1
 525 59 l 1
 525 621 l 1
 213 621 l 1
 213 59 l 1
 302 59 l 1
 302 0 l 1
 48 0 l 1
 48 59 l 1
 137 59 l 1
 137 621 l 1
 48 621 l 1
EndSplineSet
Validated: 1
EndChar

StartChar: Chi
Encoding: 935 935 81
Width: 739
Flags: MW
HStem: 0 59<27 75 224 253 27 75 475 502 616 710> 624 59<42 277 42 136 222 222 222 277 443 502 573 573 573 669>
LayerCount: 2
Fore
SplineSet
42 624 m 1
 42 683 l 1
 277 683 l 1
 277 624 l 1
 222 624 l 1
 291 525 l 2
 329 470 361 424 362 422 c 2
 365 419 l 1
 411 487 456 556 502 624 c 1
 443 624 l 1
 443 683 l 1
 669 683 l 1
 669 624 l 1
 573 624 l 1
 515 539 458 453 401 367 c 1
 473 265 545 162 616 59 c 1
 710 59 l 1
 710 0 l 1
 475 0 l 1
 475 59 l 1
 502 59 l 1
 530 60 l 1
 445 182 l 2
 398 249 359 304 359 304 c 1
 359 304 322 249 276 182 c 2
 194 60 l 1
 224 59 l 1
 253 59 l 1
 253 0 l 1
 27 0 l 1
 27 59 l 1
 75 59 l 1
 123 60 l 1
 223 207 l 2
 277 289 322 356 322 356 c 2
 322 357 280 417 229 491 c 2
 136 624 l 1
 42 624 l 1
EndSplineSet
Validated: 1
EndChar

StartChar: Rho
Encoding: 929 929 82
Width: 675
Flags: MW
HStem: 0 59<49 138 214 303 49 138> 283 59<214 304 211 305 214 214> 624 59<49 223 49 138 211 211 211 223 223 276.5 49 304>
VStem: 138 73<342 624 342 624 342 624> 540 79<444 499.5 426.5 526>
LayerCount: 2
Fore
SplineSet
49 624 m 1
 49 683 l 1
 223 683 l 2
 330 683 402 683 410 682 c 0
 500 675 565 637 598 573 c 0
 612 545 619 515 619 484 c 0
 619 369 539 303 436 287 c 0
 412 283 399 283 305 283 c 2
 214 283 l 1
 214 59 l 1
 303 59 l 1
 303 0 l 1
 49 0 l 1
 49 59 l 1
 138 59 l 1
 138 624 l 1
 49 624 l 1
540 484 m 0
 540 568 492 610 406 622 c 0
 399 623 368 623 304 624 c 2
 211 624 l 1
 211 342 l 1
 304 342 l 2
 401 343 403 343 427 348 c 0
 497 362 540 404 540 484 c 0
EndSplineSet
Validated: 1
EndChar

StartChar: Sigma
Encoding: 931 931 83
Width: 722
Flags: MW
HStem: 0 64<456 465> 624 59<249 638>
VStem: 607 59<253 253 253 257 253 257>
LayerCount: 2
Fore
SplineSet
666 253 m 2
 665 249 639 8 638 4 c 2
 638 0 l 1
 353 0 l 2
 114 0 67 0 65 1 c 0
 58 4 54 13 56 20 c 0
 60 28 112 97 283 327 c 0
 283 330 61 625 57 633 c 0
 55 636 55 639 55 653 c 0
 55 672 54 676 65 682 c 0
 67 683 117 683 353 683 c 2
 638 683 l 1
 643 632 663 455 666 430 c 1
 637 430 l 2
 620 430 607 430 607 431 c 0
 607 433 599 496 597 513 c 0
 589 569 580 602 571 611 c 0
 565 616 543 619 492 622 c 0
 480 623 408 623 315 624 c 0
 183 624 158 624 159 623 c 0
 159 622 357 358 362 348 c 0
 364 344 364 339 362 335 c 0
 357 325 161 64 161 64 c 1
 161 64 228 63 300 63 c 0
 372 63 447 64 465 64 c 0
 532 66 564 69 571 76 c 0
 582 85 592 130 602 217 c 0
 604 234 606 250 607 252 c 2
 607 257 l 1
 666 257 l 1
 666 253 l 2
EndSplineSet
Validated: 33
EndChar

StartChar: Tau
Encoding: 932 932 84
Width: 722
Flags: MW
HStem: 0 59<198 323 399 524 198 323> 618 59<248 323 248 248 399 475 399 399>
VStem: 36 59<424.5 430 430 430> 323 76<59 618 59 618> 626 59<424.5 426>
LayerCount: 2
Fore
SplineSet
36 430 m 2
 37 432 54 667 55 671 c 2
 55 677 l 1
 666 677 l 1
 666 671 l 2
 667 667 685 432 685 430 c 2
 685 424 l 1
 656 424 l 2
 639 424 626 424 626 425 c 0
 626 427 621 490 619 506 c 0
 615 560 610 591 606 602 c 0
 604 606 595 611 582 613 c 0
 563 617 551 617 475 618 c 2
 399 618 l 1
 399 59 l 1
 524 59 l 1
 524 0 l 1
 198 0 l 1
 198 59 l 1
 323 59 l 1
 323 618 l 1
 248 618 l 2
 201 617 168 617 162 616 c 0
 133 613 118 608 115 602 c 0
 110 590 95 459 95 425 c 0
 95 424 82 424 65 424 c 2
 36 424 l 1
 36 430 l 2
EndSplineSet
Validated: 1
EndChar

StartChar: Upsilon
Encoding: 933 933 85
Width: 778
Flags: MW
HStem: 0 59<215 304 377 466 215 304> 624 59<14 249 14 103 209.5 218 218 249 449 480 579 579 579 668>
VStem: 304 73<59 273 59 274 59 274>
LayerCount: 2
Fore
SplineSet
14 624 m 1
 14 683 l 1
 249 683 l 1
 249 624 l 1
 218 624 l 2
 201 624 188 624 188 623 c 0
 189 621 348 343 349 343 c 0
 350 343 510 622 510 623 c 0
 510 624 496 624 480 624 c 2
 449 624 l 1
 449 683 l 1
 668 683 l 1
 668 624 l 1
 579 624 l 1
 512 507 445 390 377 273 c 1
 377 59 l 1
 466 59 l 1
 466 0 l 1
 215 0 l 1
 215 59 l 1
 304 59 l 1
 304 274 l 1
 237 391 170 508 103 624 c 1
 14 624 l 1
EndSplineSet
Validated: 1
EndChar

StartChar: uni1FDE
Encoding: 8158 8158 86
Width: 278
Flags: MW
HStem: 515 17<107 133> 615 79<100 103 100 115>
VStem: 13 17<601.5 609> 64 78 181 71<664 673>
LayerCount: 2
Fore
SplineSet
151 510 m 0
 152 511 181 672 181 673 c 0
 188 697 213 709 237 693 c 0
 247 687 252 677 252 666 c 0
 252 662 251 659 250 655 c 0
 249 652 167 506 164 503 c 0
 159 505 151 506 151 510 c 0
13 609 m 0
 15 652 48 687 87 693 c 0
 90 693 97 694 103 694 c 0
 127 691 142 677 142 654 c 0
 142 632 128 615 102 615 c 0
 76 615 54 636 64 666 c 1
 44 651 30 634 30 604 c 0
 30 556 83 532 131 532 c 0
 138 532 147 524 139 518 c 0
 137 515 136 515 130 515 c 0
 81 515 37 540 21 571 c 0
 15 585 13 594 13 609 c 0
EndSplineSet
Validated: 33
EndChar

StartChar: uni03A9
Encoding: 937 937 87
Width: 722
Flags: W
HStem: 0 70<77 195 528 548 548 556.5> 634 59<295 391.5 285 425>
VStem: 44 56<165 167 165 167> 55 79<448.5 472.5> 77 202<0 27 2 27> 443 65<26 72.5> 587 79<446.5 471.5 429.5 516> 621 56<165 167>
LayerCount: 2
Fore
SplineSet
100 167 m 1xe4
 100 163 117 73 122 73 c 0
 126 71 162 70 188 70 c 0
 202 70 213 70 213 71 c 0
 213 74 206 97 201 109 c 0
 189 141 177 164 138 230 c 0
 114 271 105 288 94 311 c 0
 78 342 67 371 62 397 c 0
 57 417 55 436 55 455 c 0
 55 490 63 523 78 554 c 0
 122 640 219 693 351 693 c 0
 432 693 482 685 535 658 c 0
 585 634 620 599 643 554 c 0
 659 522 666 489 666 454 c 0xd6
 666 405 653 363 627 311 c 0
 616 288 607 271 583 230 c 0
 544 164 532 141 520 109 c 0
 515 97 508 74 508 71 c 0
 508 70 515 70 541 70 c 0
 572 70 595 71 599 73 c 0
 604 73 621 163 621 167 c 1
 677 167 l 1
 677 165 l 2xc5
 675 163 645 3 644 2 c 2
 644 0 l 1
 548 0 l 2
 453 0 452 1 449 3 c 0
 443 7 442 9 443 26 c 0
 443 57 451 94 466 134 c 0
 477 164 482 174 530 269 c 0
 559 328 574 365 581 403 c 0
 585 421 587 438 587 455 c 0
 587 577 490 634 360 634 c 0
 230 634 134 575 134 453 c 0xd6
 134 444 135 434 136 424 c 0
 142 380 157 337 191 269 c 0
 239 174 244 164 255 134 c 0
 270 96 277 61 279 27 c 0
 279 10 280 6 271 2 c 0
 267 0 267 0 172 0 c 2
 77 0 l 1
 77 2 l 2xcc
 76 3 46 163 44 165 c 2
 44 167 l 1
 100 167 l 1xe4
EndSplineSet
Validated: 1
EndChar

StartChar: Xi
Encoding: 926 926 88
Width: 667
Flags: W
HStem: 0 65<116 118 548 550> 0 161<50 101 565 616 50 50> 276 152<139 198 139 198 468 527> 611 66
VStem: 42 59<151 161 151 161> 55 52 139 59<276 320 384 428> 468 59<276 320 320 320 384 428 276 428> 565 51
LayerCount: 2
Fore
SplineSet
47 536 m 2x3780
 49 545 53 659 55 668 c 2
 55 677 l 1
 611 677 l 1
 611 668 l 2
 613 659 617 545 619 536 c 2
 619 527 l 1
 590 527 l 2
 567 527 560 527 560 528 c 0
 560 529 559 540 559 554 c 0
 557 587 555 599 553 611 c 1
 544 613 446 613 333 613 c 0
 221 613 122 613 113 611 c 1
 111 599 109 587 107 554 c 0
 107 540 106 529 106 528 c 0
 106 527 99 527 76 527 c 2
 47 527 l 1
 47 536 l 2x3780
139 276 m 1
 139 428 l 1
 198 428 l 1
 198 384 l 1
 468 384 l 1
 468 428 l 1
 527 428 l 1
 527 276 l 1
 468 276 l 1
 468 320 l 1
 198 320 l 1
 198 276 l 1
 139 276 l 1
50 10 m 2
 48 19 44 142 42 151 c 2
 42 161 l 1
 101 161 l 1x7b80
 101 151 l 1
 105 88 106 73 108 68 c 0
 109 67 110 66 116 65 c 0
 120 65 227 64 333 64 c 0
 439 64 546 65 550 65 c 0xbb80
 556 66 557 67 558 68 c 0
 560 73 561 88 565 151 c 1
 565 161 l 1
 624 161 l 1
 624 151 l 2
 622 142 618 19 616 10 c 2
 616 0 l 1
 50 0 l 1x7b80
 50 10 l 2
EndSplineSet
Validated: 1
EndChar

StartChar: Psi
Encoding: 936 936 89
Width: 778
Flags: MW
HStem: 0 59<240 351 421 532 240 351> 162 60<349 351 349 351 421.5 423.5> 471 59<55 138 55 291 208 208 208 291 486 569 639 639 639 722> 624 59<240 532 240 351 421 421 421 532>
VStem: 138 70<435 437 437 471 411 471> 351 70<59 162 59 162 367.5 423 423 624> 569 70<427 436 436 471 426 471>
LayerCount: 2
Fore
SplineSet
240 624 m 1
 240 683 l 1
 532 683 l 1
 532 624 l 1
 421 624 l 1
 421 423 l 2
 421 312 421 222 422 222 c 0
 425 222 443 226 451 228 c 0
 513 243 550 284 563 348 c 0
 567 369 568 381 569 427 c 2
 569 471 l 1
 486 471 l 1
 486 530 l 1
 722 530 l 1
 722 471 l 1
 639 471 l 1
 639 436 l 2
 639 416 639 393 638 385 c 0
 631 272 579 201 484 173 c 0
 473 170 449 165 437 164 c 0
 432 163 426 163 424 162 c 2
 421 162 l 1
 421 59 l 1
 532 59 l 1
 532 0 l 1
 240 0 l 1
 240 59 l 1
 351 59 l 1
 351 162 l 1
 349 162 l 2
 348 163 339 164 331 165 c 0
 221 178 158 248 142 354 c 0
 139 375 138 396 138 435 c 2
 138 471 l 1
 55 471 l 1
 55 530 l 1
 291 530 l 1
 291 471 l 1
 208 471 l 1
 208 437 l 2
 208 385 210 362 217 336 c 0
 232 274 271 238 334 225 c 0
 339 224 345 223 347 223 c 2
 351 222 l 1
 351 624 l 1
 240 624 l 1
EndSplineSet
Validated: 1
EndChar

StartChar: Zeta
Encoding: 918 918 90
Width: 611
Flags: MW
HStem: 0 62 624 59<349 393>
VStem: 69 59<430.5 433.5 430.5 441 430.5 441> 501 59<293.5 294.5>
LayerCount: 2
Fore
SplineSet
560 287 m 2
 559 284 544 12 543 8 c 2
 543 0 l 1
 304 0 l 1
 65 1 l 1
 56 7 56 6 55 27 c 0
 55 42 55 45 57 48 c 0
 62 57 453 620 453 623 c 0
 454 624 437 624 349 624 c 0
 244 623 231 623 204 619 c 0
 171 615 157 610 150 599 c 0
 142 585 136 551 132 496 c 0
 130 478 128 436 128 431 c 0
 128 430 122 430 98 430 c 2
 69 430 l 1
 69 441 l 2
 70 450 80 680 80 682 c 0
 80 683 185 683 312 683 c 2
 545 683 l 1
 553 675 554 678 555 657 c 0
 555 643 555 640 553 637 c 0
 548 628 157 65 157 62 c 1
 178 62 l 2
 234 62 381 63 394 64 c 0
 441 67 464 73 473 81 c 0
 476 85 477 87 479 94 c 0
 487 118 493 166 499 261 c 0
 500 278 501 293 501 294 c 0
 501 295 508 295 531 295 c 2
 560 295 l 1
 560 287 l 2
EndSplineSet
Validated: 33
EndChar

StartChar: bracketleft
Encoding: 91 91 91
Width: 278
Flags: W
HStem: -250 40<158 255 158 255> 710 40<158 255 158 158>
VStem: 118 40<-210 710 -210 750> 118 137<-250 -210 710 750>
LayerCount: 2
Fore
SplineSet
118 -250 m 1xd0
 118 750 l 1
 255 750 l 1
 255 710 l 1xd0
 158 710 l 1
 158 -210 l 1xe0
 255 -210 l 1
 255 -250 l 1
 118 -250 l 1xd0
EndSplineSet
Validated: 1
EndChar

StartChar: uni1FCF
Encoding: 8143 8143 92
Width: 333
Flags: W
HStem: 504 17<141 150 141 151 141 150> 536 63<159 174> 603 58<223 240.5 219.5 258.5> 635 58<91.5 106.5 71 112.5>
VStem: 0 62<610 612 609 616.5> 197 17<553 558 558 558> 270 62<684 686.5 679.5 687>
LayerCount: 2
Fore
SplineSet
6 602 m 2xde
 3 605 0 607 0 613 c 0
 0 620 2 630 5 638 c 0
 17 666 50 693 92 693 c 0xde
 121 693 133 691 157 682 c 0
 179 674 208 661 231 661 c 0
 250 661 269 670 270 684 c 0
 270 690 273 691 275 694 c 2
 327 694 l 1
 330 690 332 690 332 683 c 0
 332 676 330 666 327 658 c 0
 313 627 283 603 234 603 c 0xee
 212 603 204 604 175 614 c 0
 153 622 124 635 101 635 c 0
 82 635 63 626 62 612 c 0
 62 606 59 605 57 602 c 2
 6 602 l 2xde
136 568 m 0
 136 588 149 599 168 599 c 0
 193 599 214 576 214 552 c 0
 214 521 184 506 151 504 c 2
 141 504 l 1
 133 512 132 521 150 521 c 0
 174 524 197 530 197 553 c 2
 197 558 l 1
 191 545 181 536 167 536 c 0
 151 536 136 547 136 568 c 0
EndSplineSet
Validated: 1
EndChar

StartChar: bracketright
Encoding: 93 93 93
Width: 278
Flags: W
HStem: -250 40<22 119 22 159 22 119> 710 40<22 159 22 119>
VStem: 22 137<-250 -210 -210 -210 710 750 -250 750> 119 40<-210 710 710 710>
LayerCount: 2
Fore
SplineSet
22 710 m 1xe0
 22 750 l 1
 159 750 l 1
 159 -250 l 1
 22 -250 l 1
 22 -210 l 1xe0
 119 -210 l 1
 119 710 l 1xd0
 22 710 l 1xe0
EndSplineSet
Validated: 1
EndChar

StartChar: uni1FCE
Encoding: 8142 8142 94
Width: 278
Flags: MW
HStem: 515 17<25.5 49.5 25.5 59.5> 615 78<44.5 70.5>
VStem: 17 78 129 17<599.5 609 578 619> 181 71<664 673>
LayerCount: 2
Fore
SplineSet
151 510 m 0
 152 511 181 672 181 673 c 0
 188 697 213 709 237 693 c 0
 247 687 252 677 252 666 c 0
 252 662 251 659 250 655 c 0
 249 652 167 506 164 503 c 0
 159 505 151 506 151 510 c 0
17 654 m 0
 17 673 30 693 54 693 c 0
 109 693 144 655 146 609 c 0
 146 547 90 515 29 515 c 0
 22 515 12 523 20 529 c 0
 22 532 23 532 28 532 c 0
 71 532 108 552 123 579 c 0
 127 587 129 595 129 604 c 0
 129 634 115 651 95 666 c 1
 105 637 84 615 57 615 c 0
 32 615 17 632 17 654 c 0
EndSplineSet
Validated: 33
EndChar

StartChar: uni1FCD
Encoding: 8141 8141 95
Width: 278
Flags: MW
HStem: 515 17<13.5 37.5 13.5 47.5> 615 78<32.5 58.5>
VStem: 5 78 117 17<599.5 609 578 619> 150 66
LayerCount: 2
Fore
SplineSet
150 655 m 0
 138 688 175 708 201 697 c 0
 208 694 212 689 216 681 c 0
 218 676 248 517 248 509 c 0
 250 507 238 503 235 503 c 0
 233 505 151 651 150 655 c 0
5 654 m 0
 5 673 18 693 42 693 c 0
 97 693 132 655 134 609 c 0
 134 547 78 515 17 515 c 0
 10 515 0 523 8 529 c 0
 10 532 11 532 16 532 c 0
 59 532 96 552 111 579 c 0
 115 587 117 595 117 604 c 0
 117 634 103 651 83 666 c 1
 93 637 72 615 45 615 c 0
 20 615 5 632 5 654 c 0
EndSplineSet
Validated: 33
EndChar

StartChar: uni1FEF
Encoding: 8175 8175 96
Width: 167
Flags: MW
HStem: 503 198
VStem: 123 13
LayerCount: 2
Fore
SplineSet
36 667 m 0
 36 689 53 701 73 701 c 0
 83 701 91 697 97 690 c 0
 112 675 131 515 136 510 c 0
 136 507 128 505 123 503 c 0
 121 504 40 647 38 652 c 0
 36 657 36 659 36 667 c 0
EndSplineSet
Validated: 1
EndChar

StartChar: alpha
Encoding: 945 945 97
Width: 500
Flags: MW
HStem: -5 58<197.5 245.5> 405 58<213 216 216 248 203 253>
VStem: 43 69<185.5 243> 331 71 430 41<46.5 105>
LayerCount: 2
Fore
SplineSet
471 70 m 0
 471 23 433 -6 381 -6 c 0
 362 -5 352 4 341 27 c 1
 341 27 339 25 335 23 c 0
 306 6 268 -5 223 -5 c 0
 172 -5 144 9 115 38 c 0
 69 80 43 142 43 229 c 0
 43 257 43 262 45 275 c 0
 59 368 112 450 203 463 c 1
 216 463 l 2
 280 463 322 448 357 419 c 1
 371 435 386 450 402 464 c 1
 402 269 l 2
 403 57 402 66 408 56 c 0
 412 48 419 48 423 55 c 0
 427 61 429 73 430 96 c 0
 430 114 430 115 433 118 c 0
 437 123 446 121 455 112 c 0
 464 103 471 88 471 70 c 0
112 229 m 0
 112 129 150 53 224 53 c 0
 273 53 322 68 331 103 c 0
 332 107 332 168 332 229 c 0
 332 290 332 351 331 355 c 0
 322 386 281 405 225 405 c 0
 201 405 186 400 170 388 c 0
 134 362 112 302 112 229 c 0
EndSplineSet
Validated: 1
EndChar

StartChar: beta
Encoding: 946 946 98
Width: 500
Flags: W
HStem: -6 60<193 224.5 171.5 229.5> 641 58<183.5 185 185 195>
VStem: 42 66<333.5 450> 274 67<551.5 569 536 586.5> 331 69<189 211>
LayerCount: 2
Fore
SplineSet
341 562 m 0xf0
 341 510 314 463 285 434 c 1
 355 399 400 320 400 206 c 0xe8
 400 172 400 166 394 143 c 0
 378 79 334 27 281 6 c 0
 261 -2 240 -6 219 -6 c 0
 167 -6 133 17 108 48 c 0
 74 92 53 165 45 269 c 0
 43 297 42 320 42 347 c 0
 42 382 48 521 53 550 c 0
 62 622 104 688 175 699 c 1
 185 699 l 2
 263 699 317 659 335 602 c 0
 339 590 341 576 341 562 c 0xf0
274 562 m 0
 274 611 241 636 195 641 c 0
 172 641 158 634 145 621 c 0
 128 604 118 580 112 545 c 0
 109 525 108 507 108 450 c 2
 108 395 l 1
 127 400 147 410 166 419 c 0
 212 442 243 470 260 503 c 0
 270 522 274 541 274 562 c 0
109 313 m 2
 109 190 123 54 220 54 c 0
 229 54 237 54 243 56 c 0
 299 71 331 131 331 211 c 0xe8
 328 294 298 363 247 393 c 0
 243 395 240 397 240 397 c 2
 239 397 234 394 229 391 c 0
 199 373 160 356 123 346 c 2
 109 341 l 1
 109 313 l 2
EndSplineSet
Validated: 1
EndChar

StartChar: sigma1
Encoding: 962 962 99
Width: 444
Flags: W
HStem: -187 56 404 59<216.5 217 217 223.5 205 251.5>
VStem: 28 59<184.5 246 166 259> 310 68<353 362.5> 353 62<-64 -47>
LayerCount: 2
Fore
SplineSet
315 377 m 1xf0
 296 396 276 404 227 404 c 0
 206 404 204 404 195 402 c 0
 121 381 87 296 87 196 c 0
 87 136 121 94 172 77 c 0
 213 64 297 74 324 67 c 0
 374 54 415 7 415 -57 c 0
 415 -82 408 -102 392 -119 c 0
 365 -147 321 -166 239 -183 c 0
 227 -186 220 -187 215 -187 c 0
 198 -187 186 -162 196 -145 c 0
 198 -140 205 -134 211 -131 c 0
 213 -130 226 -127 239 -124 c 0
 310 -109 340 -96 350 -76 c 0
 352 -72 353 -67 353 -61 c 0xe8
 353 -33 335 -11 315 -3 c 0
 304 1 207 -2 181 3 c 0
 105 17 51 74 34 143 c 0
 30 159 28 174 28 195 c 0
 28 323 91 450 205 463 c 1
 217 463 l 2
 230 463 250 463 257 462 c 0
 312 453 353 429 370 395 c 0
 376 383 378 373 378 359 c 0
 378 340 371 331 358 325 c 0
 338 315 319 330 312 342 c 0
 310 347 310 349 310 357 c 0
 310 368 311 371 315 377 c 1xf0
EndSplineSet
Validated: 33
EndChar

StartChar: delta
Encoding: 948 948 100
Width: 472
Flags: W
HStem: -6 59<221 241.5> 640 59<212.5 235.5 183.5 273.5>
VStem: 29 69<221 237> 56 70<545.5 579> 372 71<222 277.5>
LayerCount: 2
Fore
SplineSet
369 598 m 1xd8
 349 631 304 640 243 640 c 0
 182 640 140 627 128 592 c 0
 126 587 126 583 126 575 c 0xd8
 126 503 195 468 263 463 c 0
 263 462 265 462 267 461 c 0
 362 446 443 355 443 229 c 0
 443 107 368 17 274 -2 c 0
 261 -5 248 -6 235 -6 c 0
 123 -6 45 89 30 195 c 0
 29 200 29 213 29 229 c 0xe8
 29 245 29 258 30 264 c 0
 41 337 75 390 126 430 c 1
 116 438 l 2
 83 467 56 517 56 574 c 0
 56 585 57 594 59 603 c 0
 73 656 140 699 227 699 c 0
 244 699 267 699 278 698 c 0
 361 687 416 652 429 602 c 0
 431 596 431 588 431 580 c 0
 431 556 417 541 397 541 c 0
 372 541 353 568 367 593 c 2
 369 598 l 1xd8
372 229 m 0
 372 326 318 395 252 404 c 0
 248 404 241 405 235 405 c 0
 200 405 175 392 153 371 c 0
 121 340 98 295 98 229 c 0xe8
 98 163 120 118 153 87 c 0
 177 65 206 53 236 53 c 0
 313 53 358 122 371 194 c 0
 372 201 372 215 372 229 c 0
EndSplineSet
Validated: 33
EndChar

StartChar: epsilon
Encoding: 949 949 101
Width: 431
Flags: W
HStem: -6 60<167 196> 226 59<232 232> 404 60<181.5 213>
VStem: 28 70<131.5 164 108 165.5> 55 70<340 357 340 358> 263 69<355 360.5>
LayerCount: 2
Fore
SplineSet
28 136 m 0xf4
 28 195 66 230 114 257 c 1
 106 263 l 2
 78 281 55 311 55 352 c 0
 55 364 58 377 62 389 c 0
 79 432 130 464 192 464 c 0
 267 464 332 419 332 360 c 0
 332 337 319 322 298 322 c 0
 279 322 265 336 263 355 c 0
 263 366 265 370 268 377 c 1
 265 380 l 2
 253 396 230 404 196 404 c 0
 167 404 153 398 140 385 c 0
 130 375 125 363 125 351 c 0xec
 125 329 138 313 155 304 c 0
 174 293 198 287 232 285 c 0
 247 284 248 284 253 281 c 0
 262 276 268 269 268 256 c 0
 268 236 255 226 232 226 c 0
 166 223 98 195 98 133 c 0
 98 83 141 54 193 54 c 0
 202 54 211 54 217 56 c 0
 252 66 277 95 298 124 c 0
 303 132 308 139 308 140 c 0
 310 142 311 141 334 129 c 0
 347 121 358 114 359 114 c 0
 360 113 359 110 354 103 c 0
 315 40 264 2 211 -5 c 0
 205 -6 199 -6 193 -6 c 0
 111 -6 41 46 30 111 c 0
 29 117 28 127 28 136 c 0xf4
EndSplineSet
Validated: 1
EndChar

StartChar: phi
Encoding: 966 966 102
Width: 583
Flags: MW
HStem: -194 59<176 242 313 379 176 242> 408 56<371 390 390 395>
VStem: 29 70<228.5 235 235 283 228.5 291> 242 71<-135 -69 -135 -4 -135 -4 57 139 139 204.5> 456 71<228.5 272 220 287>
LayerCount: 2
Fore
SplineSet
29 235 m 2
 29 347 69 447 157 462 c 0
 162 463 169 464 173 464 c 0
 183 464 188 462 191 456 c 0
 195 449 194 446 184 429 c 0
 179 420 174 413 173 412 c 0
 171 410 167 409 159 408 c 0
 144 407 136 403 127 394 c 0
 101 365 99 316 99 250 c 0
 99 207 99 205 101 195 c 0
 116 128 167 73 238 57 c 1
 242 57 l 1
 242 139 l 2
 242 270 243 304 249 334 c 0
 259 387 288 431 327 451 c 0
 343 460 361 464 379 464 c 0
 413 464 446 449 471 421 c 0
 506 380 527 311 527 233 c 0
 527 207 525 189 519 168 c 0
 495 81 416 14 322 -2 c 1
 314 -4 l 1
 313 -69 l 1
 313 -135 l 1
 379 -135 l 1
 379 -194 l 1
 176 -194 l 1
 176 -135 l 1
 242 -135 l 1
 242 -4 l 1
 234 -2 l 1
 139 14 60 81 36 168 c 0
 30 187 29 195 29 216 c 2
 29 235 l 2
390 408 m 2
 352 408 323 375 313 328 c 1
 313 57 l 1
 317 57 l 1
 388 73 439 128 454 195 c 0
 456 205 456 207 456 250 c 0
 456 324 451 391 409 406 c 0
 406 407 400 408 395 408 c 2
 390 408 l 2
EndSplineSet
Validated: 1
EndChar

StartChar: gamma
Encoding: 947 947 103
Width: 556
Flags: MW
HStem: -194 59<151 217 288 354 151 217> 399 59<17 141 17 56 296 349 430.5 449 449 488>
VStem: 217 71<-135 -1 -135 -1>
LayerCount: 2
Fore
SplineSet
17 399 m 1
 17 458 l 1
 141 458 l 2
 147 456 149 454 152 448 c 0
 156 441 152 446 258 101 c 1
 258 101 279 168 304 250 c 2
 349 399 l 1
 296 399 l 1
 296 458 l 1
 488 458 l 1
 488 399 l 1
 449 399 l 2
 412 399 409 399 409 397 c 0
 408 396 381 306 348 197 c 2
 288 -1 l 1
 288 -135 l 1
 354 -135 l 1
 354 -194 l 1
 151 -194 l 1
 151 -135 l 1
 217 -135 l 1
 217 -1 l 1
 157 197 l 2
 124 306 97 396 96 397 c 0
 96 399 93 399 56 399 c 2
 17 399 l 1
EndSplineSet
Validated: 1
EndChar

StartChar: eta
Encoding: 951 951 104
Width: 500
Flags: MW
HStem: -194 59<303 370 440 506 303 370> 0 59<21 87 157 224 21 87> 399 59<21 87 21 146>
VStem: 87 70<59 180 59 399> 370 70<-135 82 -135 87 -135 87>
LayerCount: 2
Fore
SplineSet
146 458 m 1
 155 452 157 452 157 430 c 2
 157 413 l 1
 167 422 l 2
 193 443 223 459 262 463 c 0
 264 464 273 464 283 463 c 0
 302 463 312 461 329 455 c 0
 390 434 433 377 439 309 c 0
 440 302 440 221 440 82 c 2
 440 -135 l 1
 506 -135 l 1
 506 -194 l 1
 303 -194 l 1
 303 -135 l 1
 370 -135 l 1
 370 87 l 1
 369 309 l 1
 367 319 l 2
 358 357 334 386 303 396 c 0
 297 398 292 398 282 399 c 0
 261 399 247 397 229 388 c 0
 198 373 170 341 159 307 c 0
 157 302 157 298 157 180 c 2
 157 59 l 1
 224 59 l 1
 224 0 l 1
 21 0 l 1
 21 59 l 1
 87 59 l 1
 87 399 l 1
 21 399 l 1
 21 458 l 1
 146 458 l 1
EndSplineSet
Validated: 1
EndChar

StartChar: iota
Encoding: 953 953 105
Width: 250
Flags: MW
HStem: 0 59<23 89 160 226 23 89> 399 59<23 86 23 86 86 89>
VStem: 89 71<59 253 59 399>
LayerCount: 2
Fore
SplineSet
23 399 m 1
 23 458 l 1
 86 458 l 2
 158 458 147 461 158 450 c 0
 159 447 160 444 160 253 c 2
 160 59 l 1
 226 59 l 1
 226 0 l 1
 23 0 l 1
 23 59 l 1
 89 59 l 1
 89 399 l 1
 23 399 l 1
EndSplineSet
Validated: 33
EndChar

StartChar: theta
Encoding: 952 952 106
Width: 569
Flags: MW
HStem: -6 60<213.5 230 213.5 297> 316 62<98 345 98 345> 641 58<200.5 221.5 200.5 244.5>
VStem: 28 70<290 316 378 404> 345 70<290 316 316 316 261.5 404 261.5 404>
LayerCount: 2
Fore
SplineSet
415 347 m 0
 415 176 372 -6 222 -6 c 0
 172 -6 145 9 116 36 c 0
 59 92 28 206 28 347 c 0
 28 509 68 633 144 679 c 0
 161 690 185 699 216 699 c 0
 227 699 244 699 250 698 c 0
 333 682 387 602 407 463 c 0
 413 425 415 392 415 347 c 0
318 573 m 0
 299 618 272 641 217 641 c 0
 172 641 143 613 125 573 c 0
 108 535 100 483 98 404 c 2
 98 378 l 1
 345 378 l 1
 345 404 l 2
 343 483 335 535 318 573 c 0
345 290 m 1
 345 316 l 1
 98 316 l 1
 98 290 l 1
 102 142 130 73 194 56 c 0
 203 54 205 54 222 54 c 0
 238 54 240 54 249 56 c 0
 313 73 341 142 345 290 c 1
EndSplineSet
Validated: 1
EndChar

StartChar: kappa
Encoding: 954 954 107
Width: 528
Flags: MW
HStem: 0 59<25 91 161 228 25 91 271 283 413 457> 399 59<25 87 25 87 87 91 273 293 360 360 360 449>
VStem: 91 70<59 147>
LayerCount: 2
Fore
SplineSet
25 399 m 1
 25 458 l 1
 87 458 l 2
 147 458 149 458 153 456 c 0
 161 452 160 462 161 341 c 2
 162 233 l 1
 205 289 249 344 293 399 c 1
 273 399 l 1
 273 458 l 1
 449 458 l 1
 449 399 l 1
 360 399 l 1
 310 336 l 2
 283 301 260 272 260 272 c 2
 260 271 285 223 315 165 c 2
 370 60 l 1
 413 59 l 1
 457 59 l 1
 457 0 l 1
 271 0 l 1
 271 59 l 1
 283 59 l 1
 296 60 l 1
 256 134 l 2
 233 179 218 209 214 214 c 1
 196 192 179 169 161 147 c 1
 161 59 l 1
 228 59 l 1
 228 0 l 1
 25 0 l 1
 25 59 l 1
 91 59 l 1
 91 399 l 1
 25 399 l 1
EndSplineSet
Validated: 1
EndChar

StartChar: lambda
Encoding: 955 955 108
Width: 500
Flags: MW
HStem: 0 59<25 94 177 200 25 94 251 279 416 454> 635 59<88 151 88 126>
LayerCount: 2
Fore
SplineSet
88 635 m 1
 88 694 l 1
 151 694 l 2
 221 694 213 696 222 687 c 0
 223 685 253 568 301 372 c 2
 378 60 l 1
 416 59 l 1
 454 59 l 1
 454 0 l 1
 251 0 l 1
 251 59 l 1
 279 59 l 1
 307 60 l 1
 270 210 l 2
 249 293 232 361 232 361 c 1
 232 361 157 72 154 60 c 0
 154 59 158 59 177 59 c 2
 200 59 l 1
 200 0 l 1
 25 0 l 1
 25 59 l 1
 94 59 l 1
 96 69 l 2
 98 75 122 170 151 281 c 2
 203 482 l 1
 184 557 l 2
 174 598 166 632 165 633 c 0
 165 635 162 635 126 635 c 2
 88 635 l 1
EndSplineSet
Validated: 33
EndChar

StartChar: uni03BC
Encoding: 956 956 109
Width: 514
Flags: MW
HStem: -194 59<17 83 153 220 17 83> -6 59<244 288> 399 59<17 83 17 141 307 370 370 374>
VStem: 83 70<-135 -61 215 358> 374 70<251 360.5 190.5 399 190.5 399> 484 58<106 112.5 76 113>
LayerCount: 2
Fore
SplineSet
542 105 m 0
 542 47 511 -6 458 -6 c 0
 436 -6 420 3 406 17 c 2
 396 27 l 1
 372 3 312 -6 264 -6 c 0
 224 -6 184 12 155 12 c 0
 153 12 153 4 153 -61 c 2
 153 -135 l 1
 220 -135 l 1
 220 -194 l 1
 17 -194 l 1
 17 -135 l 1
 83 -135 l 1
 83 399 l 1
 17 399 l 1
 17 458 l 1
 141 458 l 2
 145 456 149 453 151 450 c 0
 153 446 153 441 153 275 c 0
 153 155 153 102 154 97 c 0
 164 61 217 53 264 53 c 0
 312 53 363 61 373 97 c 0
 374 102 374 149 374 251 c 2
 374 399 l 1
 307 399 l 1
 307 458 l 1
 370 458 l 2
 440 458 432 460 441 451 c 0
 443 448 444 448 444 273 c 0
 444 108 445 98 446 95 c 0
 454 84 467 81 478 92 c 0
 482 96 482 97 484 106 c 0
 484 120 496 121 513 121 c 0
 530 121 542 120 542 105 c 0
EndSplineSet
Validated: 33
EndChar

StartChar: nu
Encoding: 957 957 110
Width: 472
Flags: MW
HStem: -6 21G<233.5 238> 399 59<17 79 17 79 79 96 262 288 375 375 375 454>
VStem: 222 27<1 2>
LayerCount: 2
Fore
SplineSet
17 399 m 1
 17 458 l 1
 79 458 l 2
 141 458 141 458 145 456 c 0
 147 455 150 452 151 450 c 0
 154 444 213 254 241 169 c 1
 241 169 311 387 314 397 c 0
 314 399 313 399 288 399 c 2
 262 399 l 1
 262 458 l 1
 454 458 l 1
 454 399 l 1
 375 399 l 1
 312 202 l 2
 278 93 249 3 249 1 c 0
 246 -3 240 -6 236 -6 c 0
 231 -6 225 -3 222 1 c 0
 222 3 193 93 159 202 c 2
 96 399 l 1
 17 399 l 1
EndSplineSet
Validated: 1
EndChar

StartChar: omicron
Encoding: 959 959 111
Width: 528
Flags: MW
HStem: -6 60<231.5 253 231.5 270> 404 60<239 243>
VStem: 42 70<186.5 273.5 186.5 292.5> 358 71<206.5 255.5 206.5 274>
LayerCount: 2
Fore
SplineSet
42 229 m 0
 42 356 121 464 236 464 c 0
 305 464 359 421 390 373 c 0
 416 330 429 282 429 229 c 0
 429 184 420 144 401 106 c 0
 366 35 304 -6 236 -6 c 0
 113 -6 42 112 42 229 c 0
358 229 m 0
 358 319 318 387 260 402 c 0
 254 403 247 404 239 404 c 0
 224 405 223 405 211 402 c 0
 154 388 112 318 112 229 c 0
 112 144 146 73 212 56 c 0
 218 54 227 54 236 54 c 0
 270 54 289 65 309 85 c 0
 340 116 358 166 358 229 c 0
EndSplineSet
Validated: 1
EndChar

StartChar: pi
Encoding: 960 960 112
Width: 514
Flags: MW
HStem: 0 59<17 83 153 220 17 83 279 346 416 482> 399 59<17 482 17 83 153 153 153 346 416 416 416 482>
VStem: 83 70<59 399 59 399> 346 70<59 399 59 399>
LayerCount: 2
Fore
SplineSet
17 399 m 1
 17 458 l 1
 482 458 l 1
 482 399 l 1
 416 399 l 1
 416 59 l 1
 482 59 l 1
 482 0 l 1
 279 0 l 1
 279 59 l 1
 346 59 l 1
 346 399 l 1
 153 399 l 1
 153 59 l 1
 220 59 l 1
 220 0 l 1
 17 0 l 1
 17 59 l 1
 83 59 l 1
 83 399 l 1
 17 399 l 1
EndSplineSet
Validated: 1
EndChar

StartChar: chi
Encoding: 967 967 113
Width: 556
Flags: MW
HStem: -194 59<17 118 177 209 17 118 279 302 440 482> 399 59<17 79 17 79 79 100 290 322 381 381 381 482>
LayerCount: 2
Fore
SplineSet
17 399 m 1
 17 458 l 1
 79 458 l 2
 141 458 141 458 145 456 c 0
 147 455 150 452 151 450 c 0
 175 403 258 192 261 192 c 2
 261 192 348 385 353 398 c 0
 353 399 339 399 322 399 c 2
 290 399 l 1
 290 458 l 1
 482 458 l 1
 482 399 l 1
 381 399 l 1
 375 385 356 341 325 271 c 2
 275 158 l 1
 316 61 358 -37 399 -134 c 1
 440 -135 l 1
 482 -135 l 1
 482 -194 l 1
 279 -194 l 1
 279 -135 l 1
 302 -135 l 1
 326 -134 l 1
 282 -31 l 2
 258 25 239 72 238 72 c 2
 238 72 151 -121 146 -134 c 0
 146 -135 160 -135 177 -135 c 2
 209 -135 l 1
 209 -194 l 1
 17 -194 l 1
 17 -135 l 1
 118 -135 l 1
 124 -121 143 -77 174 -7 c 2
 224 106 l 1
 183 204 141 301 100 399 c 1
 17 399 l 1
EndSplineSet
Validated: 1
EndChar

StartChar: rho
Encoding: 961 961 114
Width: 472
Flags: MW
HStem: -194 59<-11 55 125 192 -11 55> -5 58<222.5 256> 405 59<242.5 252.5 242.5 266>
VStem: 55 70<-135 54 -135 59 -135 59> 372 70<188.5 237 165.5 261.5>
LayerCount: 2
Fore
SplineSet
229 463 m 0
 233 464 239 464 246 464 c 0
 259 464 273 463 281 461 c 0
 369 443 425 364 441 269 c 0
 442 261 442 245 442 229 c 0
 442 102 372 16 281 -3 c 0
 273 -5 262 -5 250 -5 c 0
 195 -5 164 14 132 46 c 2
 125 54 l 1
 125 -135 l 1
 192 -135 l 1
 192 -194 l 1
 -11 -194 l 1
 -11 -135 l 1
 55 -135 l 1
 55 59 l 2
 56 232 56 254 57 264 c 0
 72 365 131 449 229 463 c 0
125 228 m 0
 125 140 169 53 250 53 c 0
 266 53 281 56 294 63 c 0
 339 87 372 148 372 229 c 0
 372 294 355 340 323 372 c 0
 302 394 282 405 250 405 c 0
 165 405 125 311 125 228 c 0
EndSplineSet
Validated: 1
EndChar

StartChar: sigma
Encoding: 963 963 115
Width: 569
Flags: W
HStem: -6 60<229 251 217 293.5> 387 65<385.5 394 380 418.5 394 408> 405 59<229 253>
VStem: 41 69<220 268.5 193.5 279> 360 70<212 258>
LayerCount: 2
Fore
SplineSet
241 464 m 0xb8
 275 464 369 452 402 452 c 0xd8
 435 452 452 454 477 461 c 0
 489 465 493 466 497 464 c 0xb8
 504 460 508 452 507 440 c 0
 504 402 453 387 408 387 c 2
 394 387 l 1
 380 387 l 1xd8
 388 376 l 2
 413 337 430 292 430 230 c 0
 430 102 351 -6 236 -6 c 0
 222 -6 209 -4 195 -1 c 0
 108 20 45 106 41 220 c 1
 41 338 100 429 183 455 c 0
 201 461 217 464 241 464 c 0xb8
311 371 m 0
 289 393 270 405 236 405 c 0
 153 405 110 313 110 224 c 0
 110 163 128 118 157 88 c 0
 177 65 197 54 237 54 c 0
 265 54 281 60 298 73 c 0
 329 95 351 136 359 185 c 0
 360 192 360 200 360 224 c 0
 360 292 341 338 311 371 c 0
EndSplineSet
Validated: 1
EndChar

StartChar: tau
Encoding: 964 964 116
Width: 458
Flags: MW
HStem: -6 62<241.5 263.5> 388 70<66.5 268 120.5 130 200 200 200 268 120.5 272>
VStem: 130 70<247 388 247 388 247 388> 310 58<99.5 127.5>
LayerCount: 2
Fore
SplineSet
340 148 m 0
 359 148 370 136 368 116 c 0
 368 83 354 51 330 27 c 0
 307 5 278 -6 249 -6 c 0
 220 -6 190 5 167 28 c 0
 150 46 139 66 133 92 c 0
 131 100 131 102 130 244 c 2
 130 388 l 1
 87 388 l 2
 46 388 43 388 37 390 c 0
 24 395 15 403 15 423 c 0
 15 443 24 451 36 456 c 0
 42 458 47 458 194 458 c 0
 342 458 345 458 351 456 c 0
 363 451 374 442 374 423 c 0
 374 404 363 395 351 390 c 0
 345 388 342 388 272 388 c 2
 200 388 l 1
 200 247 l 1
 201 106 l 1
 208 76 229 56 254 56 c 0
 287 56 307 84 310 117 c 0
 310 138 321 148 340 148 c 0
EndSplineSet
Validated: 33
EndChar

StartChar: upsilon
Encoding: 965 965 117
Width: 500
Flags: MW
HStem: -5 59<239 257.5> 399 59<17 79 17 79 79 83 279 346 416 416 416 482>
VStem: 83 71 346 70<274 278 278 399>
LayerCount: 2
Fore
SplineSet
17 399 m 1
 17 458 l 1
 79 458 l 2
 140 458 141 458 145 456 c 0
 147 455 150 452 151 451 c 0
 152 448 153 443 153 299 c 2
 154 150 l 1
 156 140 l 2
 165 95 200 54 249 54 c 0
 299 54 332 89 343 140 c 0
 345 149 345 150 346 274 c 2
 346 399 l 1
 279 399 l 1
 279 458 l 1
 482 458 l 1
 482 399 l 1
 416 399 l 1
 416 278 l 2
 416 200 416 155 415 148 c 0
 407 72 353 11 280 -3 c 0
 270 -5 265 -5 250 -5 c 0
 228 -5 216 -4 198 2 c 0
 136 23 92 80 84 148 c 0
 83 155 83 200 83 278 c 2
 83 399 l 1
 17 399 l 1
EndSplineSet
Validated: 1
EndChar

StartChar: omega
Encoding: 969 969 119
Width: 667
Flags: MW
HStem: -6 59<178 191 178 222 463.5 483.5> 405 58
VStem: 28 70<217.5 256.5 185 289> 274 58<143 145.5 143 161> 334 58<143 161> 568 70<174 265>
LayerCount: 2
Fore
SplineSet
332 143 m 0
 322 61 262 -6 182 -6 c 0
 106 -6 49 59 33 167 c 0
 30 188 28 208 28 227 c 0
 28 351 99 452 199 463 c 0
 201 464 207 464 214 464 c 0
 234 461 244 454 244 435 c 0
 244 413 234 406 212 405 c 0
 181 403 163 392 146 374 c 0
 115 342 98 288 98 225 c 0
 98 145 114 91 143 68 c 0
 155 58 170 53 186 53 c 0
 196 53 206 55 215 59 c 0
 246 72 274 113 274 160 c 0
 274 162 280 197 286 237 c 0
 300 316 300 317 308 325 c 0
 314 331 324 335 333 335 c 0
 342 335 352 331 358 325 c 0
 366 317 366 316 380 237 c 0
 386 197 392 162 392 160 c 0
 392 152 395 135 398 125 c 0
 410 81 443 53 481 53 c 0
 486 53 490 53 495 54 c 0
 543 64 568 123 568 225 c 0
 568 305 542 368 491 396 c 0
 480 401 469 404 454 405 c 0
 432 406 422 413 422 435 c 0
 422 456 432 463 456 463 c 0
 570 463 638 341 638 227 c 0
 638 112 589 16 517 -2 c 0
 506 -5 496 -6 485 -6 c 0
 442 -6 400 14 371 52 c 0
 351 78 337 112 334 143 c 0
 334 148 333 151 333 151 c 1
 333 151 332 148 332 143 c 0
EndSplineSet
Validated: 1
EndChar

StartChar: xi
Encoding: 958 958 120
Width: 472
Flags: W
HStem: 1 70 399 59<319 329 319 335.5> 635 59<262 274 274 311 212 326>
VStem: 28 67<210.5 257.5> 95 65<553.5 574 574 586> 381 61<-76 -72>
LayerCount: 2
Fore
SplineSet
66 665 m 0xec
 66 681 74 690 86 693 c 0
 87 693 144 694 212 694 c 2
 274 694 l 2
 348 694 343 693 350 686 c 0
 356 680 359 672 359 664 c 0
 359 656 356 649 350 643 c 0
 343 636 340 635 312 635 c 0
 212 635 176 624 160 588 c 1
 160 574 l 2xec
 160 533 181 509 208 491 c 0
 237 472 277 460 319 458 c 0
 339 458 344 456 350 450 c 0
 356 444 359 436 359 428 c 0
 359 409 347 399 324 399 c 0
 218 399 133 361 107 307 c 0
 98 290 95 275 95 253 c 0
 95 168 137 92 208 73 c 1
 218 71 l 1
 279 70 l 2
 339 69 341 69 349 67 c 0
 404 52 442 2 442 -71 c 0
 442 -91 442 -92 440 -100 c 0
 432 -125 417 -145 392 -162 c 0
 360 -183 316 -199 245 -214 c 0
 239 -215 235 -216 231 -216 c 0
 216 -216 207 -203 207 -188 c 0
 207 -180 209 -174 214 -169 c 0
 220 -162 228 -159 250 -154 c 0
 336 -135 371 -118 380 -89 c 0
 381 -84 381 -80 381 -72 c 0
 379 -42 366 -16 346 -6 c 0
 336 0 334 0 278 0 c 0
 248 0 222 0 216 1 c 0
 169 6 131 31 101 59 c 0
 57 104 28 170 28 250 c 0xf4
 28 265 29 280 31 288 c 0
 40 334 68 372 114 402 c 0
 127 411 156 425 172 431 c 2
 184 435 l 1
 176 441 l 1
 131 467 95 509 95 574 c 0
 95 598 103 620 115 635 c 1
 100 635 l 2
 76 635 66 643 66 665 c 0xec
EndSplineSet
Validated: 1
EndChar

StartChar: psi
Encoding: 968 968 121
Width: 583
Flags: W
HStem: -194 59<189 256 326 393 189 256> 399 59<17 79 17 79 79 83 189 256 326 326 326 393 503 565>
VStem: 83 70<318 380.5 318 399 318 399> 189 204<-194 -135 -194 -135 399 458> 256 70<-135 -3 -135 -3 58 399> 429 70<318 380.5>
LayerCount: 2
Fore
SplineSet
17 399 m 1xec
 17 458 l 1
 79 458 l 2
 140 458 141 458 145 456 c 0
 147 455 150 452 151 451 c 0
 152 448 153 443 153 318 c 0
 154 190 154 188 156 177 c 0
 168 122 202 77 248 61 c 0
 252 59 255 58 256 58 c 1
 256 399 l 1xec
 189 399 l 1
 189 458 l 1
 393 458 l 1
 393 399 l 1xf4
 326 399 l 1
 326 58 l 1
 327 58 330 59 334 61 c 0
 380 77 416 122 426 177 c 0
 428 188 428 190 429 318 c 0
 429 443 430 448 431 451 c 0
 432 452 435 455 437 456 c 0
 441 458 442 458 503 458 c 2
 565 458 l 1
 565 399 l 1
 499 399 l 1
 499 299 l 2
 499 235 499 194 498 187 c 0
 489 92 420 18 336 -1 c 2
 326 -3 l 1
 326 -135 l 1xec
 393 -135 l 1
 393 -194 l 1
 189 -194 l 1
 189 -135 l 1xf4
 256 -135 l 1
 256 -3 l 1
 246 -1 l 2
 158 19 93 96 84 187 c 0
 83 194 83 235 83 299 c 2
 83 399 l 1
 17 399 l 1xec
EndSplineSet
Validated: 1
EndChar

StartChar: zeta
Encoding: 950 950 122
Width: 472
Flags: MW
HStem: 0 70<243 243 243 276> 635 59<98 357 98 443 98 443>
VStem: 28 70<171 187 150.5 210.5> 387 56<-65 -35>
LayerCount: 2
Fore
SplineSet
387 -62 m 0
 387 -8 314 0 238 0 c 0
 196 0 186 1 169 4 c 0
 103 18 49 70 33 136 c 0
 29 152 28 162 28 180 c 0
 28 241 57 309 115 388 c 0
 163 451 231 521 333 613 c 2
 357 635 l 1
 98 635 l 1
 98 694 l 1
 443 694 l 1
 443 635 l 1
 425 619 l 2
 300 509 229 436 178 369 c 0
 138 315 115 270 104 227 c 0
 100 210 98 194 98 180 c 0
 98 121 134 85 180 73 c 2
 190 71 l 1
 243 70 l 2
 308 69 324 68 356 59 c 0
 401 47 443 20 443 -32 c 0
 443 -99 388 -147 280 -176 c 0
 260 -181 234 -187 230 -187 c 0
 216 -187 207 -173 207 -158 c 0
 207 -153 208 -150 210 -145 c 0
 216 -133 223 -130 255 -123 c 0
 267 -121 287 -116 299 -113 c 0
 348 -101 376 -88 385 -74 c 0
 387 -70 387 -68 387 -62 c 0
EndSplineSet
Validated: 1
EndChar

StartChar: guillemotleft
Encoding: 171 171 123
Width: 500
Flags: MW
HStem: 393 107<213 218 218 233.5 210 234.5 407 412 412 427.5> 674 20G<228.5 232 422.5 426>
VStem: 151 59<500 513 500 546.5> 345 59<500 513 500 546.5>
LayerCount: 2
Fore
SplineSet
272 446 m 0
 272 418 249 393 220 393 c 0
 206 393 197 397 187 403 c 0
 163 420 151 458 151 508 c 0
 151 585 183 645 222 688 c 0
 226 692 227 694 230 694 c 0
 234 694 239 689 251 677 c 0
 261 668 269 659 269 658 c 0
 270 655 269 652 262 644 c 0
 230 608 213 563 210 513 c 2
 210 500 l 1
 218 500 l 2
 249 500 272 475 272 446 c 0
466 446 m 0
 466 418 443 393 414 393 c 0
 400 393 391 397 381 403 c 0
 357 420 345 458 345 508 c 0
 345 585 377 645 416 688 c 0
 420 692 421 694 424 694 c 0
 428 694 433 689 445 677 c 0
 455 668 463 659 463 658 c 0
 464 655 463 652 456 644 c 0
 424 608 407 563 404 513 c 2
 404 500 l 1
 412 500 l 2
 443 500 466 475 466 446 c 0
EndSplineSet
Validated: 1
EndChar

StartChar: uni037A
Encoding: 890 890 124
Width: 111
Flags: MW
HStem: -194 160<55 116>
VStem: 20 70 131 41<-130.5 -67>
LayerCount: 2
Fore
SplineSet
20 -75 m 2
 20 -50 29 -40 45 -35 c 0
 48 -35 53 -34 57 -34 c 0
 71 -35 81 -42 87 -54 c 0
 89 -59 89 -61 90 -84 c 0
 91 -109 92 -114 96 -123 c 0
 101 -133 114 -135 121 -126 c 0
 128 -119 130 -107 131 -77 c 0
 131 -57 132 -56 134 -54 c 0
 139 -48 148 -51 157 -60 c 0
 167 -71 172 -87 172 -105 c 0
 172 -156 135 -194 97 -194 c 0
 81 -194 65 -187 52 -174 c 0
 31 -154 20 -121 20 -80 c 2
 20 -75 l 2
EndSplineSet
Validated: 1
EndChar

StartChar: guillemotright
Encoding: 187 187 125
Width: 500
Flags: MW
HStem: 587 107<72 87 87 95 266 281 281 289>
VStem: 95 59<574 587 587 587> 289 59<574 587 587 587>
LayerCount: 2
Fore
SplineSet
33 640 m 0
 33 672 54 694 86 694 c 0
 113 694 130 679 139 657 c 0
 149 637 154 610 154 581 c 0
 154 505 122 441 83 399 c 0
 79 395 78 393 75 393 c 0
 71 393 66 398 54 410 c 0
 44 419 36 428 36 429 c 0
 35 432 36 435 43 443 c 0
 75 479 92 524 95 574 c 2
 95 587 l 1
 87 587 l 2
 57 587 33 611 33 640 c 0
227 640 m 0
 227 672 248 694 280 694 c 0
 307 694 324 679 333 657 c 0
 343 637 348 610 348 581 c 0
 348 505 316 441 277 399 c 0
 273 395 272 393 269 393 c 0
 265 393 260 398 248 410 c 0
 238 419 230 428 230 429 c 0
 229 432 230 435 237 443 c 0
 269 479 286 524 289 574 c 2
 289 587 l 1
 281 587 l 2
 251 587 227 611 227 640 c 0
EndSplineSet
Validated: 1
EndChar

StartChar: uni1FC0
Encoding: 8128 8128 126
Width: 333
Flags: W
HStem: 542 59<216 244 216 252> 566 59<88 115.5>
VStem: 268 64<611.5 617.5 611 618.5>
LayerCount: 2
Fore
SplineSet
64 551 m 0x60
 64 546 61 545 59 542 c 2
 6 542 l 1xa0
 -12 560 15 594 30 605 c 0
 48 618 70 625 100 625 c 0x60
 138 625 198 601 234 601 c 0xa0
 254 601 268 607 268 616 c 0
 268 621 271 622 273 625 c 2
 327 625 l 2x60
 329 622 332 620 332 615 c 0
 332 607 329 596 325 588 c 0
 310 559 273 542 231 542 c 0xa0
 194 542 133 566 98 566 c 0
 78 566 64 560 64 551 c 0x60
EndSplineSet
Validated: 33
EndChar

StartChar: emdash
Encoding: 8212 8212 127
Width: 1000
Flags: MW
HStem: 254 59<0 999 0 999>
LayerCount: 2
Fore
SplineSet
0 254 m 1
 0 313 l 1
 999 313 l 1
 999 254 l 1
 0 254 l 1
EndSplineSet
Validated: 1
EndChar

StartChar: uni1F70
Encoding: 8048 8048 128
Width: 500
Flags: MW
HStem: -5 58<197.5 245.5> 405 58<213 216 216 248 203 253>
VStem: 43 69<185.5 243> 168 68 331 71 430 41<46.5 105>
LayerCount: 2
Fore
SplineSet
168 667 m 0
 168 686 186 700 205 700 c 0
 219 700 230 693 236 681 c 0
 240 674 268 510 268 509 c 0
 270 507 260 504 256 503 c 0
 254 505 171 652 170 655 c 0
 169 658 168 663 168 667 c 0
471 70 m 0
 471 23 433 -6 381 -6 c 0
 362 -5 352 4 341 27 c 1
 341 27 339 25 335 23 c 0
 306 6 268 -5 223 -5 c 0
 172 -5 144 9 115 38 c 0
 69 80 43 142 43 229 c 0
 43 257 43 262 45 275 c 0
 59 368 112 450 203 463 c 1
 216 463 l 2
 280 463 322 448 357 419 c 1
 371 435 386 450 402 464 c 1
 402 269 l 2
 403 57 402 66 408 56 c 0
 412 48 419 48 423 55 c 0
 427 61 429 73 430 96 c 0
 430 114 430 115 433 118 c 0
 437 123 446 121 455 112 c 0
 464 103 471 88 471 70 c 0
112 229 m 0
 112 129 150 53 224 53 c 0
 273 53 322 68 331 103 c 0
 332 107 332 168 332 229 c 0
 332 290 332 351 331 355 c 0
 322 386 281 405 225 405 c 0
 201 405 186 400 170 388 c 0
 134 362 112 302 112 229 c 0
EndSplineSet
Validated: 1
EndChar

StartChar: uni1F01
Encoding: 7937 7937 129
Width: 500
Flags: MW
HStem: -5 58<197.5 245.5> 405 58<213 216 216 248 203 253> 515 17<249 275> 615 79<242 245 242 257>
VStem: 43 69<185.5 243> 155 17<601.5 609> 206 78 331 71 430 41<46.5 105>
LayerCount: 2
Fore
SplineSet
155 609 m 0
 157 652 190 687 229 693 c 0
 232 693 239 694 245 694 c 0
 269 691 284 677 284 654 c 0
 284 632 270 615 244 615 c 0
 218 615 196 636 206 666 c 1
 186 651 172 634 172 604 c 0
 172 556 225 532 273 532 c 0
 280 532 289 524 281 518 c 0
 279 515 278 515 272 515 c 0
 223 515 179 540 163 571 c 0
 157 585 155 594 155 609 c 0
471 70 m 0
 471 23 433 -6 381 -6 c 0
 362 -5 352 4 341 27 c 1
 341 27 339 25 335 23 c 0
 306 6 268 -5 223 -5 c 0
 172 -5 144 9 115 38 c 0
 69 80 43 142 43 229 c 0
 43 257 43 262 45 275 c 0
 59 368 112 450 203 463 c 1
 216 463 l 2
 280 463 322 448 357 419 c 1
 371 435 386 450 402 464 c 1
 402 269 l 2
 403 57 402 66 408 56 c 0
 412 48 419 48 423 55 c 0
 427 61 429 73 430 96 c 0
 430 114 430 115 433 118 c 0
 437 123 446 121 455 112 c 0
 464 103 471 88 471 70 c 0
112 229 m 0
 112 129 150 53 224 53 c 0
 273 53 322 68 331 103 c 0
 332 107 332 168 332 229 c 0
 332 290 332 351 331 355 c 0
 322 386 281 405 225 405 c 0
 201 405 186 400 170 388 c 0
 134 362 112 302 112 229 c 0
EndSplineSet
Validated: 33
EndChar

StartChar: uni1F00
Encoding: 7936 7936 130
Width: 500
Flags: W
HStem: -5 58<197.5 245.5> 405 58<213 216 216 248 203 253> 515 17<212.5 236.5 212.5 246.5> 615 78<231.5 257.5>
VStem: 43 69<185.5 243> 204 78 316 17<599.5 609 578 619> 331 71 430 41<46.5 105>
LayerCount: 2
Fore
SplineSet
204 654 m 0xfe80
 204 673 217 693 241 693 c 0
 296 693 331 655 333 609 c 0
 333 547 277 515 216 515 c 0
 209 515 199 523 207 529 c 0
 209 532 210 532 215 532 c 0
 258 532 295 552 310 579 c 0
 314 587 316 595 316 604 c 0
 316 634 302 651 282 666 c 1
 292 637 271 615 244 615 c 0
 219 615 204 632 204 654 c 0xfe80
471 70 m 0
 471 23 433 -6 381 -6 c 0
 362 -5 352 4 341 27 c 1
 341 27 339 25 335 23 c 0
 306 6 268 -5 223 -5 c 0
 172 -5 144 9 115 38 c 0
 69 80 43 142 43 229 c 0
 43 257 43 262 45 275 c 0
 59 368 112 450 203 463 c 1
 216 463 l 2
 280 463 322 448 357 419 c 1
 371 435 386 450 402 464 c 1
 402 269 l 2xfd80
 403 57 402 66 408 56 c 0
 412 48 419 48 423 55 c 0
 427 61 429 73 430 96 c 0
 430 114 430 115 433 118 c 0
 437 123 446 121 455 112 c 0
 464 103 471 88 471 70 c 0
112 229 m 0
 112 129 150 53 224 53 c 0
 273 53 322 68 331 103 c 0
 332 107 332 168 332 229 c 0
 332 290 332 351 331 355 c 0
 322 386 281 405 225 405 c 0
 201 405 186 400 170 388 c 0
 134 362 112 302 112 229 c 0
EndSplineSet
Validated: 33
EndChar

StartChar: uni1F03
Encoding: 7939 7939 131
Width: 500
Flags: W
HStem: -5 58<197.5 245.5> 405 58<213 216 216 248 203 253> 515 17<195 221> 615 79<188 191 188 203>
VStem: 43 69<185.5 243> 101 17<601.5 609> 152 78 255 66 331 71 430 41<46.5 105>
LayerCount: 2
Fore
SplineSet
255 655 m 0xf3c0
 243 688 280 708 306 697 c 0
 313 694 317 689 321 681 c 0
 323 676 353 517 353 509 c 0
 355 507 343 503 340 503 c 0
 339 505 256 651 255 655 c 0xf3c0
101 609 m 0xf7c0
 103 652 136 687 175 693 c 0
 178 693 185 694 191 694 c 0
 215 691 230 677 230 654 c 0
 230 632 216 615 190 615 c 0
 164 615 142 636 152 666 c 1
 132 651 118 634 118 604 c 0
 118 556 171 532 219 532 c 0
 226 532 235 524 227 518 c 0
 225 515 224 515 218 515 c 0
 169 515 125 540 109 571 c 0
 103 585 101 594 101 609 c 0xf7c0
471 70 m 0
 471 23 433 -6 381 -6 c 0
 362 -5 352 4 341 27 c 1
 341 27 339 25 335 23 c 0
 306 6 268 -5 223 -5 c 0
 172 -5 144 9 115 38 c 0
 69 80 43 142 43 229 c 0xfbc0
 43 257 43 262 45 275 c 0
 59 368 112 450 203 463 c 1
 216 463 l 2
 280 463 322 448 357 419 c 1
 371 435 386 450 402 464 c 1
 402 269 l 2
 403 57 402 66 408 56 c 0
 412 48 419 48 423 55 c 0
 427 61 429 73 430 96 c 0
 430 114 430 115 433 118 c 0
 437 123 446 121 455 112 c 0
 464 103 471 88 471 70 c 0
112 229 m 0
 112 129 150 53 224 53 c 0
 273 53 322 68 331 103 c 0
 332 107 332 168 332 229 c 0
 332 290 332 351 331 355 c 0
 322 386 281 405 225 405 c 0
 201 405 186 400 170 388 c 0
 134 362 112 302 112 229 c 0
EndSplineSet
Validated: 33
EndChar

StartChar: uni1FB2
Encoding: 8114 8114 132
Width: 500
Flags: W
HStem: -5 58<197.5 245.5> 405 58<213 216 216 248 203 253>
VStem: 43 69<185.5 243> 168 68 297 70 331 71 408 41<-130.5 -67> 430 41<46.5 105>
LayerCount: 2
Fore
SplineSet
168 667 m 0xf0
 168 686 186 700 205 700 c 0
 219 700 230 693 236 681 c 0
 240 674 268 510 268 509 c 0
 270 507 260 504 256 503 c 0
 254 505 171 652 170 655 c 0
 169 658 168 663 168 667 c 0xf0
471 70 m 0xf1
 471 23 433 -6 381 -6 c 0
 362 -5 352 4 341 27 c 1
 341 27 339 25 335 23 c 0
 306 6 268 -5 223 -5 c 0
 172 -5 144 9 115 38 c 0
 69 80 43 142 43 229 c 0
 43 257 43 262 45 275 c 0
 59 368 112 450 203 463 c 1
 216 463 l 2
 280 463 322 448 357 419 c 1
 371 435 386 450 402 464 c 1
 402 269 l 2
 403 57 402 66 408 56 c 0xf6
 412 48 419 48 423 55 c 0
 427 61 429 73 430 96 c 0
 430 114 430 115 433 118 c 0
 437 123 446 121 455 112 c 0
 464 103 471 88 471 70 c 0xf1
112 229 m 0
 112 129 150 53 224 53 c 0
 273 53 322 68 331 103 c 0
 332 107 332 168 332 229 c 0
 332 290 332 351 331 355 c 0
 322 386 281 405 225 405 c 0
 201 405 186 400 170 388 c 0
 134 362 112 302 112 229 c 0
297 -75 m 2xfa
 297 -50 306 -40 322 -35 c 0
 325 -35 330 -34 334 -34 c 0
 348 -35 358 -42 364 -54 c 0
 366 -59 366 -61 367 -84 c 0
 368 -109 369 -114 373 -123 c 0
 378 -133 391 -135 398 -126 c 0
 405 -119 407 -107 408 -77 c 0
 408 -57 409 -56 411 -54 c 0
 416 -48 425 -51 434 -60 c 0
 444 -71 449 -87 449 -105 c 0
 449 -156 412 -194 374 -194 c 0
 358 -194 342 -187 329 -174 c 0
 308 -154 297 -121 297 -80 c 2
 297 -75 l 2xfa
EndSplineSet
Validated: 1
EndChar

StartChar: uni1F81
Encoding: 8065 8065 133
Width: 500
Flags: W
HStem: -5 58<197.5 245.5> 405 58<213 216 216 248 203 253> 515 17<249 275> 615 79<242 245 242 257>
VStem: 43 69<185.5 243> 155 17<601.5 609> 206 78 297 70 331 71 408 41<-130.5 -67> 430 41<46.5 105>
LayerCount: 2
Fore
SplineSet
155 609 m 0xfe
 157 652 190 687 229 693 c 0
 232 693 239 694 245 694 c 0
 269 691 284 677 284 654 c 0
 284 632 270 615 244 615 c 0
 218 615 196 636 206 666 c 1
 186 651 172 634 172 604 c 0
 172 556 225 532 273 532 c 0
 280 532 289 524 281 518 c 0
 279 515 278 515 272 515 c 0
 223 515 179 540 163 571 c 0
 157 585 155 594 155 609 c 0xfe
471 70 m 0xfe20
 471 23 433 -6 381 -6 c 0
 362 -5 352 4 341 27 c 1
 341 27 339 25 335 23 c 0
 306 6 268 -5 223 -5 c 0
 172 -5 144 9 115 38 c 0
 69 80 43 142 43 229 c 0
 43 257 43 262 45 275 c 0
 59 368 112 450 203 463 c 1
 216 463 l 2
 280 463 322 448 357 419 c 1
 371 435 386 450 402 464 c 1
 402 269 l 2
 403 57 402 66 408 56 c 0xfec0
 412 48 419 48 423 55 c 0
 427 61 429 73 430 96 c 0
 430 114 430 115 433 118 c 0
 437 123 446 121 455 112 c 0
 464 103 471 88 471 70 c 0xfe20
112 229 m 0
 112 129 150 53 224 53 c 0
 273 53 322 68 331 103 c 0
 332 107 332 168 332 229 c 0
 332 290 332 351 331 355 c 0
 322 386 281 405 225 405 c 0
 201 405 186 400 170 388 c 0
 134 362 112 302 112 229 c 0
297 -75 m 2xff40
 297 -50 306 -40 322 -35 c 0
 325 -35 330 -34 334 -34 c 0
 348 -35 358 -42 364 -54 c 0
 366 -59 366 -61 367 -84 c 0
 368 -109 369 -114 373 -123 c 0
 378 -133 391 -135 398 -126 c 0
 405 -119 407 -107 408 -77 c 0
 408 -57 409 -56 411 -54 c 0
 416 -48 425 -51 434 -60 c 0
 444 -71 449 -87 449 -105 c 0
 449 -156 412 -194 374 -194 c 0
 358 -194 342 -187 329 -174 c 0
 308 -154 297 -121 297 -80 c 2
 297 -75 l 2xff40
EndSplineSet
Validated: 33
EndChar

StartChar: uni1F80
Encoding: 8064 8064 134
Width: 500
Flags: W
HStem: -5 58<197.5 245.5> 405 58<213 216 216 248 203 253> 515 17<212.5 236.5 212.5 246.5> 615 78<231.5 257.5>
VStem: 43 69<185.5 243> 204 78 297 70 316 17<599.5 609 578 619> 331 71 408 41<-130.5 -67> 430 41<46.5 105>
LayerCount: 2
Fore
SplineSet
204 654 m 0xfd
 204 673 217 693 241 693 c 0
 296 693 331 655 333 609 c 0
 333 547 277 515 216 515 c 0
 209 515 199 523 207 529 c 0
 209 532 210 532 215 532 c 0
 258 532 295 552 310 579 c 0
 314 587 316 595 316 604 c 0
 316 634 302 651 282 666 c 1
 292 637 271 615 244 615 c 0
 219 615 204 632 204 654 c 0xfd
471 70 m 0xfc20
 471 23 433 -6 381 -6 c 0
 362 -5 352 4 341 27 c 1
 341 27 339 25 335 23 c 0
 306 6 268 -5 223 -5 c 0
 172 -5 144 9 115 38 c 0
 69 80 43 142 43 229 c 0
 43 257 43 262 45 275 c 0
 59 368 112 450 203 463 c 1
 216 463 l 2
 280 463 322 448 357 419 c 1
 371 435 386 450 402 464 c 1
 402 269 l 2
 403 57 402 66 408 56 c 0xfcc0
 412 48 419 48 423 55 c 0
 427 61 429 73 430 96 c 0
 430 114 430 115 433 118 c 0
 437 123 446 121 455 112 c 0
 464 103 471 88 471 70 c 0xfc20
112 229 m 0
 112 129 150 53 224 53 c 0
 273 53 322 68 331 103 c 0
 332 107 332 168 332 229 c 0
 332 290 332 351 331 355 c 0
 322 386 281 405 225 405 c 0
 201 405 186 400 170 388 c 0
 134 362 112 302 112 229 c 0
297 -75 m 2xfe40
 297 -50 306 -40 322 -35 c 0
 325 -35 330 -34 334 -34 c 0
 348 -35 358 -42 364 -54 c 0
 366 -59 366 -61 367 -84 c 0
 368 -109 369 -114 373 -123 c 0
 378 -133 391 -135 398 -126 c 0
 405 -119 407 -107 408 -77 c 0
 408 -57 409 -56 411 -54 c 0
 416 -48 425 -51 434 -60 c 0
 444 -71 449 -87 449 -105 c 0
 449 -156 412 -194 374 -194 c 0
 358 -194 342 -187 329 -174 c 0
 308 -154 297 -121 297 -80 c 2
 297 -75 l 2xfe40
EndSplineSet
Validated: 33
EndChar

StartChar: uni1F83
Encoding: 8067 8067 135
Width: 500
Flags: W
HStem: -5 58<197.5 245.5> 405 58<213 216 216 248 203 253> 515 17<195 221> 615 79<188 191 188 203>
VStem: 43 69<185.5 243> 101 17<601.5 609> 152 78 255 66 297 70 331 71 408 41<-130.5 -67> 430 41<46.5 105>
LayerCount: 2
Fore
SplineSet
255 655 m 0xf3
 243 688 280 708 306 697 c 0
 313 694 317 689 321 681 c 0
 323 676 353 517 353 509 c 0
 355 507 343 503 340 503 c 0
 339 505 256 651 255 655 c 0xf3
101 609 m 0xf6
 103 652 136 687 175 693 c 0
 178 693 185 694 191 694 c 0
 215 691 230 677 230 654 c 0
 230 632 216 615 190 615 c 0
 164 615 142 636 152 666 c 1
 132 651 118 634 118 604 c 0
 118 556 171 532 219 532 c 0
 226 532 235 524 227 518 c 0
 225 515 224 515 218 515 c 0
 169 515 125 540 109 571 c 0
 103 585 101 594 101 609 c 0xf6
471 70 m 0xf210
 471 23 433 -6 381 -6 c 0
 362 -5 352 4 341 27 c 1
 341 27 339 25 335 23 c 0
 306 6 268 -5 223 -5 c 0
 172 -5 144 9 115 38 c 0
 69 80 43 142 43 229 c 0
 43 257 43 262 45 275 c 0
 59 368 112 450 203 463 c 1
 216 463 l 2
 280 463 322 448 357 419 c 1
 371 435 386 450 402 464 c 1
 402 269 l 2
 403 57 402 66 408 56 c 0xfa60
 412 48 419 48 423 55 c 0
 427 61 429 73 430 96 c 0
 430 114 430 115 433 118 c 0
 437 123 446 121 455 112 c 0
 464 103 471 88 471 70 c 0xf210
112 229 m 0
 112 129 150 53 224 53 c 0
 273 53 322 68 331 103 c 0
 332 107 332 168 332 229 c 0
 332 290 332 351 331 355 c 0
 322 386 281 405 225 405 c 0
 201 405 186 400 170 388 c 0
 134 362 112 302 112 229 c 0
297 -75 m 2xf2a0
 297 -50 306 -40 322 -35 c 0
 325 -35 330 -34 334 -34 c 0
 348 -35 358 -42 364 -54 c 0
 366 -59 366 -61 367 -84 c 0
 368 -109 369 -114 373 -123 c 0
 378 -133 391 -135 398 -126 c 0
 405 -119 407 -107 408 -77 c 0
 408 -57 409 -56 411 -54 c 0
 416 -48 425 -51 434 -60 c 0
 444 -71 449 -87 449 -105 c 0
 449 -156 412 -194 374 -194 c 0
 358 -194 342 -187 329 -174 c 0
 308 -154 297 -121 297 -80 c 2
 297 -75 l 2xf2a0
EndSplineSet
Validated: 33
EndChar

StartChar: alphatonos
Encoding: 940 940 136
Width: 500
Flags: MW
HStem: -5 58<197.5 245.5> 405 58<213 216 216 248 203 253>
VStem: 43 69<185.5 243> 331 71 430 41<46.5 105>
LayerCount: 2
Fore
SplineSet
289 700 m 2
 307 697 324 679 318 656 c 0
 317 652 235 507 232 504 c 0
 230 502 217 507 219 509 c 0
 219 511 226 549 234 594 c 0
 250 680 250 683 257 690 c 0
 261 695 269 699 275 700 c 0
 278 700 281 701 283 700 c 2
 289 700 l 2
471 70 m 0
 471 23 433 -6 381 -6 c 0
 362 -5 352 4 341 27 c 1
 341 27 339 25 335 23 c 0
 306 6 268 -5 223 -5 c 0
 172 -5 144 9 115 38 c 0
 69 80 43 142 43 229 c 0
 43 257 43 262 45 275 c 0
 59 368 112 450 203 463 c 1
 216 463 l 2
 280 463 322 448 357 419 c 1
 371 435 386 450 402 464 c 1
 402 269 l 2
 403 57 402 66 408 56 c 0
 412 48 419 48 423 55 c 0
 427 61 429 73 430 96 c 0
 430 114 430 115 433 118 c 0
 437 123 446 121 455 112 c 0
 464 103 471 88 471 70 c 0
112 229 m 0
 112 129 150 53 224 53 c 0
 273 53 322 68 331 103 c 0
 332 107 332 168 332 229 c 0
 332 290 332 351 331 355 c 0
 322 386 281 405 225 405 c 0
 201 405 186 400 170 388 c 0
 134 362 112 302 112 229 c 0
EndSplineSet
Validated: 33
EndChar

StartChar: uni1F05
Encoding: 7941 7941 137
Width: 500
Flags: W
HStem: -5 58<197.5 245.5> 405 58<213 216 216 248 203 253> 515 17<212 238> 615 79<205 208 205 220>
VStem: 43 69<185.5 243> 118 17<601.5 609> 169 78 256 13 272 85 331 71 430 41<46.5 105>
LayerCount: 2
Fore
SplineSet
297 692 m 0xffa0
 307 702 324 703 339 695 c 0
 350 689 357 678 357 665 c 0
 357 662 357 659 356 656 c 0
 354 653 272 506 269 503 c 0
 264 505 256 507 256 510 c 0
 257 511 264 550 272 595 c 0
 288 685 288 684 297 692 c 0xffa0
118 609 m 0
 120 652 153 687 192 693 c 0
 195 693 202 694 208 694 c 0
 232 691 247 677 247 654 c 0
 247 632 233 615 207 615 c 0
 181 615 159 636 169 666 c 1
 149 651 135 634 135 604 c 0
 135 556 188 532 236 532 c 0
 243 532 252 524 244 518 c 0
 242 515 241 515 235 515 c 0
 186 515 142 540 126 571 c 0
 120 585 118 594 118 609 c 0
471 70 m 0
 471 23 433 -6 381 -6 c 0
 362 -5 352 4 341 27 c 1
 341 27 339 25 335 23 c 0
 306 6 268 -5 223 -5 c 0
 172 -5 144 9 115 38 c 0
 69 80 43 142 43 229 c 0
 43 257 43 262 45 275 c 0
 59 368 112 450 203 463 c 1
 216 463 l 2
 280 463 322 448 357 419 c 1xffa0
 371 435 386 450 402 464 c 1
 402 269 l 2xff60
 403 57 402 66 408 56 c 0
 412 48 419 48 423 55 c 0
 427 61 429 73 430 96 c 0
 430 114 430 115 433 118 c 0
 437 123 446 121 455 112 c 0
 464 103 471 88 471 70 c 0
112 229 m 0
 112 129 150 53 224 53 c 0
 273 53 322 68 331 103 c 0
 332 107 332 168 332 229 c 0
 332 290 332 351 331 355 c 0xff60
 322 386 281 405 225 405 c 0
 201 405 186 400 170 388 c 0
 134 362 112 302 112 229 c 0
EndSplineSet
Validated: 33
EndChar

StartChar: uni1F04
Encoding: 7940 7940 138
Width: 500
Flags: W
HStem: -5 58<197.5 245.5> 405 58<213 216 216 248 203 253> 515 17<130.5 154.5 130.5 164.5> 615 78<149.5 175.5>
VStem: 43 69<185.5 243> 122 78 234 17<599.5 609 578 619> 256 13 272 85 331 71 430 41<46.5 105>
LayerCount: 2
Fore
SplineSet
297 692 m 0xffa0
 307 702 324 703 339 695 c 0
 350 689 357 678 357 665 c 0
 357 662 357 659 356 656 c 0
 354 653 272 506 269 503 c 0
 264 505 256 507 256 510 c 0
 257 511 264 550 272 595 c 0
 288 685 288 684 297 692 c 0xffa0
122 654 m 0
 122 673 135 693 159 693 c 0
 214 693 249 655 251 609 c 0
 251 547 195 515 134 515 c 0
 127 515 117 523 125 529 c 0
 127 532 128 532 133 532 c 0
 176 532 213 552 228 579 c 0
 232 587 234 595 234 604 c 0
 234 634 220 651 200 666 c 1
 210 637 189 615 162 615 c 0
 137 615 122 632 122 654 c 0
471 70 m 0
 471 23 433 -6 381 -6 c 0
 362 -5 352 4 341 27 c 1
 341 27 339 25 335 23 c 0
 306 6 268 -5 223 -5 c 0
 172 -5 144 9 115 38 c 0
 69 80 43 142 43 229 c 0
 43 257 43 262 45 275 c 0
 59 368 112 450 203 463 c 1
 216 463 l 2
 280 463 322 448 357 419 c 1xffa0
 371 435 386 450 402 464 c 1
 402 269 l 2xff60
 403 57 402 66 408 56 c 0
 412 48 419 48 423 55 c 0
 427 61 429 73 430 96 c 0
 430 114 430 115 433 118 c 0
 437 123 446 121 455 112 c 0
 464 103 471 88 471 70 c 0
112 229 m 0
 112 129 150 53 224 53 c 0
 273 53 322 68 331 103 c 0
 332 107 332 168 332 229 c 0
 332 290 332 351 331 355 c 0xff60
 322 386 281 405 225 405 c 0
 201 405 186 400 170 388 c 0
 134 362 112 302 112 229 c 0
EndSplineSet
Validated: 33
EndChar

StartChar: uni1F02
Encoding: 7938 7938 139
Width: 500
Flags: W
HStem: -5 58<197.5 245.5> 405 58<213 216 216 248 203 253> 515 17<118.5 142.5 118.5 152.5> 615 78<137.5 163.5>
VStem: 43 69<185.5 243> 110 78 222 17<599.5 609 578 619> 255 66 331 71 430 41<46.5 105>
LayerCount: 2
Fore
SplineSet
255 655 m 0xf3c0
 243 688 280 708 306 697 c 0
 313 694 317 689 321 681 c 0
 323 676 353 517 353 509 c 0
 355 507 343 503 340 503 c 0
 339 505 256 651 255 655 c 0xf3c0
110 654 m 0xf7c0
 110 673 123 693 147 693 c 0
 202 693 237 655 239 609 c 0
 239 547 183 515 122 515 c 0
 115 515 105 523 113 529 c 0
 115 532 116 532 121 532 c 0
 164 532 201 552 216 579 c 0
 220 587 222 595 222 604 c 0
 222 634 208 651 188 666 c 1
 198 637 177 615 150 615 c 0
 125 615 110 632 110 654 c 0xf7c0
471 70 m 0
 471 23 433 -6 381 -6 c 0
 362 -5 352 4 341 27 c 1
 341 27 339 25 335 23 c 0
 306 6 268 -5 223 -5 c 0
 172 -5 144 9 115 38 c 0
 69 80 43 142 43 229 c 0xfbc0
 43 257 43 262 45 275 c 0
 59 368 112 450 203 463 c 1
 216 463 l 2
 280 463 322 448 357 419 c 1
 371 435 386 450 402 464 c 1
 402 269 l 2
 403 57 402 66 408 56 c 0
 412 48 419 48 423 55 c 0
 427 61 429 73 430 96 c 0
 430 114 430 115 433 118 c 0
 437 123 446 121 455 112 c 0
 464 103 471 88 471 70 c 0
112 229 m 0
 112 129 150 53 224 53 c 0
 273 53 322 68 331 103 c 0
 332 107 332 168 332 229 c 0
 332 290 332 351 331 355 c 0
 322 386 281 405 225 405 c 0
 201 405 186 400 170 388 c 0
 134 362 112 302 112 229 c 0
EndSplineSet
Validated: 33
EndChar

StartChar: uni1FB4
Encoding: 8116 8116 140
Width: 500
Flags: W
HStem: -5 58<197.5 245.5> 405 58<213 216 216 248 203 253>
VStem: 43 69<185.5 243> 297 70 331 71 408 41<-130.5 -67> 430 41<46.5 105>
LayerCount: 2
Fore
SplineSet
289 700 m 2xe0
 307 697 324 679 318 656 c 0
 317 652 235 507 232 504 c 0
 230 502 217 507 219 509 c 0
 219 511 226 549 234 594 c 0
 250 680 250 683 257 690 c 0
 261 695 269 699 275 700 c 0
 278 700 281 701 283 700 c 2
 289 700 l 2xe0
471 70 m 0xe2
 471 23 433 -6 381 -6 c 0
 362 -5 352 4 341 27 c 1
 341 27 339 25 335 23 c 0
 306 6 268 -5 223 -5 c 0
 172 -5 144 9 115 38 c 0
 69 80 43 142 43 229 c 0
 43 257 43 262 45 275 c 0
 59 368 112 450 203 463 c 1
 216 463 l 2
 280 463 322 448 357 419 c 1
 371 435 386 450 402 464 c 1
 402 269 l 2
 403 57 402 66 408 56 c 0xec
 412 48 419 48 423 55 c 0
 427 61 429 73 430 96 c 0
 430 114 430 115 433 118 c 0
 437 123 446 121 455 112 c 0
 464 103 471 88 471 70 c 0xe2
112 229 m 0
 112 129 150 53 224 53 c 0
 273 53 322 68 331 103 c 0
 332 107 332 168 332 229 c 0
 332 290 332 351 331 355 c 0
 322 386 281 405 225 405 c 0
 201 405 186 400 170 388 c 0
 134 362 112 302 112 229 c 0
297 -75 m 2xf4
 297 -50 306 -40 322 -35 c 0
 325 -35 330 -34 334 -34 c 0
 348 -35 358 -42 364 -54 c 0
 366 -59 366 -61 367 -84 c 0
 368 -109 369 -114 373 -123 c 0
 378 -133 391 -135 398 -126 c 0
 405 -119 407 -107 408 -77 c 0
 408 -57 409 -56 411 -54 c 0
 416 -48 425 -51 434 -60 c 0
 444 -71 449 -87 449 -105 c 0
 449 -156 412 -194 374 -194 c 0
 358 -194 342 -187 329 -174 c 0
 308 -154 297 -121 297 -80 c 2
 297 -75 l 2xf4
EndSplineSet
Validated: 33
EndChar

StartChar: uni1F85
Encoding: 8069 8069 141
Width: 500
Flags: W
HStem: -5 58<197.5 245.5> 405 58<213 216 216 248 203 253> 515 17<212 238> 615 79<205 208 205 220>
VStem: 43 69<185.5 243> 118 17<601.5 609> 169 78 256 13 272 85 297 70 331 71 408 41<-130.5 -67> 430 41<46.5 105>
LayerCount: 2
Fore
SplineSet
297 692 m 0xff40
 307 702 324 703 339 695 c 0
 350 689 357 678 357 665 c 0
 357 662 357 659 356 656 c 0
 354 653 272 506 269 503 c 0
 264 505 256 507 256 510 c 0
 257 511 264 550 272 595 c 0xff80
 288 685 288 684 297 692 c 0xff40
118 609 m 0
 120 652 153 687 192 693 c 0
 195 693 202 694 208 694 c 0
 232 691 247 677 247 654 c 0
 247 632 233 615 207 615 c 0
 181 615 159 636 169 666 c 1
 149 651 135 634 135 604 c 0
 135 556 188 532 236 532 c 0
 243 532 252 524 244 518 c 0
 242 515 241 515 235 515 c 0
 186 515 142 540 126 571 c 0
 120 585 118 594 118 609 c 0
471 70 m 0xff08
 471 23 433 -6 381 -6 c 0
 362 -5 352 4 341 27 c 1
 341 27 339 25 335 23 c 0
 306 6 268 -5 223 -5 c 0
 172 -5 144 9 115 38 c 0
 69 80 43 142 43 229 c 0
 43 257 43 262 45 275 c 0
 59 368 112 450 203 463 c 1
 216 463 l 2
 280 463 322 448 357 419 c 1xff88
 371 435 386 450 402 464 c 1
 402 269 l 2
 403 57 402 66 408 56 c 0xff30
 412 48 419 48 423 55 c 0
 427 61 429 73 430 96 c 0
 430 114 430 115 433 118 c 0
 437 123 446 121 455 112 c 0
 464 103 471 88 471 70 c 0xff08
112 229 m 0
 112 129 150 53 224 53 c 0
 273 53 322 68 331 103 c 0
 332 107 332 168 332 229 c 0
 332 290 332 351 331 355 c 0xff20
 322 386 281 405 225 405 c 0
 201 405 186 400 170 388 c 0
 134 362 112 302 112 229 c 0
297 -75 m 2xff50
 297 -50 306 -40 322 -35 c 0
 325 -35 330 -34 334 -34 c 0
 348 -35 358 -42 364 -54 c 0
 366 -59 366 -61 367 -84 c 0
 368 -109 369 -114 373 -123 c 0
 378 -133 391 -135 398 -126 c 0
 405 -119 407 -107 408 -77 c 0
 408 -57 409 -56 411 -54 c 0
 416 -48 425 -51 434 -60 c 0
 444 -71 449 -87 449 -105 c 0
 449 -156 412 -194 374 -194 c 0
 358 -194 342 -187 329 -174 c 0
 308 -154 297 -121 297 -80 c 2
 297 -75 l 2xff50
EndSplineSet
Validated: 33
EndChar

StartChar: uni1F84
Encoding: 8068 8068 142
Width: 500
Flags: W
HStem: -5 58<197.5 245.5> 405 58<213 216 216 248 203 253> 515 17<130.5 154.5 130.5 164.5> 615 78<149.5 175.5>
VStem: 43 69<185.5 243> 122 78 234 17<599.5 609 578 619> 256 13 272 85 297 70 331 71 408 41<-130.5 -67> 430 41<46.5 105>
LayerCount: 2
Fore
SplineSet
297 692 m 0xff40
 307 702 324 703 339 695 c 0
 350 689 357 678 357 665 c 0
 357 662 357 659 356 656 c 0
 354 653 272 506 269 503 c 0
 264 505 256 507 256 510 c 0
 257 511 264 550 272 595 c 0xff80
 288 685 288 684 297 692 c 0xff40
122 654 m 0
 122 673 135 693 159 693 c 0
 214 693 249 655 251 609 c 0
 251 547 195 515 134 515 c 0
 127 515 117 523 125 529 c 0
 127 532 128 532 133 532 c 0
 176 532 213 552 228 579 c 0
 232 587 234 595 234 604 c 0
 234 634 220 651 200 666 c 1
 210 637 189 615 162 615 c 0
 137 615 122 632 122 654 c 0
471 70 m 0xff08
 471 23 433 -6 381 -6 c 0
 362 -5 352 4 341 27 c 1
 341 27 339 25 335 23 c 0
 306 6 268 -5 223 -5 c 0
 172 -5 144 9 115 38 c 0
 69 80 43 142 43 229 c 0
 43 257 43 262 45 275 c 0
 59 368 112 450 203 463 c 1
 216 463 l 2
 280 463 322 448 357 419 c 1xff88
 371 435 386 450 402 464 c 1
 402 269 l 2
 403 57 402 66 408 56 c 0xff30
 412 48 419 48 423 55 c 0
 427 61 429 73 430 96 c 0
 430 114 430 115 433 118 c 0
 437 123 446 121 455 112 c 0
 464 103 471 88 471 70 c 0xff08
112 229 m 0
 112 129 150 53 224 53 c 0
 273 53 322 68 331 103 c 0
 332 107 332 168 332 229 c 0
 332 290 332 351 331 355 c 0xff20
 322 386 281 405 225 405 c 0
 201 405 186 400 170 388 c 0
 134 362 112 302 112 229 c 0
297 -75 m 2xff50
 297 -50 306 -40 322 -35 c 0
 325 -35 330 -34 334 -34 c 0
 348 -35 358 -42 364 -54 c 0
 366 -59 366 -61 367 -84 c 0
 368 -109 369 -114 373 -123 c 0
 378 -133 391 -135 398 -126 c 0
 405 -119 407 -107 408 -77 c 0
 408 -57 409 -56 411 -54 c 0
 416 -48 425 -51 434 -60 c 0
 444 -71 449 -87 449 -105 c 0
 449 -156 412 -194 374 -194 c 0
 358 -194 342 -187 329 -174 c 0
 308 -154 297 -121 297 -80 c 2
 297 -75 l 2xff50
EndSplineSet
Validated: 33
EndChar

StartChar: uni1F82
Encoding: 8066 8066 143
Width: 500
Flags: W
HStem: -5 58<197.5 245.5> 405 58<213 216 216 248 203 253> 515 17<118.5 142.5 118.5 152.5> 615 78<137.5 163.5>
VStem: 43 69<185.5 243> 110 78 222 17<599.5 609 578 619> 255 66 297 70 331 71 408 41<-130.5 -67> 430 41<46.5 105>
LayerCount: 2
Fore
SplineSet
255 655 m 0xf3
 243 688 280 708 306 697 c 0
 313 694 317 689 321 681 c 0
 323 676 353 517 353 509 c 0
 355 507 343 503 340 503 c 0
 339 505 256 651 255 655 c 0xf3
110 654 m 0xf6
 110 673 123 693 147 693 c 0
 202 693 237 655 239 609 c 0
 239 547 183 515 122 515 c 0
 115 515 105 523 113 529 c 0
 115 532 116 532 121 532 c 0
 164 532 201 552 216 579 c 0
 220 587 222 595 222 604 c 0
 222 634 208 651 188 666 c 1
 198 637 177 615 150 615 c 0
 125 615 110 632 110 654 c 0xf6
471 70 m 0xf210
 471 23 433 -6 381 -6 c 0
 362 -5 352 4 341 27 c 1
 341 27 339 25 335 23 c 0
 306 6 268 -5 223 -5 c 0
 172 -5 144 9 115 38 c 0
 69 80 43 142 43 229 c 0
 43 257 43 262 45 275 c 0
 59 368 112 450 203 463 c 1
 216 463 l 2
 280 463 322 448 357 419 c 1
 371 435 386 450 402 464 c 1
 402 269 l 2
 403 57 402 66 408 56 c 0xfa60
 412 48 419 48 423 55 c 0
 427 61 429 73 430 96 c 0
 430 114 430 115 433 118 c 0
 437 123 446 121 455 112 c 0
 464 103 471 88 471 70 c 0xf210
112 229 m 0
 112 129 150 53 224 53 c 0
 273 53 322 68 331 103 c 0
 332 107 332 168 332 229 c 0
 332 290 332 351 331 355 c 0
 322 386 281 405 225 405 c 0
 201 405 186 400 170 388 c 0
 134 362 112 302 112 229 c 0
297 -75 m 2xf2a0
 297 -50 306 -40 322 -35 c 0
 325 -35 330 -34 334 -34 c 0
 348 -35 358 -42 364 -54 c 0
 366 -59 366 -61 367 -84 c 0
 368 -109 369 -114 373 -123 c 0
 378 -133 391 -135 398 -126 c 0
 405 -119 407 -107 408 -77 c 0
 408 -57 409 -56 411 -54 c 0
 416 -48 425 -51 434 -60 c 0
 444 -71 449 -87 449 -105 c 0
 449 -156 412 -194 374 -194 c 0
 358 -194 342 -187 329 -174 c 0
 308 -154 297 -121 297 -80 c 2
 297 -75 l 2xf2a0
EndSplineSet
Validated: 33
EndChar

StartChar: uni1FB6
Encoding: 8118 8118 144
Width: 500
Flags: W
HStem: -5 58<197.5 245.5> 405 58<213 216 216 248 203 253> 542 59<304 318.5 304 336.5> 566 58<167.5 174 156 182.5>
VStem: 43 69<185.5 243> 331 71 346 64<612 617 612 617.5> 430 41<46.5 105>
LayerCount: 2
Fore
SplineSet
141 551 m 0xdb
 141 546 138 545 136 542 c 2
 83 542 l 1xeb
 65 560 92 594 107 605 c 0
 121 615 144 624 168 624 c 0xdb
 180 624 197 623 205 622 c 0
 210 622 229 617 248 612 c 0
 280 604 297 601 311 601 c 0
 326 601 346 607 346 616 c 0
 346 619 350 623 352 625 c 2
 405 625 l 1
 408 620 410 622 410 612 c 0
 408 569 361 542 312 542 c 0xeb
 292 542 232 556 206 563 c 0
 196 565 187 566 178 566 c 0
 157 566 141 560 141 551 c 0xdb
471 70 m 0
 471 23 433 -6 381 -6 c 0
 362 -5 352 4 341 27 c 1
 341 27 339 25 335 23 c 0
 306 6 268 -5 223 -5 c 0
 172 -5 144 9 115 38 c 0
 69 80 43 142 43 229 c 0
 43 257 43 262 45 275 c 0
 59 368 112 450 203 463 c 1
 216 463 l 2
 280 463 322 448 357 419 c 1
 371 435 386 450 402 464 c 1
 402 269 l 2xcd
 403 57 402 66 408 56 c 0
 412 48 419 48 423 55 c 0
 427 61 429 73 430 96 c 0
 430 114 430 115 433 118 c 0
 437 123 446 121 455 112 c 0
 464 103 471 88 471 70 c 0
112 229 m 0
 112 129 150 53 224 53 c 0
 273 53 322 68 331 103 c 0
 332 107 332 168 332 229 c 0
 332 290 332 351 331 355 c 0
 322 386 281 405 225 405 c 0
 201 405 186 400 170 388 c 0
 134 362 112 302 112 229 c 0
EndSplineSet
Validated: 33
EndChar

StartChar: uni1F07
Encoding: 7943 7943 145
Width: 500
Flags: W
HStem: -5 58<197.5 245.5> 405 58<213 216 216 248 203 253> 504 17<260 264> 536 63<236 251> 602 59<309.5 322 305 336> 634 60<166.5 184.5>
VStem: 43 69<185.5 243> 77 62<610 612 609 637.5> 196 17<541.5 553 553 558 541.5 563> 331 71 348 62<678.5 686.5> 430 41<46.5 105>
LayerCount: 2
Fore
SplineSet
83 602 m 2xf9b0
 80 605 77 607 77 613 c 0
 77 662 127 694 177 694 c 0xf5b0
 196 694 217 689 247 678 c 0
 281 666 298 661 312 661 c 0xf9b0
 332 661 348 672 348 685 c 0
 348 688 352 692 354 694 c 2
 405 694 l 1xf5b0
 408 690 410 690 410 683 c 0
 410 633 360 602 312 602 c 0xf9b0
 307 602 302 602 297 603 c 0
 279 605 270 608 223 624 c 0
 199 633 192 634 177 634 c 0xf5b0
 156 634 141 626 139 612 c 0
 139 606 136 605 134 602 c 2
 83 602 l 2xf9b0
196 551 m 0
 196 575 215 599 244 599 c 0
 261 599 275 587 275 568 c 0
 275 548 259 536 243 536 c 0
 229 536 219 545 213 558 c 1
 213 553 l 2
 213 530 236 524 260 521 c 0
 270 521 282 515 272 507 c 0
 270 504 269 504 259 504 c 0
 223 506 196 524 196 551 c 0
471 70 m 0
 471 23 433 -6 381 -6 c 0
 362 -5 352 4 341 27 c 1
 341 27 339 25 335 23 c 0
 306 6 268 -5 223 -5 c 0
 172 -5 144 9 115 38 c 0
 69 80 43 142 43 229 c 0
 43 257 43 262 45 275 c 0
 59 368 112 450 203 463 c 1
 216 463 l 2
 280 463 322 448 357 419 c 1
 371 435 386 450 402 464 c 1
 402 269 l 2xf2d0
 403 57 402 66 408 56 c 0
 412 48 419 48 423 55 c 0
 427 61 429 73 430 96 c 0
 430 114 430 115 433 118 c 0
 437 123 446 121 455 112 c 0
 464 103 471 88 471 70 c 0
112 229 m 0
 112 129 150 53 224 53 c 0
 273 53 322 68 331 103 c 0
 332 107 332 168 332 229 c 0
 332 290 332 351 331 355 c 0
 322 386 281 405 225 405 c 0
 201 405 186 400 170 388 c 0
 134 362 112 302 112 229 c 0
EndSplineSet
Validated: 1
EndChar

StartChar: uni1F06
Encoding: 7942 7942 146
Width: 500
Flags: W
HStem: -5 58<197.5 245.5> 405 58<213 216 216 248 203 253> 504 17<218 227 218 228 218 227> 536 63<236 251> 602 59<309.5 322 305 336> 634 60<166.5 184.5>
VStem: 43 69<185.5 243> 77 62<610 612 609 637.5> 274 17<553 558 558 558> 331 71 348 62<678.5 686.5> 430 41<46.5 105>
LayerCount: 2
Fore
SplineSet
83 602 m 2xf9b0
 80 605 77 607 77 613 c 0
 77 662 127 694 177 694 c 0xf5b0
 196 694 217 689 247 678 c 0
 281 666 298 661 312 661 c 0xf9b0
 332 661 348 672 348 685 c 0
 348 688 352 692 354 694 c 2
 405 694 l 1xf5b0
 408 690 410 690 410 683 c 0
 410 633 360 602 312 602 c 0xf9b0
 307 602 302 602 297 603 c 0
 279 605 270 608 223 624 c 0
 199 633 192 634 177 634 c 0xf5b0
 156 634 141 626 139 612 c 0
 139 606 136 605 134 602 c 2
 83 602 l 2xf9b0
213 568 m 0
 213 588 226 599 245 599 c 0
 270 599 291 576 291 552 c 0
 291 521 261 506 228 504 c 2
 218 504 l 1
 210 512 209 521 227 521 c 0
 251 524 274 530 274 553 c 2
 274 558 l 1
 268 545 258 536 244 536 c 0
 228 536 213 547 213 568 c 0
471 70 m 0
 471 23 433 -6 381 -6 c 0
 362 -5 352 4 341 27 c 1
 341 27 339 25 335 23 c 0
 306 6 268 -5 223 -5 c 0
 172 -5 144 9 115 38 c 0
 69 80 43 142 43 229 c 0
 43 257 43 262 45 275 c 0
 59 368 112 450 203 463 c 1
 216 463 l 2
 280 463 322 448 357 419 c 1
 371 435 386 450 402 464 c 1
 402 269 l 2xf2d0
 403 57 402 66 408 56 c 0
 412 48 419 48 423 55 c 0
 427 61 429 73 430 96 c 0
 430 114 430 115 433 118 c 0
 437 123 446 121 455 112 c 0
 464 103 471 88 471 70 c 0
112 229 m 0
 112 129 150 53 224 53 c 0
 273 53 322 68 331 103 c 0
 332 107 332 168 332 229 c 0
 332 290 332 351 331 355 c 0
 322 386 281 405 225 405 c 0
 201 405 186 400 170 388 c 0
 134 362 112 302 112 229 c 0
EndSplineSet
Validated: 1
EndChar

StartChar: uni03DD
Encoding: 989 989 147
Width: 500
Flags: MW
HStem: -194 59<36 103 173 256 36 103> 101 59<173 214 173 214> 396 59<36 103 36 435 173 241 173 173>
VStem: 103 70<-135 101 160 396> 304 59<4 37 37 37 224 257 4 257> 398 59<279 279.5>
LayerCount: 2
Fore
SplineSet
435 451 m 2
 435 450 457 284 457 283 c 2
 457 279 l 1
 398 279 l 1
 398 280 397 290 395 303 c 0
 389 346 384 374 379 384 c 0
 377 388 376 389 371 390 c 0
 358 395 327 396 241 396 c 2
 173 396 l 1
 173 160 l 1
 214 160 l 2
 265 160 287 161 296 165 c 0
 301 167 303 178 304 224 c 2
 304 257 l 1
 363 257 l 1
 363 4 l 1
 304 4 l 1
 304 37 l 2
 303 83 301 94 296 96 c 0
 287 100 265 101 214 101 c 2
 173 101 l 1
 173 -135 l 1
 256 -135 l 1
 256 -194 l 1
 36 -194 l 1
 36 -135 l 1
 103 -135 l 1
 103 396 l 1
 36 396 l 1
 36 455 l 1
 435 455 l 1
 435 451 l 2
EndSplineSet
Validated: 1
EndChar

StartChar: uni1FB7
Encoding: 8119 8119 148
Width: 500
Flags: W
HStem: -5 58<197.5 245.5> 405 58<213 216 216 248 203 253> 542 59<304 318.5 304 336.5> 566 58<167.5 174 156 182.5>
VStem: 43 69<185.5 243> 297 70 331 71 346 64<612 617 612 617.5> 408 41<-130.5 -67> 430 41<46.5 105>
LayerCount: 2
Fore
SplineSet
141 551 m 0xd9
 141 546 138 545 136 542 c 2
 83 542 l 1xe9
 65 560 92 594 107 605 c 0
 121 615 144 624 168 624 c 0xd9
 180 624 197 623 205 622 c 0
 210 622 229 617 248 612 c 0
 280 604 297 601 311 601 c 0
 326 601 346 607 346 616 c 0
 346 619 350 623 352 625 c 2
 405 625 l 1
 408 620 410 622 410 612 c 0
 408 569 361 542 312 542 c 0xe9
 292 542 232 556 206 563 c 0
 196 565 187 566 178 566 c 0
 157 566 141 560 141 551 c 0xd9
471 70 m 0xc840
 471 23 433 -6 381 -6 c 0
 362 -5 352 4 341 27 c 1
 341 27 339 25 335 23 c 0
 306 6 268 -5 223 -5 c 0
 172 -5 144 9 115 38 c 0
 69 80 43 142 43 229 c 0
 43 257 43 262 45 275 c 0
 59 368 112 450 203 463 c 1
 216 463 l 2
 280 463 322 448 357 419 c 1
 371 435 386 450 402 464 c 1
 402 269 l 2
 403 57 402 66 408 56 c 0xca80
 412 48 419 48 423 55 c 0
 427 61 429 73 430 96 c 0
 430 114 430 115 433 118 c 0
 437 123 446 121 455 112 c 0
 464 103 471 88 471 70 c 0xc840
112 229 m 0
 112 129 150 53 224 53 c 0
 273 53 322 68 331 103 c 0
 332 107 332 168 332 229 c 0
 332 290 332 351 331 355 c 0
 322 386 281 405 225 405 c 0
 201 405 186 400 170 388 c 0
 134 362 112 302 112 229 c 0
297 -75 m 2xcc80
 297 -50 306 -40 322 -35 c 0
 325 -35 330 -34 334 -34 c 0
 348 -35 358 -42 364 -54 c 0
 366 -59 366 -61 367 -84 c 0
 368 -109 369 -114 373 -123 c 0
 378 -133 391 -135 398 -126 c 0
 405 -119 407 -107 408 -77 c 0
 408 -57 409 -56 411 -54 c 0
 416 -48 425 -51 434 -60 c 0
 444 -71 449 -87 449 -105 c 0
 449 -156 412 -194 374 -194 c 0
 358 -194 342 -187 329 -174 c 0
 308 -154 297 -121 297 -80 c 2
 297 -75 l 2xcc80
EndSplineSet
Validated: 33
EndChar

StartChar: uni1F87
Encoding: 8071 8071 149
Width: 500
Flags: W
HStem: -5 58<197.5 245.5> 405 58<213 216 216 248 203 253> 504 17<260 264> 536 63<236 251> 602 59<309.5 322 305 336> 634 60<166.5 184.5>
VStem: 43 69<185.5 243> 77 62<610 612 609 637.5> 196 17<541.5 553 553 558 541.5 563> 297 70 331 71 348 62<678.5 686.5> 408 41<-130.5 -67> 430 41<46.5 105>
LayerCount: 2
Fore
SplineSet
83 602 m 2xf9c0
 80 605 77 607 77 613 c 0
 77 662 127 694 177 694 c 0xf5c0
 196 694 217 689 247 678 c 0
 281 666 298 661 312 661 c 0xf9c0
 332 661 348 672 348 685 c 0
 348 688 352 692 354 694 c 2
 405 694 l 1xf590
 408 690 410 690 410 683 c 0
 410 633 360 602 312 602 c 0xf990
 307 602 302 602 297 603 c 0
 279 605 270 608 223 624 c 0
 199 633 192 634 177 634 c 0xf4c0
 156 634 141 626 139 612 c 0
 139 606 136 605 134 602 c 2
 83 602 l 2xf9c0
196 551 m 0
 196 575 215 599 244 599 c 0
 261 599 275 587 275 568 c 0
 275 548 259 536 243 536 c 0
 229 536 219 545 213 558 c 1
 213 553 l 2
 213 530 236 524 260 521 c 0
 270 521 282 515 272 507 c 0
 270 504 269 504 259 504 c 0
 223 506 196 524 196 551 c 0
471 70 m 0xf084
 471 23 433 -6 381 -6 c 0
 362 -5 352 4 341 27 c 1
 341 27 339 25 335 23 c 0
 306 6 268 -5 223 -5 c 0
 172 -5 144 9 115 38 c 0
 69 80 43 142 43 229 c 0
 43 257 43 262 45 275 c 0
 59 368 112 450 203 463 c 1
 216 463 l 2
 280 463 322 448 357 419 c 1
 371 435 386 450 402 464 c 1
 402 269 l 2
 403 57 402 66 408 56 c 0xf2a8
 412 48 419 48 423 55 c 0
 427 61 429 73 430 96 c 0
 430 114 430 115 433 118 c 0
 437 123 446 121 455 112 c 0
 464 103 471 88 471 70 c 0xf084
112 229 m 0
 112 129 150 53 224 53 c 0
 273 53 322 68 331 103 c 0
 332 107 332 168 332 229 c 0
 332 290 332 351 331 355 c 0
 322 386 281 405 225 405 c 0
 201 405 186 400 170 388 c 0
 134 362 112 302 112 229 c 0
297 -75 m 2xf0c8
 297 -50 306 -40 322 -35 c 0
 325 -35 330 -34 334 -34 c 0
 348 -35 358 -42 364 -54 c 0
 366 -59 366 -61 367 -84 c 0
 368 -109 369 -114 373 -123 c 0
 378 -133 391 -135 398 -126 c 0
 405 -119 407 -107 408 -77 c 0
 408 -57 409 -56 411 -54 c 0
 416 -48 425 -51 434 -60 c 0
 444 -71 449 -87 449 -105 c 0
 449 -156 412 -194 374 -194 c 0
 358 -194 342 -187 329 -174 c 0
 308 -154 297 -121 297 -80 c 2
 297 -75 l 2xf0c8
EndSplineSet
Validated: 1
EndChar

StartChar: uni1F86
Encoding: 8070 8070 150
Width: 500
Flags: W
HStem: -5 58<197.5 245.5> 405 58<213 216 216 248 203 253> 504 17<218 227 218 228 218 227> 536 63<236 251> 602 59<309.5 322 305 336> 634 60<166.5 184.5>
VStem: 43 69<185.5 243> 77 62<610 612 609 637.5> 274 17<553 558 558 558> 297 70 331 71 348 62<678.5 686.5> 408 41<-130.5 -67> 430 41<46.5 105>
LayerCount: 2
Fore
SplineSet
83 602 m 2xf9c0
 80 605 77 607 77 613 c 0
 77 662 127 694 177 694 c 0xf5c0
 196 694 217 689 247 678 c 0
 281 666 298 661 312 661 c 0xf9c0
 332 661 348 672 348 685 c 0
 348 688 352 692 354 694 c 2
 405 694 l 1xf590
 408 690 410 690 410 683 c 0
 410 633 360 602 312 602 c 0xf990
 307 602 302 602 297 603 c 0
 279 605 270 608 223 624 c 0
 199 633 192 634 177 634 c 0xf4c0
 156 634 141 626 139 612 c 0
 139 606 136 605 134 602 c 2
 83 602 l 2xf9c0
213 568 m 0
 213 588 226 599 245 599 c 0
 270 599 291 576 291 552 c 0
 291 521 261 506 228 504 c 2
 218 504 l 1
 210 512 209 521 227 521 c 0
 251 524 274 530 274 553 c 2
 274 558 l 1
 268 545 258 536 244 536 c 0
 228 536 213 547 213 568 c 0
471 70 m 0xf084
 471 23 433 -6 381 -6 c 0
 362 -5 352 4 341 27 c 1
 341 27 339 25 335 23 c 0
 306 6 268 -5 223 -5 c 0
 172 -5 144 9 115 38 c 0
 69 80 43 142 43 229 c 0
 43 257 43 262 45 275 c 0
 59 368 112 450 203 463 c 1
 216 463 l 2
 280 463 322 448 357 419 c 1
 371 435 386 450 402 464 c 1
 402 269 l 2
 403 57 402 66 408 56 c 0xf2a8
 412 48 419 48 423 55 c 0
 427 61 429 73 430 96 c 0
 430 114 430 115 433 118 c 0
 437 123 446 121 455 112 c 0
 464 103 471 88 471 70 c 0xf084
112 229 m 0
 112 129 150 53 224 53 c 0
 273 53 322 68 331 103 c 0
 332 107 332 168 332 229 c 0
 332 290 332 351 331 355 c 0
 322 386 281 405 225 405 c 0
 201 405 186 400 170 388 c 0
 134 362 112 302 112 229 c 0
297 -75 m 2xf0c8
 297 -50 306 -40 322 -35 c 0
 325 -35 330 -34 334 -34 c 0
 348 -35 358 -42 364 -54 c 0
 366 -59 366 -61 367 -84 c 0
 368 -109 369 -114 373 -123 c 0
 378 -133 391 -135 398 -126 c 0
 405 -119 407 -107 408 -77 c 0
 408 -57 409 -56 411 -54 c 0
 416 -48 425 -51 434 -60 c 0
 444 -71 449 -87 449 -105 c 0
 449 -156 412 -194 374 -194 c 0
 358 -194 342 -187 329 -174 c 0
 308 -154 297 -121 297 -80 c 2
 297 -75 l 2xf0c8
EndSplineSet
Validated: 1
EndChar

StartChar: uni0020035D
Encoding: 1114121 -1 151
Width: 667
Flags: MW
HStem: 516 64<318 348 318 367.5> 674 20G<1 59 59 59 607 666 666 666>
LayerCount: 2
Fore
SplineSet
18 677 m 2
 1 694 l 1
 59 694 l 1
 70 684 l 2
 122 634 194 598 266 585 c 0
 291 581 303 580 333 580 c 0
 363 580 375 581 401 585 c 0
 472 598 544 634 596 684 c 2
 607 694 l 1
 666 694 l 1
 649 677 l 2
 612 641 574 610 537 585 c 0
 468 539 401 516 334 516 c 0
 285 516 235 528 185 553 c 0
 131 579 74 621 18 677 c 2
EndSplineSet
Validated: 1
EndChar

StartChar: uni1F74
Encoding: 8052 8052 152
Width: 500
Flags: MW
HStem: -194 59<303 370 440 506 303 370> 0 59<21 87 157 224 21 87> 399 59<21 87 21 146>
VStem: 87 70<59 180 59 399> 370 70<-135 82 -135 87 -135 87>
LayerCount: 2
Fore
SplineSet
223 696 m 0
 248 709 270 693 274 671 c 0
 276 663 304 510 304 508 c 0
 304 506 292 503 291 504 c 0
 289 506 205 655 204 657 c 0
 203 660 203 662 203 665 c 0
 203 678 211 689 223 696 c 0
146 458 m 1
 155 452 157 452 157 430 c 2
 157 413 l 1
 167 422 l 2
 193 443 223 459 262 463 c 0
 264 464 273 464 283 463 c 0
 302 463 312 461 329 455 c 0
 390 434 433 377 439 309 c 0
 440 302 440 221 440 82 c 2
 440 -135 l 1
 506 -135 l 1
 506 -194 l 1
 303 -194 l 1
 303 -135 l 1
 370 -135 l 1
 370 87 l 1
 369 309 l 1
 367 319 l 2
 358 357 334 386 303 396 c 0
 297 398 292 398 282 399 c 0
 261 399 247 397 229 388 c 0
 198 373 170 341 159 307 c 0
 157 302 157 298 157 180 c 2
 157 59 l 1
 224 59 l 1
 224 0 l 1
 21 0 l 1
 21 59 l 1
 87 59 l 1
 87 399 l 1
 21 399 l 1
 21 458 l 1
 146 458 l 1
EndSplineSet
Validated: 33
EndChar

StartChar: uni1F21
Encoding: 7969 7969 153
Width: 500
Flags: MW
HStem: -194 59<303 370 440 506 303 370> 0 59<21 87 157 224 21 87> 399 59<21 87 21 146> 515 17<284 310.5> 615 79<277 280 277 292>
VStem: 87 70<59 180 59 399> 190 17<601.5 609> 241 78 370 70<-135 82 -135 87 -135 87>
LayerCount: 2
Fore
SplineSet
190 609 m 0
 192 652 225 687 264 693 c 0
 267 693 274 694 280 694 c 0
 304 691 319 677 319 654 c 0
 319 632 305 615 279 615 c 0
 253 615 231 636 241 666 c 1
 221 651 207 634 207 604 c 0
 207 556 260 532 308 532 c 0
 314 532 319 529 319 524 c 0
 319 517 314 515 307 515 c 0
 258 515 214 540 198 571 c 0
 192 585 190 594 190 609 c 0
146 458 m 1
 155 452 157 452 157 430 c 2
 157 413 l 1
 167 422 l 2
 193 443 223 459 262 463 c 0
 264 464 273 464 283 463 c 0
 302 463 312 461 329 455 c 0
 390 434 433 377 439 309 c 0
 440 302 440 221 440 82 c 2
 440 -135 l 1
 506 -135 l 1
 506 -194 l 1
 303 -194 l 1
 303 -135 l 1
 370 -135 l 1
 370 87 l 1
 369 309 l 1
 367 319 l 2
 358 357 334 386 303 396 c 0
 297 398 292 398 282 399 c 0
 261 399 247 397 229 388 c 0
 198 373 170 341 159 307 c 0
 157 302 157 298 157 180 c 2
 157 59 l 1
 224 59 l 1
 224 0 l 1
 21 0 l 1
 21 59 l 1
 87 59 l 1
 87 399 l 1
 21 399 l 1
 21 458 l 1
 146 458 l 1
EndSplineSet
Validated: 33
EndChar

StartChar: uni1F20
Encoding: 7968 7968 154
Width: 500
Flags: MW
HStem: -194 59<303 370 440 506 303 370> 0 59<21 87 157 224 21 87> 399 59<21 87 21 146> 515 17<247.5 271.5 247.5 281.5> 615 78<266.5 292.5>
VStem: 87 70<59 180 59 399> 239 78 351 17<599.5 609 578 619> 370 70<-135 82 -135 87 -135 87>
LayerCount: 2
Fore
SplineSet
239 654 m 0
 239 673 252 693 276 693 c 0
 331 693 366 655 368 609 c 0
 368 547 312 515 251 515 c 0
 244 515 234 523 242 529 c 0
 244 532 245 532 250 532 c 0
 293 532 330 552 345 579 c 0
 349 587 351 595 351 604 c 0
 351 634 337 651 317 666 c 1
 327 637 306 615 279 615 c 0
 254 615 239 632 239 654 c 0
146 458 m 1
 155 452 157 452 157 430 c 2
 157 413 l 1
 167 422 l 2
 193 443 223 459 262 463 c 0
 264 464 273 464 283 463 c 0
 302 463 312 461 329 455 c 0
 390 434 433 377 439 309 c 0
 440 302 440 221 440 82 c 2
 440 -135 l 1
 506 -135 l 1
 506 -194 l 1
 303 -194 l 1
 303 -135 l 1
 370 -135 l 1
 370 87 l 1
 369 309 l 1
 367 319 l 2
 358 357 334 386 303 396 c 0
 297 398 292 398 282 399 c 0
 261 399 247 397 229 388 c 0
 198 373 170 341 159 307 c 0
 157 302 157 298 157 180 c 2
 157 59 l 1
 224 59 l 1
 224 0 l 1
 21 0 l 1
 21 59 l 1
 87 59 l 1
 87 399 l 1
 21 399 l 1
 21 458 l 1
 146 458 l 1
EndSplineSet
Validated: 33
EndChar

StartChar: uni1FC2
Encoding: 8130 8130 155
Width: 500
Flags: MW
HStem: -194 59<303 370 440 506 303 370> 0 59<21 87 157 224 21 87> 399 59<21 87 21 146>
VStem: 87 70<59 180 59 399> 198 41<-130.5 -67> 370 70<-135 82 -135 87 -135 87>
LayerCount: 2
Fore
SplineSet
223 696 m 0
 248 709 270 693 274 671 c 0
 276 663 304 510 304 508 c 0
 304 506 292 503 291 504 c 0
 289 506 205 655 204 657 c 0
 203 660 203 662 203 665 c 0
 203 678 211 689 223 696 c 0
146 458 m 1
 155 452 157 452 157 430 c 2
 157 413 l 1
 167 422 l 2
 193 443 223 459 262 463 c 0
 264 464 273 464 283 463 c 0
 302 463 312 461 329 455 c 0
 390 434 433 377 439 309 c 0
 440 302 440 221 440 82 c 2
 440 -135 l 1
 506 -135 l 1
 506 -194 l 1
 303 -194 l 1
 303 -135 l 1
 370 -135 l 1
 370 87 l 1
 369 309 l 1
 367 319 l 2
 358 357 334 386 303 396 c 0
 297 398 292 398 282 399 c 0
 261 399 247 397 229 388 c 0
 198 373 170 341 159 307 c 0
 157 302 157 298 157 180 c 2
 157 59 l 1
 224 59 l 1
 224 0 l 1
 21 0 l 1
 21 59 l 1
 87 59 l 1
 87 399 l 1
 21 399 l 1
 21 458 l 1
 146 458 l 1
87 -75 m 2
 87 -50 96 -40 112 -35 c 0
 115 -35 120 -34 124 -34 c 0
 138 -35 148 -42 154 -54 c 0
 156 -59 156 -61 157 -84 c 0
 158 -109 159 -114 163 -123 c 0
 168 -133 181 -135 188 -126 c 0
 195 -119 197 -107 198 -77 c 0
 198 -57 199 -56 201 -54 c 0
 206 -48 215 -51 224 -60 c 0
 234 -71 239 -87 239 -105 c 0
 239 -156 202 -194 164 -194 c 0
 148 -194 132 -187 119 -174 c 0
 98 -154 87 -121 87 -80 c 2
 87 -75 l 2
EndSplineSet
Validated: 33
EndChar

StartChar: uni1F91
Encoding: 8081 8081 156
Width: 500
Flags: W
HStem: -194 59<303 370 440 506 303 370> 0 59<21 87 157 224 21 87> 399 59<21 87 21 146> 515 17<284 310.5> 615 79<277 280 277 292>
VStem: 87 70<59 180 59 399> 190 17<601.5 609> 198 41<-130.5 -67> 241 78 370 70<-135 82 -135 87 -135 87>
LayerCount: 2
Fore
SplineSet
190 609 m 0xfec0
 192 652 225 687 264 693 c 0
 267 693 274 694 280 694 c 0
 304 691 319 677 319 654 c 0
 319 632 305 615 279 615 c 0
 253 615 231 636 241 666 c 1
 221 651 207 634 207 604 c 0xfec0
 207 556 260 532 308 532 c 0
 314 532 319 529 319 524 c 0
 319 517 314 515 307 515 c 0
 258 515 214 540 198 571 c 0xfdc0
 192 585 190 594 190 609 c 0xfec0
146 458 m 1
 155 452 157 452 157 430 c 2
 157 413 l 1
 167 422 l 2
 193 443 223 459 262 463 c 0
 264 464 273 464 283 463 c 0
 302 463 312 461 329 455 c 0
 390 434 433 377 439 309 c 0
 440 302 440 221 440 82 c 2
 440 -135 l 1
 506 -135 l 1
 506 -194 l 1
 303 -194 l 1
 303 -135 l 1
 370 -135 l 1
 370 87 l 1
 369 309 l 1
 367 319 l 2
 358 357 334 386 303 396 c 0
 297 398 292 398 282 399 c 0
 261 399 247 397 229 388 c 0
 198 373 170 341 159 307 c 0
 157 302 157 298 157 180 c 2
 157 59 l 1
 224 59 l 1
 224 0 l 1
 21 0 l 1
 21 59 l 1
 87 59 l 1
 87 399 l 1
 21 399 l 1
 21 458 l 1
 146 458 l 1
87 -75 m 2
 87 -50 96 -40 112 -35 c 0
 115 -35 120 -34 124 -34 c 0
 138 -35 148 -42 154 -54 c 0
 156 -59 156 -61 157 -84 c 0
 158 -109 159 -114 163 -123 c 0
 168 -133 181 -135 188 -126 c 0
 195 -119 197 -107 198 -77 c 0
 198 -57 199 -56 201 -54 c 0
 206 -48 215 -51 224 -60 c 0
 234 -71 239 -87 239 -105 c 0xfdc0
 239 -156 202 -194 164 -194 c 0
 148 -194 132 -187 119 -174 c 0
 98 -154 87 -121 87 -80 c 2
 87 -75 l 2
EndSplineSet
Validated: 33
EndChar

StartChar: uni1F90
Encoding: 8080 8080 157
Width: 500
Flags: W
HStem: -194 59<303 370 440 506 303 370> 0 59<21 87 157 224 21 87> 399 59<21 87 21 146> 515 17<247.5 271.5 247.5 281.5> 615 78<266.5 292.5>
VStem: 87 70<59 180 59 399> 198 41<-130.5 -67> 239 78 351 17<599.5 609 578 619> 370 70<-135 82 -135 87 -135 87>
LayerCount: 2
Fore
SplineSet
239 654 m 0xfdc0
 239 673 252 693 276 693 c 0
 331 693 366 655 368 609 c 0
 368 547 312 515 251 515 c 0
 244 515 234 523 242 529 c 0
 244 532 245 532 250 532 c 0
 293 532 330 552 345 579 c 0
 349 587 351 595 351 604 c 0
 351 634 337 651 317 666 c 1
 327 637 306 615 279 615 c 0
 254 615 239 632 239 654 c 0xfdc0
146 458 m 1
 155 452 157 452 157 430 c 2
 157 413 l 1
 167 422 l 2
 193 443 223 459 262 463 c 0
 264 464 273 464 283 463 c 0
 302 463 312 461 329 455 c 0
 390 434 433 377 439 309 c 0
 440 302 440 221 440 82 c 2
 440 -135 l 1
 506 -135 l 1
 506 -194 l 1
 303 -194 l 1
 303 -135 l 1
 370 -135 l 1
 370 87 l 1
 369 309 l 1
 367 319 l 2
 358 357 334 386 303 396 c 0
 297 398 292 398 282 399 c 0
 261 399 247 397 229 388 c 0
 198 373 170 341 159 307 c 0
 157 302 157 298 157 180 c 2
 157 59 l 1
 224 59 l 1
 224 0 l 1
 21 0 l 1
 21 59 l 1
 87 59 l 1
 87 399 l 1
 21 399 l 1
 21 458 l 1
 146 458 l 1
87 -75 m 2
 87 -50 96 -40 112 -35 c 0
 115 -35 120 -34 124 -34 c 0
 138 -35 148 -42 154 -54 c 0
 156 -59 156 -61 157 -84 c 0
 158 -109 159 -114 163 -123 c 0
 168 -133 181 -135 188 -126 c 0
 195 -119 197 -107 198 -77 c 0
 198 -57 199 -56 201 -54 c 0
 206 -48 215 -51 224 -60 c 0
 234 -71 239 -87 239 -105 c 0xfec0
 239 -156 202 -194 164 -194 c 0
 148 -194 132 -187 119 -174 c 0
 98 -154 87 -121 87 -80 c 2
 87 -75 l 2
EndSplineSet
Validated: 33
EndChar

StartChar: etatonos
Encoding: 942 942 159
Width: 500
Flags: MW
HStem: -194 59<303 370 440 506 303 370> 0 59<21 87 157 224 21 87> 399 59<21 87 21 146>
VStem: 87 70<59 180 59 399> 284 71 370 70<-135 82 -135 87 -135 87>
LayerCount: 2
Fore
SplineSet
316 700 m 0
 336 700 355 686 355 666 c 0
 355 663 355 660 354 657 c 0
 353 655 269 506 267 504 c 0
 265 502 255 508 254 508 c 1
 254 510 282 663 284 671 c 0
 288 687 296 700 316 700 c 0
146 458 m 1
 155 452 157 452 157 430 c 2
 157 413 l 1
 167 422 l 2
 193 443 223 459 262 463 c 0
 264 464 273 464 283 463 c 0
 302 463 312 461 329 455 c 0
 390 434 433 377 439 309 c 0
 440 302 440 221 440 82 c 2
 440 -135 l 1
 506 -135 l 1
 506 -194 l 1
 303 -194 l 1
 303 -135 l 1
 370 -135 l 1
 370 87 l 1
 369 309 l 1
 367 319 l 2
 358 357 334 386 303 396 c 0
 297 398 292 398 282 399 c 0
 261 399 247 397 229 388 c 0
 198 373 170 341 159 307 c 0
 157 302 157 298 157 180 c 2
 157 59 l 1
 224 59 l 1
 224 0 l 1
 21 0 l 1
 21 59 l 1
 87 59 l 1
 87 399 l 1
 21 399 l 1
 21 458 l 1
 146 458 l 1
EndSplineSet
Validated: 1
EndChar

StartChar: uni1F25
Encoding: 7973 7973 160
Width: 500
Flags: W
HStem: -194 59<303 370 440 506 303 370> 0 59<21 87 157 224 21 87> 399 59<21 87 21 146> 515 17<247 273.5> 615 79<240 243 240 255>
VStem: 87 70<59 180 59 399> 153 17<601.5 609> 204 78 323 67 370 70<-135 82 -135 87 -135 87>
LayerCount: 2
Fore
SplineSet
323 679 m 0xf980
 327 691 338 700 353 700 c 0
 374 700 401 683 390 654 c 0
 388 648 305 503 304 503 c 0
 302 503 292 507 292 509 c 0
 292 512 322 675 323 679 c 0xf980
153 609 m 0xfb
 155 652 188 687 227 693 c 0
 230 693 237 694 243 694 c 0
 267 691 282 677 282 654 c 0
 282 632 268 615 242 615 c 0
 216 615 194 636 204 666 c 1
 184 651 170 634 170 604 c 0
 170 556 223 532 271 532 c 0
 277 532 282 529 282 524 c 0
 282 517 277 515 270 515 c 0
 221 515 177 540 161 571 c 0
 155 585 153 594 153 609 c 0xfb
146 458 m 1
 155 452 157 452 157 430 c 2
 157 413 l 1
 167 422 l 2
 193 443 223 459 262 463 c 0
 264 464 273 464 283 463 c 0
 302 463 312 461 329 455 c 0
 390 434 433 377 439 309 c 0
 440 302 440 221 440 82 c 2
 440 -135 l 1
 506 -135 l 1
 506 -194 l 1
 303 -194 l 1
 303 -135 l 1
 370 -135 l 1
 370 87 l 1
 369 309 l 1
 367 319 l 2
 358 357 334 386 303 396 c 0
 297 398 292 398 282 399 c 0
 261 399 247 397 229 388 c 0
 198 373 170 341 159 307 c 0
 157 302 157 298 157 180 c 2
 157 59 l 1
 224 59 l 1
 224 0 l 1
 21 0 l 1
 21 59 l 1
 87 59 l 1
 87 399 l 1xfd40
 21 399 l 1
 21 458 l 1
 146 458 l 1
EndSplineSet
Validated: 33
EndChar

StartChar: uni1F24
Encoding: 7972 7972 161
Width: 500
Flags: W
HStem: -194 59<303 370 440 506 303 370> 0 59<21 87 157 224 21 87> 399 59<21 87 21 146> 515 17<165.5 189.5 165.5 199.5> 615 78<184.5 210.5>
VStem: 87 70<59 180 59 399> 157 78 269 17<599.5 609 578 619> 323 67 370 70<-135 82 -135 87 -135 87>
LayerCount: 2
Fore
SplineSet
323 679 m 0xf980
 327 691 338 700 353 700 c 0
 374 700 401 683 390 654 c 0
 388 648 305 503 304 503 c 0
 302 503 292 507 292 509 c 0
 292 512 322 675 323 679 c 0xf980
157 654 m 0xfb
 157 673 170 693 194 693 c 0
 249 693 284 655 286 609 c 0
 286 547 230 515 169 515 c 0
 162 515 152 523 160 529 c 0
 162 532 163 532 168 532 c 0
 211 532 248 552 263 579 c 0
 267 587 269 595 269 604 c 0
 269 634 255 651 235 666 c 1
 245 637 224 615 197 615 c 0
 172 615 157 632 157 654 c 0xfb
146 458 m 1
 155 452 157 452 157 430 c 2
 157 413 l 1xfb
 167 422 l 2
 193 443 223 459 262 463 c 0
 264 464 273 464 283 463 c 0
 302 463 312 461 329 455 c 0
 390 434 433 377 439 309 c 0
 440 302 440 221 440 82 c 2
 440 -135 l 1
 506 -135 l 1
 506 -194 l 1
 303 -194 l 1
 303 -135 l 1
 370 -135 l 1
 370 87 l 1
 369 309 l 1
 367 319 l 2
 358 357 334 386 303 396 c 0
 297 398 292 398 282 399 c 0
 261 399 247 397 229 388 c 0
 198 373 170 341 159 307 c 0
 157 302 157 298 157 180 c 2
 157 59 l 1
 224 59 l 1
 224 0 l 1
 21 0 l 1
 21 59 l 1
 87 59 l 1
 87 399 l 1xfd40
 21 399 l 1
 21 458 l 1
 146 458 l 1
EndSplineSet
Validated: 33
EndChar

StartChar: uni1F23
Encoding: 7971 7971 162
Width: 500
Flags: W
HStem: -194 59<303 370 440 506 303 370> 0 59<21 87 157 224 21 87> 399 59<21 87 21 146> 515 17<230 256> 615 79<223 226 223 238>
VStem: 87 70<59 180 59 399> 136 17<601.5 609> 187 78 288 69 370 70<-135 82 -135 87 -135 87>
LayerCount: 2
Fore
SplineSet
288 665 m 0xf9c0
 288 687 311 707 338 698 c 0
 345 696 354 687 357 680 c 0
 358 676 389 512 389 508 c 0
 389 506 377 503 376 504 c 0
 374 506 290 655 289 657 c 0
 288 660 288 662 288 665 c 0xf9c0
136 609 m 0xfbc0
 138 652 171 687 210 693 c 0
 213 693 220 694 226 694 c 0
 250 691 265 677 265 654 c 0
 265 632 251 615 225 615 c 0
 199 615 177 636 187 666 c 1
 167 651 153 634 153 604 c 0
 153 556 206 532 254 532 c 0
 261 532 270 524 262 518 c 0
 260 515 259 515 253 515 c 0
 204 515 160 540 144 571 c 0
 138 585 136 594 136 609 c 0xfbc0
146 458 m 1
 155 452 157 452 157 430 c 2
 157 413 l 1
 167 422 l 2
 193 443 223 459 262 463 c 0
 264 464 273 464 283 463 c 0
 302 463 312 461 329 455 c 0
 390 434 433 377 439 309 c 0
 440 302 440 221 440 82 c 2
 440 -135 l 1
 506 -135 l 1
 506 -194 l 1
 303 -194 l 1
 303 -135 l 1
 370 -135 l 1
 370 87 l 1
 369 309 l 1
 367 319 l 2
 358 357 334 386 303 396 c 0
 297 398 292 398 282 399 c 0
 261 399 247 397 229 388 c 0
 198 373 170 341 159 307 c 0
 157 302 157 298 157 180 c 2
 157 59 l 1
 224 59 l 1
 224 0 l 1
 21 0 l 1
 21 59 l 1
 87 59 l 1
 87 399 l 1xfdc0
 21 399 l 1
 21 458 l 1
 146 458 l 1
EndSplineSet
Validated: 33
EndChar

StartChar: uni1FC4
Encoding: 8132 8132 163
Width: 500
Flags: MW
HStem: -194 59<303 370 440 506 303 370> 0 59<21 87 157 224 21 87> 399 59<21 87 21 146>
VStem: 87 70<59 180 59 399> 198 41<-130.5 -67> 284 71 370 70<-135 82 -135 87 -135 87>
LayerCount: 2
Fore
SplineSet
316 700 m 0
 336 700 355 686 355 666 c 0
 355 663 355 660 354 657 c 0
 353 655 269 506 267 504 c 0
 265 502 255 508 254 508 c 1
 254 510 282 663 284 671 c 0
 288 687 296 700 316 700 c 0
146 458 m 1
 155 452 157 452 157 430 c 2
 157 413 l 1
 167 422 l 2
 193 443 223 459 262 463 c 0
 264 464 273 464 283 463 c 0
 302 463 312 461 329 455 c 0
 390 434 433 377 439 309 c 0
 440 302 440 221 440 82 c 2
 440 -135 l 1
 506 -135 l 1
 506 -194 l 1
 303 -194 l 1
 303 -135 l 1
 370 -135 l 1
 370 87 l 1
 369 309 l 1
 367 319 l 2
 358 357 334 386 303 396 c 0
 297 398 292 398 282 399 c 0
 261 399 247 397 229 388 c 0
 198 373 170 341 159 307 c 0
 157 302 157 298 157 180 c 2
 157 59 l 1
 224 59 l 1
 224 0 l 1
 21 0 l 1
 21 59 l 1
 87 59 l 1
 87 399 l 1
 21 399 l 1
 21 458 l 1
 146 458 l 1
87 -75 m 2
 87 -50 96 -40 112 -35 c 0
 115 -35 120 -34 124 -34 c 0
 138 -35 148 -42 154 -54 c 0
 156 -59 156 -61 157 -84 c 0
 158 -109 159 -114 163 -123 c 0
 168 -133 181 -135 188 -126 c 0
 195 -119 197 -107 198 -77 c 0
 198 -57 199 -56 201 -54 c 0
 206 -48 215 -51 224 -60 c 0
 234 -71 239 -87 239 -105 c 0
 239 -156 202 -194 164 -194 c 0
 148 -194 132 -187 119 -174 c 0
 98 -154 87 -121 87 -80 c 2
 87 -75 l 2
EndSplineSet
Validated: 1
EndChar

StartChar: uni1F95
Encoding: 8085 8085 164
Width: 500
Flags: W
HStem: -194 59<303 370 440 506 303 370> 0 59<21 87 157 224 21 87> 399 59<21 87 21 146> 515 17<247 273.5> 615 79<240 243 240 255>
VStem: 87 70<59 180 59 399> 153 17<601.5 609> 198 41<-130.5 -67> 204 78 323 67 370 70<-135 82 -135 87 -135 87>
LayerCount: 2
Fore
SplineSet
323 679 m 0xf840
 327 691 338 700 353 700 c 0
 374 700 401 683 390 654 c 0
 388 648 305 503 304 503 c 0
 302 503 292 507 292 509 c 0
 292 512 322 675 323 679 c 0xf840
153 609 m 0xfa80
 155 652 188 687 227 693 c 0
 230 693 237 694 243 694 c 0
 267 691 282 677 282 654 c 0
 282 632 268 615 242 615 c 0
 216 615 194 636 204 666 c 1
 184 651 170 634 170 604 c 0
 170 556 223 532 271 532 c 0
 277 532 282 529 282 524 c 0
 282 517 277 515 270 515 c 0
 221 515 177 540 161 571 c 0
 155 585 153 594 153 609 c 0xfa80
146 458 m 1
 155 452 157 452 157 430 c 2
 157 413 l 1
 167 422 l 2
 193 443 223 459 262 463 c 0
 264 464 273 464 283 463 c 0
 302 463 312 461 329 455 c 0
 390 434 433 377 439 309 c 0
 440 302 440 221 440 82 c 2
 440 -135 l 1
 506 -135 l 1
 506 -194 l 1
 303 -194 l 1
 303 -135 l 1
 370 -135 l 1
 370 87 l 1
 369 309 l 1
 367 319 l 2
 358 357 334 386 303 396 c 0
 297 398 292 398 282 399 c 0
 261 399 247 397 229 388 c 0
 198 373 170 341 159 307 c 0
 157 302 157 298 157 180 c 2
 157 59 l 1
 224 59 l 1
 224 0 l 1
 21 0 l 1
 21 59 l 1
 87 59 l 1
 87 399 l 1xfca0
 21 399 l 1
 21 458 l 1
 146 458 l 1
87 -75 m 2
 87 -50 96 -40 112 -35 c 0
 115 -35 120 -34 124 -34 c 0
 138 -35 148 -42 154 -54 c 0
 156 -59 156 -61 157 -84 c 0
 158 -109 159 -114 163 -123 c 0
 168 -133 181 -135 188 -126 c 0
 195 -119 197 -107 198 -77 c 0
 198 -57 199 -56 201 -54 c 0
 206 -48 215 -51 224 -60 c 0
 234 -71 239 -87 239 -105 c 0xfd
 239 -156 202 -194 164 -194 c 0
 148 -194 132 -187 119 -174 c 0
 98 -154 87 -121 87 -80 c 2
 87 -75 l 2
EndSplineSet
Validated: 33
EndChar

StartChar: uni1F94
Encoding: 8084 8084 165
Width: 500
Flags: W
HStem: -194 59<303 370 440 506 303 370> 0 59<21 87 157 224 21 87> 399 59<21 87 21 146> 515 17<165.5 189.5 165.5 199.5> 615 78<184.5 210.5>
VStem: 87 70<59 180 59 399> 157 78 198 41<-130.5 -67> 269 17<599.5 609 578 619> 323 67 370 70<-135 82 -135 87 -135 87>
LayerCount: 2
Fore
SplineSet
323 679 m 0xf8c0
 327 691 338 700 353 700 c 0
 374 700 401 683 390 654 c 0
 388 648 305 503 304 503 c 0
 302 503 292 507 292 509 c 0
 292 512 322 675 323 679 c 0xf8c0
157 654 m 0xfa80
 157 673 170 693 194 693 c 0
 249 693 284 655 286 609 c 0
 286 547 230 515 169 515 c 0
 162 515 152 523 160 529 c 0
 162 532 163 532 168 532 c 0
 211 532 248 552 263 579 c 0
 267 587 269 595 269 604 c 0
 269 634 255 651 235 666 c 1
 245 637 224 615 197 615 c 0
 172 615 157 632 157 654 c 0xfa80
146 458 m 1
 155 452 157 452 157 430 c 2
 157 413 l 1xfa80
 167 422 l 2
 193 443 223 459 262 463 c 0
 264 464 273 464 283 463 c 0
 302 463 312 461 329 455 c 0
 390 434 433 377 439 309 c 0
 440 302 440 221 440 82 c 2
 440 -135 l 1
 506 -135 l 1
 506 -194 l 1
 303 -194 l 1
 303 -135 l 1
 370 -135 l 1
 370 87 l 1
 369 309 l 1
 367 319 l 2
 358 357 334 386 303 396 c 0
 297 398 292 398 282 399 c 0
 261 399 247 397 229 388 c 0
 198 373 170 341 159 307 c 0
 157 302 157 298 157 180 c 2
 157 59 l 1
 224 59 l 1
 224 0 l 1
 21 0 l 1
 21 59 l 1
 87 59 l 1
 87 399 l 1xfca0
 21 399 l 1
 21 458 l 1
 146 458 l 1
87 -75 m 2xfd80
 87 -50 96 -40 112 -35 c 0
 115 -35 120 -34 124 -34 c 0
 138 -35 148 -42 154 -54 c 0
 156 -59 156 -61 157 -84 c 0
 158 -109 159 -114 163 -123 c 0
 168 -133 181 -135 188 -126 c 0
 195 -119 197 -107 198 -77 c 0
 198 -57 199 -56 201 -54 c 0
 206 -48 215 -51 224 -60 c 0
 234 -71 239 -87 239 -105 c 0
 239 -156 202 -194 164 -194 c 0
 148 -194 132 -187 119 -174 c 0
 98 -154 87 -121 87 -80 c 2
 87 -75 l 2xfd80
EndSplineSet
Validated: 33
EndChar

StartChar: uni1F93
Encoding: 8083 8083 166
Width: 500
Flags: W
HStem: -194 59<303 370 440 506 303 370> 0 59<21 87 157 224 21 87> 399 59<21 87 21 146> 515 17<230 256> 615 79<223 226 223 238>
VStem: 87 70<59 180 59 399> 136 17<601.5 609> 187 78 198 41<-130.5 -67> 288 69 370 70<-135 82 -135 87 -135 87>
LayerCount: 2
Fore
SplineSet
288 665 m 0xf860
 288 687 311 707 338 698 c 0
 345 696 354 687 357 680 c 0
 358 676 389 512 389 508 c 0
 389 506 377 503 376 504 c 0
 374 506 290 655 289 657 c 0
 288 660 288 662 288 665 c 0xf860
136 609 m 0xfb60
 138 652 171 687 210 693 c 0
 213 693 220 694 226 694 c 0
 250 691 265 677 265 654 c 0
 265 632 251 615 225 615 c 0
 199 615 177 636 187 666 c 1
 167 651 153 634 153 604 c 0
 153 556 206 532 254 532 c 0
 261 532 270 524 262 518 c 0
 260 515 259 515 253 515 c 0
 204 515 160 540 144 571 c 0
 138 585 136 594 136 609 c 0xfb60
146 458 m 1
 155 452 157 452 157 430 c 2
 157 413 l 1
 167 422 l 2
 193 443 223 459 262 463 c 0
 264 464 273 464 283 463 c 0
 302 463 312 461 329 455 c 0
 390 434 433 377 439 309 c 0
 440 302 440 221 440 82 c 2
 440 -135 l 1
 506 -135 l 1
 506 -194 l 1
 303 -194 l 1
 303 -135 l 1
 370 -135 l 1
 370 87 l 1
 369 309 l 1
 367 319 l 2
 358 357 334 386 303 396 c 0
 297 398 292 398 282 399 c 0
 261 399 247 397 229 388 c 0
 198 373 170 341 159 307 c 0
 157 302 157 298 157 180 c 2
 157 59 l 1
 224 59 l 1
 224 0 l 1
 21 0 l 1
 21 59 l 1
 87 59 l 1
 87 399 l 1xfc60
 21 399 l 1
 21 458 l 1
 146 458 l 1
87 -75 m 2
 87 -50 96 -40 112 -35 c 0
 115 -35 120 -34 124 -34 c 0
 138 -35 148 -42 154 -54 c 0
 156 -59 156 -61 157 -84 c 0
 158 -109 159 -114 163 -123 c 0
 168 -133 181 -135 188 -126 c 0
 195 -119 197 -107 198 -77 c 0
 198 -57 199 -56 201 -54 c 0
 206 -48 215 -51 224 -60 c 0
 234 -71 239 -87 239 -105 c 0xfce0
 239 -156 202 -194 164 -194 c 0
 148 -194 132 -187 119 -174 c 0
 98 -154 87 -121 87 -80 c 2
 87 -75 l 2
EndSplineSet
Validated: 33
EndChar

StartChar: uni1FC6
Encoding: 8134 8134 167
Width: 500
Flags: W
HStem: -194 59<303 370 440 506 303 370> 0 59<21 87 157 224 21 87> 399 59<21 87 21 146> 542 59<329 357 329 365> 566 59<201 228.5>
VStem: 87 70<59 180 59 399> 370 70<-135 82 -135 87 -135 87> 381 64<611.5 617.5 611 618.5>
LayerCount: 2
Fore
SplineSet
177 551 m 0xed
 177 546 174 545 172 542 c 2
 119 542 l 1xf5
 101 560 128 594 143 605 c 0
 161 618 183 625 213 625 c 0xed
 251 625 311 601 347 601 c 0
 367 601 381 607 381 616 c 0xf5
 381 621 384 622 386 625 c 2
 440 625 l 2xee
 442 622 445 620 445 615 c 0
 445 607 442 596 438 588 c 0
 423 559 386 542 344 542 c 0xf5
 307 542 246 566 211 566 c 0
 191 566 177 560 177 551 c 0xed
146 458 m 1
 155 452 157 452 157 430 c 2
 157 413 l 1
 167 422 l 2
 193 443 223 459 262 463 c 0
 264 464 273 464 283 463 c 0
 302 463 312 461 329 455 c 0
 390 434 433 377 439 309 c 0
 440 302 440 221 440 82 c 2
 440 -135 l 1
 506 -135 l 1
 506 -194 l 1
 303 -194 l 1
 303 -135 l 1
 370 -135 l 1
 370 87 l 1xe6
 369 309 l 1
 367 319 l 2
 358 357 334 386 303 396 c 0
 297 398 292 398 282 399 c 0
 261 399 247 397 229 388 c 0
 198 373 170 341 159 307 c 0
 157 302 157 298 157 180 c 2
 157 59 l 1
 224 59 l 1
 224 0 l 1
 21 0 l 1
 21 59 l 1
 87 59 l 1
 87 399 l 1
 21 399 l 1
 21 458 l 1
 146 458 l 1
EndSplineSet
Validated: 33
EndChar

StartChar: uni1F27
Encoding: 7975 7975 168
Width: 500
Flags: W
HStem: -194 59<303 370 440 506 303 370> 0 59<21 87 157 224 21 87> 399 59<21 87 21 146> 504 17<296 300> 536 63<272 287> 603 58<336 353.5 332.5 371.5> 635 58<204.5 219.5 184 225.5>
VStem: 87 70<59 180 59 399> 113 62<610 612 609 616.5> 232 17<541.5 553 553 558 541.5 563> 370 70<-135 82 -135 87 -135 87> 383 62<684 686.5 679.5 687>
LayerCount: 2
Fore
SplineSet
119 602 m 2xfae0
 116 605 113 607 113 613 c 0
 113 620 115 630 118 638 c 0
 130 666 163 693 205 693 c 0xfae0
 234 693 246 691 270 682 c 0
 292 674 321 661 344 661 c 0
 363 661 382 670 383 684 c 0xfcd0
 383 690 386 691 388 694 c 2
 440 694 l 1xfc60
 443 690 445 690 445 683 c 0xfc50
 445 676 443 666 440 658 c 0
 426 627 396 603 347 603 c 0xfc60
 325 603 317 604 288 614 c 0
 266 622 237 635 214 635 c 0
 195 635 176 626 175 612 c 0
 175 606 172 605 170 602 c 2
 119 602 l 2xfae0
232 551 m 0
 232 575 251 599 280 599 c 0
 297 599 311 587 311 568 c 0
 311 548 295 536 279 536 c 0
 265 536 255 545 249 558 c 1
 249 553 l 2
 249 530 272 524 296 521 c 0
 306 521 318 515 308 507 c 0
 306 504 305 504 295 504 c 0
 259 506 232 524 232 551 c 0
146 458 m 1
 155 452 157 452 157 430 c 2
 157 413 l 1
 167 422 l 2
 193 443 223 459 262 463 c 0
 264 464 273 464 283 463 c 0
 302 463 312 461 329 455 c 0
 390 434 433 377 439 309 c 0
 440 302 440 221 440 82 c 2
 440 -135 l 1
 506 -135 l 1
 506 -194 l 1
 303 -194 l 1
 303 -135 l 1
 370 -135 l 1
 370 87 l 1
 369 309 l 1
 367 319 l 2
 358 357 334 386 303 396 c 0
 297 398 292 398 282 399 c 0
 261 399 247 397 229 388 c 0
 198 373 170 341 159 307 c 0
 157 302 157 298 157 180 c 2
 157 59 l 1
 224 59 l 1
 224 0 l 1
 21 0 l 1
 21 59 l 1
 87 59 l 1
 87 399 l 1xf960
 21 399 l 1
 21 458 l 1
 146 458 l 1
EndSplineSet
Validated: 1
EndChar

StartChar: uni1F26
Encoding: 7974 7974 169
Width: 500
Flags: W
HStem: -194 59<303 370 440 506 303 370> 0 59<21 87 157 224 21 87> 399 59<21 87 21 146> 504 17<254 263 254 264 254 263> 536 63<272 287> 603 58<336 353.5 332.5 371.5> 635 58<204.5 219.5 184 225.5>
VStem: 87 70<59 180 59 399> 113 62<610 612 609 616.5> 310 17<553 558 558 558> 370 70<-135 82 -135 87 -135 87> 383 62<684 686.5 679.5 687>
LayerCount: 2
Fore
SplineSet
119 602 m 2xfae0
 116 605 113 607 113 613 c 0
 113 620 115 630 118 638 c 0
 130 666 163 693 205 693 c 0xfae0
 234 693 246 691 270 682 c 0
 292 674 321 661 344 661 c 0
 363 661 382 670 383 684 c 0xfcd0
 383 690 386 691 388 694 c 2
 440 694 l 1xfc60
 443 690 445 690 445 683 c 0xfc50
 445 676 443 666 440 658 c 0
 426 627 396 603 347 603 c 0xfc60
 325 603 317 604 288 614 c 0
 266 622 237 635 214 635 c 0
 195 635 176 626 175 612 c 0
 175 606 172 605 170 602 c 2
 119 602 l 2xfae0
249 568 m 0
 249 588 262 599 281 599 c 0
 306 599 327 576 327 552 c 0
 327 521 297 506 264 504 c 2
 254 504 l 1
 246 512 245 521 263 521 c 0
 287 524 310 530 310 553 c 2
 310 558 l 1
 304 545 294 536 280 536 c 0
 264 536 249 547 249 568 c 0
146 458 m 1
 155 452 157 452 157 430 c 2
 157 413 l 1
 167 422 l 2
 193 443 223 459 262 463 c 0
 264 464 273 464 283 463 c 0
 302 463 312 461 329 455 c 0
 390 434 433 377 439 309 c 0
 440 302 440 221 440 82 c 2
 440 -135 l 1
 506 -135 l 1
 506 -194 l 1
 303 -194 l 1
 303 -135 l 1
 370 -135 l 1
 370 87 l 1
 369 309 l 1
 367 319 l 2
 358 357 334 386 303 396 c 0
 297 398 292 398 282 399 c 0
 261 399 247 397 229 388 c 0
 198 373 170 341 159 307 c 0
 157 302 157 298 157 180 c 2
 157 59 l 1
 224 59 l 1
 224 0 l 1
 21 0 l 1
 21 59 l 1
 87 59 l 1
 87 399 l 1xf960
 21 399 l 1
 21 458 l 1
 146 458 l 1
EndSplineSet
Validated: 1
EndChar

StartChar: uni1F22
Encoding: 7970 7970 170
Width: 500
Flags: W
HStem: -194 59<303 370 440 506 303 370> 0 59<21 87 157 224 21 87> 399 59<21 87 21 146> 515 17<153.5 177.5 153.5 187.5> 615 78<172.5 198.5>
VStem: 87 70<59 180 59 399> 145 78 257 17<599.5 609 578 619> 288 69 370 70<-135 82 -135 87 -135 87>
LayerCount: 2
Fore
SplineSet
288 665 m 0xf9c0
 288 687 311 707 338 698 c 0
 345 696 354 687 357 680 c 0
 358 676 389 512 389 508 c 0
 389 506 377 503 376 504 c 0
 374 506 290 655 289 657 c 0
 288 660 288 662 288 665 c 0xf9c0
145 654 m 0xfbc0
 145 673 158 693 182 693 c 0
 237 693 272 655 274 609 c 0
 274 547 218 515 157 515 c 0xfdc0
 150 515 140 523 148 529 c 0
 150 532 151 532 156 532 c 0
 199 532 236 552 251 579 c 0
 255 587 257 595 257 604 c 0
 257 634 243 651 223 666 c 1
 233 637 212 615 185 615 c 0
 160 615 145 632 145 654 c 0xfbc0
146 458 m 1
 155 452 157 452 157 430 c 2
 157 413 l 1
 167 422 l 2
 193 443 223 459 262 463 c 0
 264 464 273 464 283 463 c 0
 302 463 312 461 329 455 c 0
 390 434 433 377 439 309 c 0
 440 302 440 221 440 82 c 2
 440 -135 l 1
 506 -135 l 1
 506 -194 l 1
 303 -194 l 1
 303 -135 l 1
 370 -135 l 1
 370 87 l 1
 369 309 l 1
 367 319 l 2
 358 357 334 386 303 396 c 0
 297 398 292 398 282 399 c 0
 261 399 247 397 229 388 c 0
 198 373 170 341 159 307 c 0
 157 302 157 298 157 180 c 2
 157 59 l 1
 224 59 l 1
 224 0 l 1
 21 0 l 1
 21 59 l 1
 87 59 l 1
 87 399 l 1
 21 399 l 1
 21 458 l 1
 146 458 l 1
EndSplineSet
Validated: 33
EndChar

StartChar: uni1FC7
Encoding: 8135 8135 171
Width: 500
Flags: W
HStem: -194 59<303 370 440 506 303 370> 0 59<21 87 157 224 21 87> 399 59<21 87 21 146> 542 59<329 357 329 365> 566 59<201 228.5>
VStem: 87 70<59 180 59 399> 198 41<-130.5 -67> 370 70<-135 82 -135 87 -135 87> 381 64<611.5 617.5 611 618.5>
LayerCount: 2
Fore
SplineSet
177 551 m 0xee80
 177 546 174 545 172 542 c 2
 119 542 l 1xf680
 101 560 128 594 143 605 c 0
 161 618 183 625 213 625 c 0xee80
 251 625 311 601 347 601 c 0
 367 601 381 607 381 616 c 0xf680
 381 621 384 622 386 625 c 2
 440 625 l 2xef
 442 622 445 620 445 615 c 0
 445 607 442 596 438 588 c 0
 423 559 386 542 344 542 c 0xf680
 307 542 246 566 211 566 c 0
 191 566 177 560 177 551 c 0xee80
146 458 m 1
 155 452 157 452 157 430 c 2
 157 413 l 1
 167 422 l 2
 193 443 223 459 262 463 c 0
 264 464 273 464 283 463 c 0
 302 463 312 461 329 455 c 0
 390 434 433 377 439 309 c 0
 440 302 440 221 440 82 c 2
 440 -135 l 1
 506 -135 l 1
 506 -194 l 1
 303 -194 l 1
 303 -135 l 1
 370 -135 l 1
 370 87 l 1xe7
 369 309 l 1
 367 319 l 2
 358 357 334 386 303 396 c 0
 297 398 292 398 282 399 c 0
 261 399 247 397 229 388 c 0
 198 373 170 341 159 307 c 0
 157 302 157 298 157 180 c 2
 157 59 l 1
 224 59 l 1
 224 0 l 1
 21 0 l 1
 21 59 l 1
 87 59 l 1
 87 399 l 1
 21 399 l 1
 21 458 l 1
 146 458 l 1
87 -75 m 2
 87 -50 96 -40 112 -35 c 0
 115 -35 120 -34 124 -34 c 0
 138 -35 148 -42 154 -54 c 0
 156 -59 156 -61 157 -84 c 0
 158 -109 159 -114 163 -123 c 0
 168 -133 181 -135 188 -126 c 0
 195 -119 197 -107 198 -77 c 0
 198 -57 199 -56 201 -54 c 0
 206 -48 215 -51 224 -60 c 0
 234 -71 239 -87 239 -105 c 0
 239 -156 202 -194 164 -194 c 0
 148 -194 132 -187 119 -174 c 0
 98 -154 87 -121 87 -80 c 2
 87 -75 l 2
EndSplineSet
Validated: 33
EndChar

StartChar: uni1F97
Encoding: 8087 8087 172
Width: 500
Flags: W
HStem: -194 59<303 370 440 506 303 370> 0 59<21 87 157 224 21 87> 399 59<21 87 21 146> 504 17<296 300> 536 63<272 287> 603 58<336 353.5 332.5 371.5> 635 58<204.5 219.5 184 225.5>
VStem: 87 70<59 180 59 399> 113 62<610 612 609 616.5> 198 41<-130.5 -67> 232 17<541.5 553 553 558 541.5 563> 370 70<-135 82 -135 87 -135 87> 383 62<684 686.5 679.5 687>
LayerCount: 2
Fore
SplineSet
119 602 m 2xfa90
 116 605 113 607 113 613 c 0
 113 620 115 630 118 638 c 0
 130 666 163 693 205 693 c 0xfa90
 234 693 246 691 270 682 c 0
 292 674 321 661 344 661 c 0
 363 661 382 670 383 684 c 0xfc88
 383 690 386 691 388 694 c 2
 440 694 l 1xfc10
 443 690 445 690 445 683 c 0xfc08
 445 676 443 666 440 658 c 0
 426 627 396 603 347 603 c 0xfc10
 325 603 317 604 288 614 c 0
 266 622 237 635 214 635 c 0
 195 635 176 626 175 612 c 0
 175 606 172 605 170 602 c 2
 119 602 l 2xfa90
232 551 m 0xf820
 232 575 251 599 280 599 c 0
 297 599 311 587 311 568 c 0
 311 548 295 536 279 536 c 0
 265 536 255 545 249 558 c 1
 249 553 l 2
 249 530 272 524 296 521 c 0
 306 521 318 515 308 507 c 0
 306 504 305 504 295 504 c 0
 259 506 232 524 232 551 c 0xf820
146 458 m 1
 155 452 157 452 157 430 c 2
 157 413 l 1
 167 422 l 2
 193 443 223 459 262 463 c 0
 264 464 273 464 283 463 c 0
 302 463 312 461 329 455 c 0
 390 434 433 377 439 309 c 0
 440 302 440 221 440 82 c 2
 440 -135 l 1
 506 -135 l 1
 506 -194 l 1
 303 -194 l 1
 303 -135 l 1
 370 -135 l 1
 370 87 l 1
 369 309 l 1
 367 319 l 2
 358 357 334 386 303 396 c 0
 297 398 292 398 282 399 c 0
 261 399 247 397 229 388 c 0
 198 373 170 341 159 307 c 0
 157 302 157 298 157 180 c 2
 157 59 l 1
 224 59 l 1
 224 0 l 1
 21 0 l 1
 21 59 l 1
 87 59 l 1
 87 399 l 1xf910
 21 399 l 1
 21 458 l 1
 146 458 l 1
87 -75 m 2
 87 -50 96 -40 112 -35 c 0
 115 -35 120 -34 124 -34 c 0
 138 -35 148 -42 154 -54 c 0
 156 -59 156 -61 157 -84 c 0
 158 -109 159 -114 163 -123 c 0
 168 -133 181 -135 188 -126 c 0
 195 -119 197 -107 198 -77 c 0
 198 -57 199 -56 201 -54 c 0
 206 -48 215 -51 224 -60 c 0
 234 -71 239 -87 239 -105 c 0xf940
 239 -156 202 -194 164 -194 c 0
 148 -194 132 -187 119 -174 c 0
 98 -154 87 -121 87 -80 c 2
 87 -75 l 2
EndSplineSet
Validated: 1
EndChar

StartChar: uni1F96
Encoding: 8086 8086 173
Width: 500
Flags: W
HStem: -194 59<303 370 440 506 303 370> 0 59<21 87 157 224 21 87> 399 59<21 87 21 146> 504 17<254 263 254 264 254 263> 536 63<272 287> 603 58<336 353.5 332.5 371.5> 635 58<204.5 219.5 184 225.5>
VStem: 87 70<59 180 59 399> 113 62<610 612 609 616.5> 198 41<-130.5 -67> 310 17<553 558 558 558> 370 70<-135 82 -135 87 -135 87> 383 62<684 686.5 679.5 687>
LayerCount: 2
Fore
SplineSet
119 602 m 2xfaf0
 116 605 113 607 113 613 c 0
 113 620 115 630 118 638 c 0
 130 666 163 693 205 693 c 0xfaf0
 234 693 246 691 270 682 c 0
 292 674 321 661 344 661 c 0
 363 661 382 670 383 684 c 0xfce8
 383 690 386 691 388 694 c 2
 440 694 l 1xfc70
 443 690 445 690 445 683 c 0xfc68
 445 676 443 666 440 658 c 0
 426 627 396 603 347 603 c 0xfc70
 325 603 317 604 288 614 c 0
 266 622 237 635 214 635 c 0
 195 635 176 626 175 612 c 0
 175 606 172 605 170 602 c 2
 119 602 l 2xfaf0
249 568 m 0
 249 588 262 599 281 599 c 0
 306 599 327 576 327 552 c 0
 327 521 297 506 264 504 c 2
 254 504 l 1
 246 512 245 521 263 521 c 0
 287 524 310 530 310 553 c 2
 310 558 l 1
 304 545 294 536 280 536 c 0
 264 536 249 547 249 568 c 0
146 458 m 1
 155 452 157 452 157 430 c 2
 157 413 l 1
 167 422 l 2
 193 443 223 459 262 463 c 0
 264 464 273 464 283 463 c 0
 302 463 312 461 329 455 c 0
 390 434 433 377 439 309 c 0
 440 302 440 221 440 82 c 2
 440 -135 l 1
 506 -135 l 1
 506 -194 l 1
 303 -194 l 1
 303 -135 l 1
 370 -135 l 1
 370 87 l 1
 369 309 l 1
 367 319 l 2
 358 357 334 386 303 396 c 0
 297 398 292 398 282 399 c 0
 261 399 247 397 229 388 c 0
 198 373 170 341 159 307 c 0
 157 302 157 298 157 180 c 2
 157 59 l 1
 224 59 l 1
 224 0 l 1
 21 0 l 1
 21 59 l 1
 87 59 l 1
 87 399 l 1xf970
 21 399 l 1
 21 458 l 1
 146 458 l 1
87 -75 m 2
 87 -50 96 -40 112 -35 c 0
 115 -35 120 -34 124 -34 c 0
 138 -35 148 -42 154 -54 c 0
 156 -59 156 -61 157 -84 c 0
 158 -109 159 -114 163 -123 c 0
 168 -133 181 -135 188 -126 c 0
 195 -119 197 -107 198 -77 c 0
 198 -57 199 -56 201 -54 c 0
 206 -48 215 -51 224 -60 c 0
 234 -71 239 -87 239 -105 c 0
 239 -156 202 -194 164 -194 c 0
 148 -194 132 -187 119 -174 c 0
 98 -154 87 -121 87 -80 c 2
 87 -75 l 2
EndSplineSet
Validated: 1
EndChar

StartChar: uni1F92
Encoding: 8082 8082 174
Width: 500
Flags: W
HStem: -194 59<303 370 440 506 303 370> 0 59<21 87 157 224 21 87> 399 59<21 87 21 146> 515 17<153.5 177.5 153.5 187.5> 615 78<172.5 198.5>
VStem: 87 70<59 180 59 399> 145 78 198 41<-130.5 -67> 257 17<599.5 609 578 619> 288 69 370 70<-135 82 -135 87 -135 87>
LayerCount: 2
Fore
SplineSet
288 665 m 0xf8e0
 288 687 311 707 338 698 c 0
 345 696 354 687 357 680 c 0
 358 676 389 512 389 508 c 0
 389 506 377 503 376 504 c 0
 374 506 290 655 289 657 c 0
 288 660 288 662 288 665 c 0xf8e0
145 654 m 0xfae0
 145 673 158 693 182 693 c 0
 237 693 272 655 274 609 c 0
 274 547 218 515 157 515 c 0xfce0
 150 515 140 523 148 529 c 0
 150 532 151 532 156 532 c 0
 199 532 236 552 251 579 c 0
 255 587 257 595 257 604 c 0
 257 634 243 651 223 666 c 1
 233 637 212 615 185 615 c 0
 160 615 145 632 145 654 c 0xfae0
146 458 m 1
 155 452 157 452 157 430 c 2
 157 413 l 1
 167 422 l 2
 193 443 223 459 262 463 c 0
 264 464 273 464 283 463 c 0
 302 463 312 461 329 455 c 0
 390 434 433 377 439 309 c 0
 440 302 440 221 440 82 c 2
 440 -135 l 1
 506 -135 l 1
 506 -194 l 1
 303 -194 l 1
 303 -135 l 1
 370 -135 l 1
 370 87 l 1
 369 309 l 1
 367 319 l 2
 358 357 334 386 303 396 c 0
 297 398 292 398 282 399 c 0
 261 399 247 397 229 388 c 0
 198 373 170 341 159 307 c 0
 157 302 157 298 157 180 c 2
 157 59 l 1
 224 59 l 1
 224 0 l 1
 21 0 l 1
 21 59 l 1
 87 59 l 1
 87 399 l 1
 21 399 l 1
 21 458 l 1
 146 458 l 1
87 -75 m 2
 87 -50 96 -40 112 -35 c 0
 115 -35 120 -34 124 -34 c 0
 138 -35 148 -42 154 -54 c 0
 156 -59 156 -61 157 -84 c 0
 158 -109 159 -114 163 -123 c 0
 168 -133 181 -135 188 -126 c 0
 195 -119 197 -107 198 -77 c 0
 198 -57 199 -56 201 -54 c 0
 206 -48 215 -51 224 -60 c 0
 234 -71 239 -87 239 -105 c 0xfde0
 239 -156 202 -194 164 -194 c 0
 148 -194 132 -187 119 -174 c 0
 98 -154 87 -121 87 -80 c 2
 87 -75 l 2
EndSplineSet
Validated: 33
EndChar

StartChar: uni1F7C
Encoding: 8060 8060 175
Width: 667
Flags: MW
HStem: -6 59<178 191 178 222 463.5 483.5> 405 58
VStem: 28 70<217.5 256.5 185 289> 274 58<143 145.5 143 161> 334 58<143 161> 568 70<174 265>
LayerCount: 2
Fore
SplineSet
277 696 m 0
 302 709 324 693 328 671 c 0
 330 663 358 510 358 508 c 0
 358 506 346 503 345 504 c 0
 343 506 259 655 258 657 c 0
 257 660 257 662 257 665 c 0
 257 678 265 689 277 696 c 0
332 143 m 0
 322 61 262 -6 182 -6 c 0
 106 -6 49 59 33 167 c 0
 30 188 28 208 28 227 c 0
 28 351 99 452 199 463 c 0
 201 464 207 464 214 464 c 0
 234 461 244 454 244 435 c 0
 244 413 234 406 212 405 c 0
 181 403 163 392 146 374 c 0
 115 342 98 288 98 225 c 0
 98 145 114 91 143 68 c 0
 155 58 170 53 186 53 c 0
 196 53 206 55 215 59 c 0
 246 72 274 113 274 160 c 0
 274 162 280 197 286 237 c 0
 300 316 300 317 308 325 c 0
 314 331 324 335 333 335 c 0
 342 335 352 331 358 325 c 0
 366 317 366 316 380 237 c 0
 386 197 392 162 392 160 c 0
 392 152 395 135 398 125 c 0
 410 81 443 53 481 53 c 0
 486 53 490 53 495 54 c 0
 543 64 568 123 568 225 c 0
 568 305 542 368 491 396 c 0
 480 401 469 404 454 405 c 0
 432 406 422 413 422 435 c 0
 422 456 432 463 456 463 c 0
 570 463 638 341 638 227 c 0
 638 112 589 16 517 -2 c 0
 506 -5 496 -6 485 -6 c 0
 442 -6 400 14 371 52 c 0
 351 78 337 112 334 143 c 0
 334 148 333 151 333 151 c 1
 333 151 332 148 332 143 c 0
EndSplineSet
Validated: 33
EndChar

StartChar: uni1F61
Encoding: 8033 8033 176
Width: 667
Flags: W
HStem: -6 59<178 191 178 222 463.5 483.5> 405 58 515 17<338 364.5> 615 79<331 334 331 346>
VStem: 28 70<217.5 256.5 185 289> 244 17<601.5 609> 274 58<143 145.5 143 161> 295 78 334 58<143 161> 568 70<174 265>
LayerCount: 2
Fore
SplineSet
244 609 m 0xfd40
 246 652 279 687 318 693 c 0
 321 693 328 694 334 694 c 0xfcc0
 358 691 373 677 373 654 c 0
 373 632 359 615 333 615 c 0
 307 615 285 636 295 666 c 1
 275 651 261 634 261 604 c 0
 261 556 314 532 362 532 c 0
 368 532 373 529 373 524 c 0
 373 517 368 515 361 515 c 0
 312 515 268 540 252 571 c 0
 246 585 244 594 244 609 c 0xfd40
332 143 m 0xfec0
 322 61 262 -6 182 -6 c 0
 106 -6 49 59 33 167 c 0
 30 188 28 208 28 227 c 0
 28 351 99 452 199 463 c 0
 201 464 207 464 214 464 c 0
 234 461 244 454 244 435 c 0
 244 413 234 406 212 405 c 0
 181 403 163 392 146 374 c 0
 115 342 98 288 98 225 c 0
 98 145 114 91 143 68 c 0
 155 58 170 53 186 53 c 0
 196 53 206 55 215 59 c 0
 246 72 274 113 274 160 c 0
 274 162 280 197 286 237 c 0
 300 316 300 317 308 325 c 0
 314 331 324 335 333 335 c 0
 342 335 352 331 358 325 c 0
 366 317 366 316 380 237 c 0
 386 197 392 162 392 160 c 0
 392 152 395 135 398 125 c 0
 410 81 443 53 481 53 c 0
 486 53 490 53 495 54 c 0
 543 64 568 123 568 225 c 0
 568 305 542 368 491 396 c 0
 480 401 469 404 454 405 c 0
 432 406 422 413 422 435 c 0
 422 456 432 463 456 463 c 0
 570 463 638 341 638 227 c 0
 638 112 589 16 517 -2 c 0
 506 -5 496 -6 485 -6 c 0
 442 -6 400 14 371 52 c 0
 351 78 337 112 334 143 c 0
 334 148 333 151 333 151 c 1
 333 151 332 148 332 143 c 0xfec0
EndSplineSet
Validated: 33
EndChar

StartChar: uni1F60
Encoding: 8032 8032 177
Width: 667
Flags: W
HStem: -6 59<178 191 178 222 463.5 483.5> 405 58 515 17<301.5 325.5 301.5 335.5> 615 78<320.5 346.5>
VStem: 28 70<217.5 256.5 185 289> 274 58<143 145.5 143 161> 293 78 334 58<143 161> 405 17<599.5 609> 568 70<174 265>
LayerCount: 2
Fore
SplineSet
293 654 m 0xfac0
 293 673 306 693 330 693 c 0
 385 693 420 655 422 609 c 0
 422 547 366 515 305 515 c 0
 298 515 288 523 296 529 c 0
 298 532 299 532 304 532 c 0
 347 532 384 552 399 579 c 0
 403 587 405 595 405 604 c 0
 405 634 391 651 371 666 c 1
 381 637 360 615 333 615 c 0
 308 615 293 632 293 654 c 0xfac0
332 143 m 0xfdc0
 322 61 262 -6 182 -6 c 0
 106 -6 49 59 33 167 c 0
 30 188 28 208 28 227 c 0
 28 351 99 452 199 463 c 0
 201 464 207 464 214 464 c 0
 234 461 244 454 244 435 c 0
 244 413 234 406 212 405 c 0
 181 403 163 392 146 374 c 0
 115 342 98 288 98 225 c 0
 98 145 114 91 143 68 c 0
 155 58 170 53 186 53 c 0
 196 53 206 55 215 59 c 0
 246 72 274 113 274 160 c 0
 274 162 280 197 286 237 c 0
 300 316 300 317 308 325 c 0
 314 331 324 335 333 335 c 0
 342 335 352 331 358 325 c 0
 366 317 366 316 380 237 c 0
 386 197 392 162 392 160 c 0xfdc0
 392 152 395 135 398 125 c 0
 410 81 443 53 481 53 c 0
 486 53 490 53 495 54 c 0
 543 64 568 123 568 225 c 0
 568 305 542 368 491 396 c 0
 480 401 469 404 454 405 c 0
 432 406 422 413 422 435 c 0
 422 456 432 463 456 463 c 0
 570 463 638 341 638 227 c 0
 638 112 589 16 517 -2 c 0
 506 -5 496 -6 485 -6 c 0
 442 -6 400 14 371 52 c 0xfac0
 351 78 337 112 334 143 c 0
 334 148 333 151 333 151 c 1
 333 151 332 148 332 143 c 0xfdc0
EndSplineSet
Validated: 33
EndChar

StartChar: uni1F63
Encoding: 8035 8035 178
Width: 667
Flags: W
HStem: -6 59<178 191 178 222 463.5 483.5> 405 58 515 17<284 310.5> 615 79<277 280 277 292>
VStem: 28 70<217.5 256.5 185 289> 190 17<601.5 609> 241 78 274 58<143 145.5 143 161> 334 58<143 161> 342 69 568 70<174 265>
LayerCount: 2
Fore
SplineSet
342 665 m 0xfc60
 342 687 365 707 392 698 c 0xfca0
 399 696 408 687 411 680 c 0
 412 676 443 512 443 508 c 0
 443 506 431 503 430 504 c 0
 428 506 344 655 343 657 c 0
 342 660 342 662 342 665 c 0xfc60
190 609 m 0
 192 652 225 687 264 693 c 0
 267 693 274 694 280 694 c 0
 304 691 319 677 319 654 c 0
 319 632 305 615 279 615 c 0
 253 615 231 636 241 666 c 1
 221 651 207 634 207 604 c 0
 207 556 260 532 308 532 c 0
 314 532 319 529 319 524 c 0xfe20
 319 517 314 515 307 515 c 0
 258 515 214 540 198 571 c 0
 192 585 190 594 190 609 c 0
332 143 m 0xfda0
 322 61 262 -6 182 -6 c 0
 106 -6 49 59 33 167 c 0
 30 188 28 208 28 227 c 0
 28 351 99 452 199 463 c 0
 201 464 207 464 214 464 c 0
 234 461 244 454 244 435 c 0
 244 413 234 406 212 405 c 0
 181 403 163 392 146 374 c 0
 115 342 98 288 98 225 c 0
 98 145 114 91 143 68 c 0
 155 58 170 53 186 53 c 0
 196 53 206 55 215 59 c 0
 246 72 274 113 274 160 c 0
 274 162 280 197 286 237 c 0
 300 316 300 317 308 325 c 0
 314 331 324 335 333 335 c 0
 342 335 352 331 358 325 c 0
 366 317 366 316 380 237 c 0
 386 197 392 162 392 160 c 0
 392 152 395 135 398 125 c 0
 410 81 443 53 481 53 c 0
 486 53 490 53 495 54 c 0
 543 64 568 123 568 225 c 0
 568 305 542 368 491 396 c 0
 480 401 469 404 454 405 c 0
 432 406 422 413 422 435 c 0
 422 456 432 463 456 463 c 0
 570 463 638 341 638 227 c 0
 638 112 589 16 517 -2 c 0
 506 -5 496 -6 485 -6 c 0
 442 -6 400 14 371 52 c 0
 351 78 337 112 334 143 c 0
 334 148 333 151 333 151 c 1
 333 151 332 148 332 143 c 0xfda0
EndSplineSet
Validated: 33
EndChar

StartChar: uni1FF2
Encoding: 8178 8178 179
Width: 667
Flags: W
HStem: -6 59<178 191 178 222 463.5 483.5> 405 58
VStem: 28 70<217.5 256.5 185 289> 274 58<143 145.5 143 161> 298 70 334 58<143 161> 409 41<-130.5 -67> 568 70<174 265>
LayerCount: 2
Fore
SplineSet
277 696 m 0xe3
 302 709 324 693 328 671 c 0
 330 663 358 510 358 508 c 0
 358 506 346 503 345 504 c 0
 343 506 259 655 258 657 c 0
 257 660 257 662 257 665 c 0
 257 678 265 689 277 696 c 0xe3
332 143 m 0xf7
 322 61 262 -6 182 -6 c 0
 106 -6 49 59 33 167 c 0
 30 188 28 208 28 227 c 0
 28 351 99 452 199 463 c 0
 201 464 207 464 214 464 c 0
 234 461 244 454 244 435 c 0
 244 413 234 406 212 405 c 0
 181 403 163 392 146 374 c 0
 115 342 98 288 98 225 c 0
 98 145 114 91 143 68 c 0
 155 58 170 53 186 53 c 0
 196 53 206 55 215 59 c 0
 246 72 274 113 274 160 c 0
 274 162 280 197 286 237 c 0
 300 316 300 317 308 325 c 0
 314 331 324 335 333 335 c 0
 342 335 352 331 358 325 c 0
 366 317 366 316 380 237 c 0
 386 197 392 162 392 160 c 0
 392 152 395 135 398 125 c 0
 410 81 443 53 481 53 c 0
 486 53 490 53 495 54 c 0
 543 64 568 123 568 225 c 0
 568 305 542 368 491 396 c 0
 480 401 469 404 454 405 c 0
 432 406 422 413 422 435 c 0
 422 456 432 463 456 463 c 0
 570 463 638 341 638 227 c 0
 638 112 589 16 517 -2 c 0
 506 -5 496 -6 485 -6 c 0
 442 -6 400 14 371 52 c 0
 351 78 337 112 334 143 c 0
 334 148 333 151 333 151 c 1
 333 151 332 148 332 143 c 0xf7
298 -75 m 2xeb
 298 -50 307 -40 323 -35 c 0
 326 -35 331 -34 335 -34 c 0
 349 -35 359 -42 365 -54 c 0
 367 -59 367 -61 368 -84 c 0
 369 -109 370 -114 374 -123 c 0
 379 -133 392 -135 399 -126 c 0
 406 -119 408 -107 409 -77 c 0
 409 -57 410 -56 412 -54 c 0
 417 -48 426 -51 435 -60 c 0
 445 -71 450 -87 450 -105 c 0
 450 -156 413 -194 375 -194 c 0
 359 -194 343 -187 330 -174 c 0
 309 -154 298 -121 298 -80 c 2
 298 -75 l 2xeb
EndSplineSet
Validated: 33
EndChar

StartChar: uni1FA1
Encoding: 8097 8097 180
Width: 667
Flags: W
HStem: -6 59<178 191 178 222 463.5 483.5> 405 58 515 17<338 364.5> 615 79<331 334 331 346>
VStem: 28 70<217.5 256.5 185 289> 244 17<601.5 609> 274 58<143 145.5 143 161> 298 70 334 58<143 161> 409 41<-130.5 -67> 568 70<174 265>
LayerCount: 2
Fore
SplineSet
244 609 m 0xfce0
 246 652 279 687 318 693 c 0
 321 693 328 694 334 694 c 0
 358 691 373 677 373 654 c 0
 373 632 359 615 333 615 c 0
 307 615 285 636 295 666 c 1
 275 651 261 634 261 604 c 0
 261 556 314 532 362 532 c 0
 368 532 373 529 373 524 c 0
 373 517 368 515 361 515 c 0
 312 515 268 540 252 571 c 0
 246 585 244 594 244 609 c 0xfce0
332 143 m 0xfee0
 322 61 262 -6 182 -6 c 0
 106 -6 49 59 33 167 c 0
 30 188 28 208 28 227 c 0
 28 351 99 452 199 463 c 0
 201 464 207 464 214 464 c 0
 234 461 244 454 244 435 c 0
 244 413 234 406 212 405 c 0
 181 403 163 392 146 374 c 0
 115 342 98 288 98 225 c 0
 98 145 114 91 143 68 c 0
 155 58 170 53 186 53 c 0
 196 53 206 55 215 59 c 0
 246 72 274 113 274 160 c 0
 274 162 280 197 286 237 c 0
 300 316 300 317 308 325 c 0
 314 331 324 335 333 335 c 0
 342 335 352 331 358 325 c 0
 366 317 366 316 380 237 c 0
 386 197 392 162 392 160 c 0
 392 152 395 135 398 125 c 0
 410 81 443 53 481 53 c 0
 486 53 490 53 495 54 c 0
 543 64 568 123 568 225 c 0
 568 305 542 368 491 396 c 0
 480 401 469 404 454 405 c 0
 432 406 422 413 422 435 c 0
 422 456 432 463 456 463 c 0
 570 463 638 341 638 227 c 0
 638 112 589 16 517 -2 c 0
 506 -5 496 -6 485 -6 c 0
 442 -6 400 14 371 52 c 0
 351 78 337 112 334 143 c 0
 334 148 333 151 333 151 c 1
 333 151 332 148 332 143 c 0xfee0
298 -75 m 2xfd60
 298 -50 307 -40 323 -35 c 0
 326 -35 331 -34 335 -34 c 0
 349 -35 359 -42 365 -54 c 0
 367 -59 367 -61 368 -84 c 0
 369 -109 370 -114 374 -123 c 0
 379 -133 392 -135 399 -126 c 0
 406 -119 408 -107 409 -77 c 0
 409 -57 410 -56 412 -54 c 0
 417 -48 426 -51 435 -60 c 0
 445 -71 450 -87 450 -105 c 0
 450 -156 413 -194 375 -194 c 0
 359 -194 343 -187 330 -174 c 0
 309 -154 298 -121 298 -80 c 2
 298 -75 l 2xfd60
EndSplineSet
Validated: 33
EndChar

StartChar: uni1FA0
Encoding: 8096 8096 181
Width: 667
Flags: W
HStem: -6 59<178 191 178 222 463.5 483.5> 405 58 515 17<301.5 325.5 301.5 335.5> 615 78<320.5 346.5>
VStem: 28 70<217.5 256.5 185 289> 274 58<143 145.5 143 161> 298 70 334 58<143 161> 405 17<599.5 609> 409 41<-130.5 -67> 568 70<174 265>
LayerCount: 2
Fore
SplineSet
293 654 m 0xf8a0
 293 673 306 693 330 693 c 0
 385 693 420 655 422 609 c 0
 422 547 366 515 305 515 c 0
 298 515 288 523 296 529 c 0
 298 532 299 532 304 532 c 0
 347 532 384 552 399 579 c 0
 403 587 405 595 405 604 c 0
 405 634 391 651 371 666 c 1
 381 637 360 615 333 615 c 0
 308 615 293 632 293 654 c 0xf8a0
332 143 m 0xfda0
 322 61 262 -6 182 -6 c 0
 106 -6 49 59 33 167 c 0
 30 188 28 208 28 227 c 0
 28 351 99 452 199 463 c 0
 201 464 207 464 214 464 c 0
 234 461 244 454 244 435 c 0
 244 413 234 406 212 405 c 0
 181 403 163 392 146 374 c 0
 115 342 98 288 98 225 c 0
 98 145 114 91 143 68 c 0
 155 58 170 53 186 53 c 0
 196 53 206 55 215 59 c 0
 246 72 274 113 274 160 c 0
 274 162 280 197 286 237 c 0
 300 316 300 317 308 325 c 0
 314 331 324 335 333 335 c 0
 342 335 352 331 358 325 c 0
 366 317 366 316 380 237 c 0
 386 197 392 162 392 160 c 0
 392 152 395 135 398 125 c 0
 410 81 443 53 481 53 c 0
 486 53 490 53 495 54 c 0
 543 64 568 123 568 225 c 0
 568 305 542 368 491 396 c 0
 480 401 469 404 454 405 c 0
 432 406 422 413 422 435 c 0
 422 456 432 463 456 463 c 0
 570 463 638 341 638 227 c 0
 638 112 589 16 517 -2 c 0
 506 -5 496 -6 485 -6 c 0
 442 -6 400 14 371 52 c 0
 351 78 337 112 334 143 c 0
 334 148 333 151 333 151 c 1
 333 151 332 148 332 143 c 0xfda0
298 -75 m 2xfa60
 298 -50 307 -40 323 -35 c 0
 326 -35 331 -34 335 -34 c 0
 349 -35 359 -42 365 -54 c 0
 367 -59 367 -61 368 -84 c 0
 369 -109 370 -114 374 -123 c 0
 379 -133 392 -135 399 -126 c 0
 406 -119 408 -107 409 -77 c 0
 409 -57 410 -56 412 -54 c 0
 417 -48 426 -51 435 -60 c 0
 445 -71 450 -87 450 -105 c 0
 450 -156 413 -194 375 -194 c 0
 359 -194 343 -187 330 -174 c 0
 309 -154 298 -121 298 -80 c 2
 298 -75 l 2xfa60
EndSplineSet
Validated: 33
EndChar

StartChar: uni1FA3
Encoding: 8099 8099 182
Width: 667
Flags: W
HStem: -6 59<178 191 178 222 463.5 483.5> 405 58 515 17<284 310.5> 615 79<277 280 277 292>
VStem: 28 70<217.5 256.5 185 289> 190 17<601.5 609> 241 78 274 58<143 145.5 143 161> 298 70 334 58<143 161> 342 69 409 41<-130.5 -67> 568 70<174 265>
LayerCount: 2
Fore
SplineSet
342 665 m 0xfc28
 342 687 365 707 392 698 c 0xfc48
 399 696 408 687 411 680 c 0
 412 676 443 512 443 508 c 0
 443 506 431 503 430 504 c 0
 428 506 344 655 343 657 c 0
 342 660 342 662 342 665 c 0xfc28
190 609 m 0
 192 652 225 687 264 693 c 0
 267 693 274 694 280 694 c 0
 304 691 319 677 319 654 c 0
 319 632 305 615 279 615 c 0
 253 615 231 636 241 666 c 1
 221 651 207 634 207 604 c 0
 207 556 260 532 308 532 c 0
 314 532 319 529 319 524 c 0xfe08
 319 517 314 515 307 515 c 0
 258 515 214 540 198 571 c 0
 192 585 190 594 190 609 c 0
332 143 m 0xfd48
 322 61 262 -6 182 -6 c 0
 106 -6 49 59 33 167 c 0
 30 188 28 208 28 227 c 0
 28 351 99 452 199 463 c 0
 201 464 207 464 214 464 c 0
 234 461 244 454 244 435 c 0
 244 413 234 406 212 405 c 0
 181 403 163 392 146 374 c 0
 115 342 98 288 98 225 c 0
 98 145 114 91 143 68 c 0
 155 58 170 53 186 53 c 0
 196 53 206 55 215 59 c 0
 246 72 274 113 274 160 c 0
 274 162 280 197 286 237 c 0
 300 316 300 317 308 325 c 0
 314 331 324 335 333 335 c 0
 342 335 352 331 358 325 c 0
 366 317 366 316 380 237 c 0
 386 197 392 162 392 160 c 0
 392 152 395 135 398 125 c 0
 410 81 443 53 481 53 c 0
 486 53 490 53 495 54 c 0
 543 64 568 123 568 225 c 0
 568 305 542 368 491 396 c 0
 480 401 469 404 454 405 c 0
 432 406 422 413 422 435 c 0
 422 456 432 463 456 463 c 0
 570 463 638 341 638 227 c 0
 638 112 589 16 517 -2 c 0
 506 -5 496 -6 485 -6 c 0
 442 -6 400 14 371 52 c 0
 351 78 337 112 334 143 c 0
 334 148 333 151 333 151 c 1
 333 151 332 148 332 143 c 0xfd48
298 -75 m 2xfc98
 298 -50 307 -40 323 -35 c 0
 326 -35 331 -34 335 -34 c 0
 349 -35 359 -42 365 -54 c 0
 367 -59 367 -61 368 -84 c 0
 369 -109 370 -114 374 -123 c 0
 379 -133 392 -135 399 -126 c 0
 406 -119 408 -107 409 -77 c 0
 409 -57 410 -56 412 -54 c 0
 417 -48 426 -51 435 -60 c 0
 445 -71 450 -87 450 -105 c 0
 450 -156 413 -194 375 -194 c 0
 359 -194 343 -187 330 -174 c 0
 309 -154 298 -121 298 -80 c 2
 298 -75 l 2xfc98
EndSplineSet
Validated: 33
EndChar

StartChar: omegatonos
Encoding: 974 974 183
Width: 667
Flags: W
HStem: -6 59<178 191 178 222 463.5 483.5> 405 58
VStem: 28 70<217.5 256.5 185 289> 274 58<143 145.5 143 161> 334 58<143 161> 338 71 568 70<174 265>
LayerCount: 2
Fore
SplineSet
370 700 m 0xf6
 390 700 409 686 409 666 c 0
 409 663 409 660 408 657 c 0
 407 655 323 506 321 504 c 0
 319 502 309 508 308 508 c 1
 308 510 336 663 338 671 c 0
 342 687 350 700 370 700 c 0xf6
332 143 m 0
 322 61 262 -6 182 -6 c 0
 106 -6 49 59 33 167 c 0
 30 188 28 208 28 227 c 0
 28 351 99 452 199 463 c 0
 201 464 207 464 214 464 c 0
 234 461 244 454 244 435 c 0
 244 413 234 406 212 405 c 0
 181 403 163 392 146 374 c 0
 115 342 98 288 98 225 c 0
 98 145 114 91 143 68 c 0
 155 58 170 53 186 53 c 0
 196 53 206 55 215 59 c 0
 246 72 274 113 274 160 c 0
 274 162 280 197 286 237 c 0
 300 316 300 317 308 325 c 0
 314 331 324 335 333 335 c 0
 342 335 352 331 358 325 c 0
 366 317 366 316 380 237 c 0
 386 197 392 162 392 160 c 0
 392 152 395 135 398 125 c 0
 410 81 443 53 481 53 c 0
 486 53 490 53 495 54 c 0
 543 64 568 123 568 225 c 0
 568 305 542 368 491 396 c 0
 480 401 469 404 454 405 c 0
 432 406 422 413 422 435 c 0
 422 456 432 463 456 463 c 0
 570 463 638 341 638 227 c 0
 638 112 589 16 517 -2 c 0
 506 -5 496 -6 485 -6 c 0
 442 -6 400 14 371 52 c 0
 351 78 337 112 334 143 c 0xfa
 334 148 333 151 333 151 c 1
 333 151 332 148 332 143 c 0
EndSplineSet
Validated: 1
EndChar

StartChar: uni1F65
Encoding: 8037 8037 184
Width: 667
Flags: W
HStem: -6 59<178 191 178 222 463.5 483.5> 405 58 515 17<301 327.5> 615 79<294 297 294 309>
VStem: 28 70<217.5 256.5 185 289> 207 17<601.5 609> 258 78 274 58<143 145.5 143 161> 334 58<143 161> 377 67 568 70<174 265>
LayerCount: 2
Fore
SplineSet
377 679 m 0xfc60
 381 691 392 700 407 700 c 0
 428 700 455 683 444 654 c 0
 442 648 359 503 358 503 c 0
 356 503 346 507 346 509 c 0
 346 512 376 675 377 679 c 0xfc60
207 609 m 0
 209 652 242 687 281 693 c 0
 284 693 291 694 297 694 c 0
 321 691 336 677 336 654 c 0
 336 632 322 615 296 615 c 0
 270 615 248 636 258 666 c 1
 238 651 224 634 224 604 c 0
 224 556 277 532 325 532 c 0
 331 532 336 529 336 524 c 0xfe20
 336 517 331 515 324 515 c 0
 275 515 231 540 215 571 c 0
 209 585 207 594 207 609 c 0
332 143 m 0xfda0
 322 61 262 -6 182 -6 c 0
 106 -6 49 59 33 167 c 0
 30 188 28 208 28 227 c 0
 28 351 99 452 199 463 c 0
 201 464 207 464 214 464 c 0
 234 461 244 454 244 435 c 0
 244 413 234 406 212 405 c 0
 181 403 163 392 146 374 c 0
 115 342 98 288 98 225 c 0
 98 145 114 91 143 68 c 0
 155 58 170 53 186 53 c 0
 196 53 206 55 215 59 c 0
 246 72 274 113 274 160 c 0
 274 162 280 197 286 237 c 0
 300 316 300 317 308 325 c 0
 314 331 324 335 333 335 c 0
 342 335 352 331 358 325 c 0
 366 317 366 316 380 237 c 0
 386 197 392 162 392 160 c 0
 392 152 395 135 398 125 c 0
 410 81 443 53 481 53 c 0
 486 53 490 53 495 54 c 0
 543 64 568 123 568 225 c 0
 568 305 542 368 491 396 c 0
 480 401 469 404 454 405 c 0
 432 406 422 413 422 435 c 0
 422 456 432 463 456 463 c 0
 570 463 638 341 638 227 c 0
 638 112 589 16 517 -2 c 0
 506 -5 496 -6 485 -6 c 0
 442 -6 400 14 371 52 c 0
 351 78 337 112 334 143 c 0
 334 148 333 151 333 151 c 1
 333 151 332 148 332 143 c 0xfda0
EndSplineSet
Validated: 33
EndChar

StartChar: uni1F64
Encoding: 8036 8036 185
Width: 667
Flags: W
HStem: -6 59<178 191 178 222 463.5 483.5> 405 58 515 17<219.5 243.5 219.5 253.5> 615 78<238.5 264.5>
VStem: 28 70<217.5 256.5 185 289> 211 78 274 58<143 145.5 143 161> 323 17<599.5 609 578 619> 334 58<143 161> 377 67 568 70<174 265>
LayerCount: 2
Fore
SplineSet
377 679 m 0xf860
 381 691 392 700 407 700 c 0
 428 700 455 683 444 654 c 0
 442 648 359 503 358 503 c 0
 356 503 346 507 346 509 c 0
 346 512 376 675 377 679 c 0xf860
211 654 m 0xfd20
 211 673 224 693 248 693 c 0
 303 693 338 655 340 609 c 0
 340 547 284 515 223 515 c 0
 216 515 206 523 214 529 c 0
 216 532 217 532 222 532 c 0
 265 532 302 552 317 579 c 0
 321 587 323 595 323 604 c 0
 323 634 309 651 289 666 c 1
 299 637 278 615 251 615 c 0
 226 615 211 632 211 654 c 0xfd20
332 143 m 0xfaa0
 322 61 262 -6 182 -6 c 0
 106 -6 49 59 33 167 c 0
 30 188 28 208 28 227 c 0
 28 351 99 452 199 463 c 0
 201 464 207 464 214 464 c 0
 234 461 244 454 244 435 c 0
 244 413 234 406 212 405 c 0
 181 403 163 392 146 374 c 0
 115 342 98 288 98 225 c 0
 98 145 114 91 143 68 c 0
 155 58 170 53 186 53 c 0
 196 53 206 55 215 59 c 0
 246 72 274 113 274 160 c 0
 274 162 280 197 286 237 c 0
 300 316 300 317 308 325 c 0
 314 331 324 335 333 335 c 0
 342 335 352 331 358 325 c 0
 366 317 366 316 380 237 c 0
 386 197 392 162 392 160 c 0
 392 152 395 135 398 125 c 0
 410 81 443 53 481 53 c 0
 486 53 490 53 495 54 c 0
 543 64 568 123 568 225 c 0
 568 305 542 368 491 396 c 0
 480 401 469 404 454 405 c 0
 432 406 422 413 422 435 c 0
 422 456 432 463 456 463 c 0
 570 463 638 341 638 227 c 0
 638 112 589 16 517 -2 c 0
 506 -5 496 -6 485 -6 c 0
 442 -6 400 14 371 52 c 0
 351 78 337 112 334 143 c 0
 334 148 333 151 333 151 c 1
 333 151 332 148 332 143 c 0xfaa0
EndSplineSet
Validated: 33
EndChar

StartChar: uni1F62
Encoding: 8034 8034 186
Width: 667
Flags: W
HStem: -6 59<178 191 178 222 463.5 483.5> 405 58 515 17<207.5 231.5 207.5 241.5> 615 78<226.5 252.5>
VStem: 28 70<217.5 256.5 185 289> 199 78 274 58<143 145.5 143 161> 311 17<599.5 609 578 619> 334 58<143 161> 342 69 568 70<174 265>
LayerCount: 2
Fore
SplineSet
342 665 m 0xf860
 342 687 365 707 392 698 c 0xf8a0
 399 696 408 687 411 680 c 0
 412 676 443 512 443 508 c 0
 443 506 431 503 430 504 c 0
 428 506 344 655 343 657 c 0
 342 660 342 662 342 665 c 0xf860
199 654 m 0xfd20
 199 673 212 693 236 693 c 0
 291 693 326 655 328 609 c 0
 328 547 272 515 211 515 c 0
 204 515 194 523 202 529 c 0
 204 532 205 532 210 532 c 0
 253 532 290 552 305 579 c 0
 309 587 311 595 311 604 c 0
 311 634 297 651 277 666 c 1
 287 637 266 615 239 615 c 0
 214 615 199 632 199 654 c 0xfd20
332 143 m 0xfaa0
 322 61 262 -6 182 -6 c 0
 106 -6 49 59 33 167 c 0
 30 188 28 208 28 227 c 0
 28 351 99 452 199 463 c 0xfc20
 201 464 207 464 214 464 c 0
 234 461 244 454 244 435 c 0
 244 413 234 406 212 405 c 0
 181 403 163 392 146 374 c 0
 115 342 98 288 98 225 c 0
 98 145 114 91 143 68 c 0
 155 58 170 53 186 53 c 0
 196 53 206 55 215 59 c 0
 246 72 274 113 274 160 c 0
 274 162 280 197 286 237 c 0
 300 316 300 317 308 325 c 0
 314 331 324 335 333 335 c 0
 342 335 352 331 358 325 c 0
 366 317 366 316 380 237 c 0
 386 197 392 162 392 160 c 0
 392 152 395 135 398 125 c 0
 410 81 443 53 481 53 c 0
 486 53 490 53 495 54 c 0
 543 64 568 123 568 225 c 0
 568 305 542 368 491 396 c 0
 480 401 469 404 454 405 c 0
 432 406 422 413 422 435 c 0
 422 456 432 463 456 463 c 0
 570 463 638 341 638 227 c 0
 638 112 589 16 517 -2 c 0
 506 -5 496 -6 485 -6 c 0
 442 -6 400 14 371 52 c 0
 351 78 337 112 334 143 c 0
 334 148 333 151 333 151 c 1
 333 151 332 148 332 143 c 0xfaa0
EndSplineSet
Validated: 33
EndChar

StartChar: uni1FF4
Encoding: 8180 8180 187
Width: 667
Flags: W
HStem: -6 59<178 191 178 222 463.5 483.5> 405 58
VStem: 28 70<217.5 256.5 185 289> 274 58<143 145.5 143 161> 298 70 334 58<143 161> 338 71 409 41<-130.5 -67> 568 70<174 265>
LayerCount: 2
Fore
SplineSet
370 700 m 0xe280
 390 700 409 686 409 666 c 0
 409 663 409 660 408 657 c 0
 407 655 323 506 321 504 c 0
 319 502 309 508 308 508 c 1
 308 510 336 663 338 671 c 0
 342 687 350 700 370 700 c 0xe280
332 143 m 0xf480
 322 61 262 -6 182 -6 c 0
 106 -6 49 59 33 167 c 0
 30 188 28 208 28 227 c 0
 28 351 99 452 199 463 c 0
 201 464 207 464 214 464 c 0
 234 461 244 454 244 435 c 0
 244 413 234 406 212 405 c 0
 181 403 163 392 146 374 c 0
 115 342 98 288 98 225 c 0
 98 145 114 91 143 68 c 0
 155 58 170 53 186 53 c 0
 196 53 206 55 215 59 c 0
 246 72 274 113 274 160 c 0
 274 162 280 197 286 237 c 0
 300 316 300 317 308 325 c 0
 314 331 324 335 333 335 c 0
 342 335 352 331 358 325 c 0
 366 317 366 316 380 237 c 0
 386 197 392 162 392 160 c 0
 392 152 395 135 398 125 c 0
 410 81 443 53 481 53 c 0
 486 53 490 53 495 54 c 0
 543 64 568 123 568 225 c 0
 568 305 542 368 491 396 c 0
 480 401 469 404 454 405 c 0
 432 406 422 413 422 435 c 0
 422 456 432 463 456 463 c 0
 570 463 638 341 638 227 c 0
 638 112 589 16 517 -2 c 0
 506 -5 496 -6 485 -6 c 0
 442 -6 400 14 371 52 c 0
 351 78 337 112 334 143 c 0
 334 148 333 151 333 151 c 1
 333 151 332 148 332 143 c 0xf480
298 -75 m 2xe980
 298 -50 307 -40 323 -35 c 0
 326 -35 331 -34 335 -34 c 0
 349 -35 359 -42 365 -54 c 0
 367 -59 367 -61 368 -84 c 0
 369 -109 370 -114 374 -123 c 0
 379 -133 392 -135 399 -126 c 0
 406 -119 408 -107 409 -77 c 0
 409 -57 410 -56 412 -54 c 0
 417 -48 426 -51 435 -60 c 0
 445 -71 450 -87 450 -105 c 0
 450 -156 413 -194 375 -194 c 0
 359 -194 343 -187 330 -174 c 0
 309 -154 298 -121 298 -80 c 2
 298 -75 l 2xe980
EndSplineSet
Validated: 1
EndChar

